SplineFontDB: 3.0
FontName: Jura-DemiBold
FullName: Jura DemiBold
FamilyName: Jura
Weight: DemiBold
Copyright: Copyright 2009, 2010, 2011 by Daniel Johnson.  Released under the terms of the Open Font License.
Version: 2.5.1
ItalicAngle: 0
UnderlinePosition: -102
UnderlineWidth: 51
Ascent: 819
Descent: 205
LayerCount: 2
Layer: 0 1 "Back"  1
Layer: 1 1 "Fore"  0
XUID: [1021 288 713564382 10380646]
FSType: 0
OS2Version: 2
OS2_WeightWidthSlopeOnly: 0
OS2_UseTypoMetrics: 1
CreationTime: 1232036477
ModificationTime: 1304075337
PfmFamily: 33
TTFWeight: 600
TTFWidth: 5
LineGap: 0
VLineGap: 0
Panose: 2 0 7 3 0 0 0 0 0 0
OS2TypoAscent: 842
OS2TypoAOffset: 0
OS2TypoDescent: -209
OS2TypoDOffset: 0
OS2TypoLinegap: 0
OS2WinAscent: 842
OS2WinAOffset: 0
OS2WinDescent: 209
OS2WinDOffset: 0
HheadAscent: 842
HheadAOffset: 0
HheadDescent: -209
HheadDOffset: 0
OS2SubXSize: 665
OS2SubYSize: 716
OS2SubXOff: 0
OS2SubYOff: 143
OS2SupXSize: 665
OS2SupYSize: 716
OS2SupXOff: 0
OS2SupYOff: 491
OS2StrikeYSize: 51
OS2StrikeYPos: 265
OS2Vendor: 'PfEd'
OS2CodePages: 2000009f.00000000
OS2UnicodeRanges: a00002ef.5000204b.00000020.00000000
Lookup: 260 0 0 "'abvm' Above Base Mark lookup 0"  {"'abvm' Above Base Mark lookup 0 subtable"  } ['abvm' ('DFLT' <'dflt' > 'cyrl' <'dflt' > 'grek' <'dflt' > 'latn' <'dflt' > ) ]
Lookup: 260 0 0 "'blwm' Below Base Mark lookup 1"  {"'blwm' Below Base Mark lookup 1 subtable"  } ['blwm' ('DFLT' <'dflt' > 'cyrl' <'dflt' > 'grek' <'dflt' > 'latn' <'dflt' > ) ]
Lookup: 258 0 0 "'kern' Horizontal Kerning in Latin lookup 2"  {"'kern' Horizontal Kerning in Latin lookup 2 per glyph data 0"  "'kern' Horizontal Kerning in Latin lookup 2 kerning class 1"  } ['kern' ('latn' <'dflt' > ) ]
MarkAttachClasses: 1
DEI: 91125
KernClass2: 158+ 130 "'kern' Horizontal Kerning in Latin lookup 2 kerning class 1" 
 5 space
 2 Xi
 29 Alphatonos Alpha Delta Lambda
 5 Gamma
 20 Epsilontonos Epsilon
 4 Zeta
 49 Etatonos Iotatonos Eta Iota Mu Nu Pi Iotadieresis
 5 Kappa

StartChar: .notdef
Encoding: 65536 -1 0
Width: 538
Flags: W
LayerCount: 2
Fore
SplineSet
156 546 m 2,0,-1
 156 130 l 2,1,2
 156 98 156 98 167.5 84.5 c 128,-1,3
 179 71 179 71 210 71 c 2,4,-1
 328 71 l 2,5,6
 359 71 359 71 370.5 84.5 c 128,-1,7
 382 98 382 98 382 130 c 2,8,-1
 382 546 l 2,9,10
 382 578 382 578 370.5 592 c 128,-1,11
 359 606 359 606 328 606 c 2,12,-1
 210 606 l 2,13,14
 179 606 179 606 167.5 592 c 128,-1,15
 156 578 156 578 156 546 c 2,0,-1
85 0 m 1,16,-1
 85 678 l 1,17,-1
 453 678 l 1,18,-1
 453 0 l 1,19,-1
 85 0 l 1,16,-1
EndSplineSet
EndChar

StartChar: exclam
Encoding: 33 33 4
Width: 260
GlyphClass: 2
Flags: W
LayerCount: 2
Fore
SplineSet
130 80 m 128,-1,1
 150 80 150 80 171 66 c 128,-1,2
 192 52 192 52 192 29 c 0,3,4
 192 7 192 7 172 -7.5 c 128,-1,5
 152 -22 152 -22 130 -22 c 0,6,7
 110 -22 110 -22 89.5 -7.5 c 128,-1,8
 69 7 69 7 69 29 c 128,-1,9
 69 51 69 51 89.5 65.5 c 128,-1,0
 110 80 110 80 130 80 c 128,-1,1
166 197 m 2,10,11
 166 154 166 154 129 154 c 0,12,13
 94 154 94 154 94 197 c 2,14,-1
 94 616 l 2,15,16
 94 639 94 639 105 649 c 128,-1,17
 116 659 116 659 130 659 c 128,-1,18
 144 659 144 659 155 649 c 128,-1,19
 166 639 166 639 166 616 c 2,20,-1
 166 197 l 2,10,11
EndSplineSet
EndChar

StartChar: quotedbl
Encoding: 34 34 5
Width: 314
GlyphClass: 2
Flags: W
LayerCount: 2
Fore
SplineSet
172 615 m 2,0,1
 172 638 172 638 183 648 c 128,-1,2
 194 658 194 658 208 658 c 128,-1,3
 222 658 222 658 233 648 c 128,-1,4
 244 638 244 638 244 615 c 2,5,-1
 244 466 l 2,6,7
 244 423 244 423 207 423 c 0,8,9
 172 423 172 423 172 466 c 2,10,-1
 172 615 l 2,0,1
71 615 m 2,11,12
 71 638 71 638 82 648 c 128,-1,13
 93 658 93 658 107 658 c 0,14,15
 142 658 142 658 142 615 c 2,16,-1
 142 466 l 2,17,18
 142 443 142 443 131 433 c 128,-1,19
 120 423 120 423 106 423 c 0,20,21
 71 423 71 423 71 466 c 2,22,-1
 71 615 l 2,11,12
EndSplineSet
EndChar

StartChar: numbersign
Encoding: 35 35 6
Width: 622
GlyphClass: 2
Flags: W
LayerCount: 2
Fore
SplineSet
306 446 m 1,0,-1
 409 446 l 1,1,-1
 468 610 l 1,2,3
 480 640 480 640 505 640 c 0,4,5
 521 640 521 640 531 629 c 128,-1,6
 541 618 541 618 541 604 c 0,7,8
 541 596 541 596 538 584 c 1,9,-1
 486 446 l 1,10,-1
 535 446 l 2,11,12
 558 446 558 446 568 435 c 128,-1,13
 578 424 578 424 578 410 c 128,-1,14
 578 396 578 396 568 385 c 128,-1,15
 558 374 558 374 535 374 c 2,16,-1
 460 374 l 1,17,-1
 419 262 l 1,18,-1
 504 262 l 2,19,20
 547 262 547 262 547 225 c 0,21,22
 547 190 547 190 504 190 c 2,23,-1
 393 190 l 1,24,-1
 334 26 l 1,25,26
 320 -4 320 -4 297 -4 c 0,27,28
 281 -4 281 -4 271 6 c 128,-1,29
 261 16 261 16 261 32 c 0,30,31
 261 40 261 40 264 52 c 1,32,-1
 317 190 l 1,33,-1
 214 190 l 1,34,-1
 155 26 l 1,35,36
 141 -4 141 -4 118 -4 c 0,37,38
 103 -4 103 -4 93 5.5 c 128,-1,39
 83 15 83 15 83 31 c 0,40,41
 83 39 83 39 86 51 c 1,42,-1
 138 190 l 1,43,-1
 86 190 l 2,44,45
 63 190 63 190 53 201 c 128,-1,46
 43 212 43 212 43 226 c 128,-1,47
 43 240 43 240 53 251 c 128,-1,48
 63 262 63 262 86 262 c 2,49,-1
 164 262 l 1,50,-1
 205 374 l 1,51,-1
 116 374 l 2,52,53
 74 374 74 374 74 411 c 0,54,55
 74 425 74 425 83.5 435.5 c 128,-1,56
 93 446 93 446 116 446 c 2,57,-1
 231 446 l 1,58,-1
 290 610 l 2,59,60
 300 640 300 640 326 640 c 0,61,62
 342 640 342 640 352 630 c 128,-1,63
 362 620 362 620 362 605 c 0,64,65
 362 593 362 593 359 585 c 2,66,-1
 306 446 l 1,0,-1
281 374 m 1,67,-1
 240 262 l 1,68,-1
 342 262 l 1,69,-1
 383 374 l 1,70,-1
 281 374 l 1,67,-1
EndSplineSet
EndChar

StartChar: dollar
Encoding: 36 36 7
Width: 628
GlyphClass: 2
Flags: W
LayerCount: 2
Fore
SplineSet
171 84 m 2,0,1
 106 84 106 84 83.5 116.5 c 128,-1,2
 61 149 61 149 61 203 c 0,3,4
 61 246 61 246 97 246 c 128,-1,5
 133 246 133 246 133 205 c 0,6,7
 133 174 133 174 142.5 165 c 128,-1,8
 152 156 152 156 178 156 c 2,9,-1
 284 156 l 1,10,-1
 284 291 l 1,11,-1
 201 291 l 2,12,13
 125 291 125 291 93 330 c 128,-1,14
 61 369 61 369 61 428 c 0,15,16
 61 557 61 557 201 557 c 2,17,-1
 284 557 l 1,18,-1
 284 602 l 2,19,20
 284 643 284 643 318 643 c 0,21,22
 356 643 356 643 356 603 c 2,23,-1
 356 557 l 1,24,-1
 457 557 l 2,25,26
 522 557 522 557 544.5 525.5 c 128,-1,27
 567 494 567 494 567 441 c 0,28,29
 567 397 567 397 531 397 c 128,-1,30
 495 397 495 397 495 439 c 0,31,32
 495 468 495 468 486 476.5 c 128,-1,33
 477 485 477 485 450 485 c 2,34,-1
 356 485 l 1,35,-1
 356 363 l 1,36,-1
 430 363 l 2,37,38
 567 363 567 363 567 220 c 0,39,40
 567 84 567 84 428 84 c 2,41,-1
 356 84 l 1,42,-1
 356 34 l 2,43,44
 356 -7 356 -7 317 -7 c 0,45,46
 284 -7 284 -7 284 32 c 2,47,-1
 284 84 l 1,48,-1
 171 84 l 2,0,1
446 291 m 2,49,-1
 356 291 l 1,50,-1
 356 156 l 1,51,-1
 446 156 l 2,52,53
 473 156 473 156 484 170 c 128,-1,54
 495 184 495 184 495 214 c 0,55,56
 495 249 495 249 481 270 c 128,-1,57
 467 291 467 291 446 291 c 2,49,-1
182 363 m 2,58,-1
 284 363 l 1,59,-1
 284 485 l 1,60,-1
 182 485 l 2,61,62
 156 485 156 485 144.5 474.5 c 128,-1,63
 133 464 133 464 133 434 c 0,64,65
 133 400 133 400 147 381.5 c 128,-1,66
 161 363 161 363 182 363 c 2,58,-1
EndSplineSet
EndChar

StartChar: percent
Encoding: 37 37 8
Width: 597
GlyphClass: 2
Flags: W
LayerCount: 2
Fore
SplineSet
405 183 m 128,-1,1
 405 175 405 175 411 169 c 128,-1,2
 417 163 417 163 425 163 c 128,-1,3
 433 163 433 163 439 169 c 128,-1,4
 445 175 445 175 445 183 c 0,5,6
 445 203 445 203 425 203 c 0,7,8
 417 203 417 203 411 197 c 128,-1,0
 405 191 405 191 405 183 c 128,-1,1
322 183 m 128,-1,10
 322 221 322 221 353 248 c 128,-1,11
 384 275 384 275 425 275 c 0,12,13
 463 275 463 275 490 248 c 128,-1,14
 517 221 517 221 517 183 c 128,-1,15
 517 145 517 145 490 118 c 128,-1,16
 463 91 463 91 425 91 c 0,17,18
 384 91 384 91 353 118 c 128,-1,9
 322 145 322 145 322 183 c 128,-1,10
152 461 m 0,19,20
 152 453 152 453 158.5 447 c 128,-1,21
 165 441 165 441 172 441 c 0,22,23
 178 441 178 441 185 447 c 128,-1,24
 192 453 192 453 192 461 c 0,25,26
 192 467 192 467 185 471.5 c 128,-1,27
 178 476 178 476 172 476 c 0,28,29
 164 476 164 476 158 471.5 c 128,-1,30
 152 467 152 467 152 461 c 0,19,20
79 461 m 0,31,32
 79 497 79 497 106 522.5 c 128,-1,33
 133 548 133 548 172 548 c 0,34,35
 213 548 213 548 243.5 522.5 c 128,-1,36
 274 497 274 497 274 461 c 0,37,38
 274 423 274 423 243.5 396 c 128,-1,39
 213 369 213 369 172 369 c 0,40,41
 133 369 133 369 106 396 c 128,-1,42
 79 423 79 423 79 461 c 0,31,32
494 528 m 0,43,44
 506 528 506 528 517.5 518 c 128,-1,45
 529 508 529 508 529 493 c 0,46,47
 529 477 529 477 514 462 c 2,48,-1
 133 115 l 2,49,50
 118 101 118 101 102 101 c 0,51,52
 90 101 90 101 78.5 111 c 128,-1,53
 67 121 67 121 67 136 c 0,54,55
 67 152 67 152 83 168 c 1,56,-1
 464 514 l 2,57,58
 480 528 480 528 494 528 c 0,43,44
EndSplineSet
EndChar

StartChar: ampersand
Encoding: 38 38 9
Width: 534
GlyphClass: 2
Flags: W
LayerCount: 2
Fore
SplineSet
357 86 m 1,0,-1
 167 305 l 1,1,2
 113 266 113 266 113 182 c 0,3,4
 113 132 113 132 139 100 c 128,-1,5
 165 68 165 68 195.5 58 c 128,-1,6
 226 48 226 48 260 48 c 0,7,8
 312 48 312 48 357 86 c 1,0,-1
121 359 m 1,9,10
 66 418 66 418 66 476 c 0,11,12
 66 557 66 557 125.5 609.5 c 128,-1,13
 185 662 185 662 254 662 c 0,14,15
 298 662 298 662 336 632.5 c 128,-1,16
 374 603 374 603 391 572.5 c 128,-1,17
 408 542 408 542 408 528 c 128,-1,18
 408 514 408 514 398 503.5 c 128,-1,19
 388 493 388 493 372 493 c 0,20,21
 357 493 357 493 344 508 c 128,-1,22
 331 523 331 523 322 541.5 c 128,-1,23
 313 560 313 560 295.5 575 c 128,-1,24
 278 590 278 590 254 590 c 0,25,26
 210 590 210 590 175 559 c 128,-1,27
 140 528 140 528 140 476 c 0,28,29
 140 444 140 444 176 403 c 2,30,-1
 402 142 l 1,31,32
 423 178 423 178 423 227 c 0,33,34
 423 273 423 273 460 273 c 0,35,36
 494 273 494 273 494 227 c 0,37,38
 494 148 494 148 451 84 c 1,39,-1
 493 38 l 2,40,41
 502 28 502 28 502 11 c 128,-1,42
 502 -6 502 -6 491 -14 c 128,-1,43
 480 -22 480 -22 470 -22 c 0,44,45
 450 -22 450 -22 432 -2 c 2,46,-1
 403 31 l 1,47,48
 338 -24 338 -24 260 -24 c 0,49,50
 224 -24 224 -24 188 -13 c 128,-1,51
 152 -2 152 -2 118 21 c 128,-1,52
 84 44 84 44 62.5 86 c 128,-1,53
 41 128 41 128 41 182 c 0,54,55
 41 295 41 295 121 359 c 1,9,10
EndSplineSet
EndChar

StartChar: quotesingle
Encoding: 39 39 10
Width: 212
GlyphClass: 2
Flags: W
LayerCount: 2
Fore
SplineSet
71 615 m 2,0,1
 71 638 71 638 82 648 c 128,-1,2
 93 658 93 658 107 658 c 0,3,4
 142 658 142 658 142 615 c 2,5,-1
 142 466 l 2,6,7
 142 443 142 443 131 433 c 128,-1,8
 120 423 120 423 106 423 c 0,9,10
 71 423 71 423 71 466 c 2,11,-1
 71 615 l 2,0,1
EndSplineSet
EndChar

StartChar: parenleft
Encoding: 40 40 11
Width: 271
GlyphClass: 2
Flags: W
LayerCount: 2
Fore
SplineSet
223 15 m 1,0,-1
 223 -57 l 1,1,2
 195 -57 195 -57 180.5 -56 c 128,-1,3
 166 -55 166 -55 145.5 -49.5 c 128,-1,4
 125 -44 125 -44 114.5 -32 c 128,-1,5
 104 -20 104 -20 93 0.5 c 128,-1,6
 82 21 82 21 77.5 54 c 128,-1,7
 73 87 73 87 73 133 c 2,8,-1
 73 503 l 2,9,10
 73 549 73 549 77.5 582 c 128,-1,11
 82 615 82 615 93 635.5 c 128,-1,12
 104 656 104 656 114.5 668 c 128,-1,13
 125 680 125 680 145.5 685.5 c 128,-1,14
 166 691 166 691 180.5 692 c 128,-1,15
 195 693 195 693 223 693 c 1,16,-1
 223 621 l 1,17,18
 191 621 191 621 179 620 c 128,-1,19
 167 619 167 619 157 605.5 c 128,-1,20
 147 592 147 592 146 572 c 128,-1,21
 145 552 145 552 145 503 c 2,22,-1
 145 133 l 2,23,24
 145 100 145 100 145.5 83.5 c 128,-1,25
 146 67 146 67 149.5 51.5 c 128,-1,26
 153 36 153 36 156 30.5 c 128,-1,27
 159 25 159 25 170 20.5 c 128,-1,28
 181 16 181 16 191 15.5 c 128,-1,29
 201 15 201 15 223 15 c 1,0,-1
EndSplineSet
EndChar

StartChar: parenright
Encoding: 41 41 12
Width: 271
GlyphClass: 2
Flags: W
LayerCount: 2
Fore
SplineSet
48 15 m 1,0,1
 70 15 70 15 80 15.5 c 128,-1,2
 90 16 90 16 101 20.5 c 128,-1,3
 112 25 112 25 115 30.5 c 128,-1,4
 118 36 118 36 121.5 51.5 c 128,-1,5
 125 67 125 67 125.5 83.5 c 128,-1,6
 126 100 126 100 126 133 c 2,7,-1
 126 503 l 2,8,9
 126 552 126 552 125 572 c 128,-1,10
 124 592 124 592 114 605.5 c 128,-1,11
 104 619 104 619 92 620 c 128,-1,12
 80 621 80 621 48 621 c 1,13,-1
 48 693 l 1,14,15
 76 693 76 693 90.5 692 c 128,-1,16
 105 691 105 691 125.5 685.5 c 128,-1,17
 146 680 146 680 156.5 668 c 128,-1,18
 167 656 167 656 178 635.5 c 128,-1,19
 189 615 189 615 193.5 582 c 128,-1,20
 198 549 198 549 198 503 c 2,21,-1
 198 133 l 2,22,23
 198 87 198 87 193.5 54 c 128,-1,24
 189 21 189 21 178 0.5 c 128,-1,25
 167 -20 167 -20 156.5 -32 c 128,-1,26
 146 -44 146 -44 125.5 -49.5 c 128,-1,27
 105 -55 105 -55 90.5 -56 c 128,-1,28
 76 -57 76 -57 48 -57 c 1,29,-1
 48 15 l 1,0,1
EndSplineSet
EndChar

StartChar: asterisk
Encoding: 42 42 13
Width: 415
GlyphClass: 2
Flags: W
LayerCount: 2
Fore
SplineSet
243 374 m 2,0,1
 243 351 243 351 232 341 c 128,-1,2
 221 331 221 331 207 331 c 128,-1,3
 193 331 193 331 182 341 c 128,-1,4
 171 351 171 351 171 374 c 2,5,-1
 171 428 l 1,6,7
 106 395 106 395 98 394 c 1,8,9
 84 394 84 394 74 405 c 128,-1,10
 64 416 64 416 64 429 c 0,11,12
 64 450 64 450 86 463 c 2,13,-1
 135 492 l 1,14,-1
 87 519 l 2,15,16
 64 531 64 531 64 553 c 0,17,18
 64 558 64 558 66.5 565.5 c 128,-1,19
 69 573 69 573 77.5 580.5 c 128,-1,20
 86 588 86 588 98 588 c 0,21,22
 100 588 100 588 102 588 c 128,-1,23
 104 588 104 588 106 587.5 c 128,-1,24
 108 587 108 587 110 586 c 128,-1,25
 112 585 112 585 115.5 583.5 c 128,-1,26
 119 582 119 582 122 580.5 c 128,-1,27
 125 579 125 579 130.5 576 c 128,-1,28
 136 573 136 573 141 570.5 c 128,-1,29
 146 568 146 568 154.5 563 c 128,-1,30
 163 558 163 558 171 554 c 1,31,-1
 171 608 l 2,32,33
 171 651 171 651 208 651 c 0,34,35
 243 651 243 651 243 608 c 2,36,-1
 243 554 l 1,37,38
 308 587 308 587 316 588 c 1,39,40
 331 588 331 588 341 577 c 128,-1,41
 351 566 351 566 351 553 c 0,42,43
 351 534 351 534 328 519 c 1,44,-1
 280 492 l 1,45,-1
 328 463 l 2,46,47
 351 448 351 448 351 429 c 0,48,49
 351 420 351 420 342 407 c 128,-1,50
 333 394 333 394 316 394 c 0,51,52
 314 394 314 394 312 394 c 128,-1,53
 310 394 310 394 308 394.5 c 128,-1,54
 306 395 306 395 304 396 c 128,-1,55
 302 397 302 397 298.5 398.5 c 128,-1,56
 295 400 295 400 292 401.5 c 128,-1,57
 289 403 289 403 283.5 406 c 128,-1,58
 278 409 278 409 273 411.5 c 128,-1,59
 268 414 268 414 259.5 419 c 128,-1,60
 251 424 251 424 243 428 c 1,61,-1
 243 374 l 2,0,1
EndSplineSet
EndChar

StartChar: plus
Encoding: 43 43 14
Width: 531
GlyphClass: 2
Flags: W
LayerCount: 2
Fore
SplineSet
229 194 m 1,0,-1
 75 194 l 2,1,2
 34 194 34 194 34 231 c 0,3,4
 34 244 34 244 43.5 255.5 c 128,-1,5
 53 267 53 267 75 267 c 2,6,-1
 229 267 l 1,7,-1
 229 440 l 2,8,9
 229 483 229 483 266 483 c 0,10,11
 301 483 301 483 301 440 c 2,12,-1
 301 267 l 1,13,-1
 453 267 l 2,14,15
 497 267 497 267 497 229 c 0,16,17
 497 213 497 213 484.5 203.5 c 128,-1,18
 472 194 472 194 453 194 c 2,19,-1
 301 194 l 1,20,-1
 301 20 l 2,21,22
 301 -22 301 -22 265 -22 c 128,-1,23
 229 -22 229 -22 229 20 c 2,24,-1
 229 194 l 1,0,-1
EndSplineSet
EndChar

StartChar: comma
Encoding: 44 44 15
Width: 226
GlyphClass: 2
Flags: W
LayerCount: 2
Fore
SplineSet
113 -65 m 1,0,1
 100 -95 100 -95 79 -95 c 0,2,3
 47 -95 47 -95 47 -60 c 1,4,5
 47 -60 47 -60 50 -42 c 1,6,-1
 74 45 l 2,7,8
 83 76 83 76 109 76 c 0,9,10
 116 76 116 76 126.5 74 c 128,-1,11
 137 72 137 72 148.5 63.5 c 128,-1,12
 160 55 160 55 160 41 c 0,13,14
 160 32 160 32 153 18 c 2,15,-1
 113 -65 l 1,0,1
EndSplineSet
EndChar

StartChar: hyphen
Encoding: 45 45 16
Width: 476
GlyphClass: 2
Flags: W
LayerCount: 2
Fore
SplineSet
359 267 m 2,0,1
 403 267 403 267 403 229 c 0,2,3
 403 213 403 213 390.5 203.5 c 128,-1,4
 378 194 378 194 359 194 c 2,5,-1
 114 194 l 2,6,7
 73 194 73 194 73 231 c 0,8,9
 73 244 73 244 82.5 255.5 c 128,-1,10
 92 267 92 267 114 267 c 2,11,-1
 359 267 l 2,0,1
EndSplineSet
EndChar

StartChar: period
Encoding: 46 46 17
Width: 250
GlyphClass: 2
Flags: W
LayerCount: 2
Fore
SplineSet
125 -22 m 0,0,1
 103 -22 103 -22 83.5 -7.5 c 128,-1,2
 64 7 64 7 64 29 c 128,-1,3
 64 51 64 51 84.5 65.5 c 128,-1,4
 105 80 105 80 125 80 c 128,-1,5
 145 80 145 80 165.5 65.5 c 128,-1,6
 186 51 186 51 186 29 c 128,-1,7
 186 7 186 7 165.5 -7.5 c 128,-1,8
 145 -22 145 -22 125 -22 c 0,0,1
EndSplineSet
EndChar

StartChar: slash
Encoding: 47 47 18
Width: 375
GlyphClass: 2
Flags: W
LayerCount: 2
Fore
SplineSet
113 6 m 1,0,1
 101 -23 101 -23 77 -23 c 0,2,3
 66 -23 66 -23 53.5 -15 c 128,-1,4
 41 -7 41 -7 41 11 c 0,5,6
 41 24 41 24 52 53 c 2,7,-1
 262 631 l 1,8,9
 275 660 275 660 297 660 c 0,10,11
 309 660 309 660 321.5 652 c 128,-1,12
 334 644 334 644 334 626 c 0,13,14
 334 612 334 612 325 590 c 2,15,-1
 113 6 l 1,0,1
EndSplineSet
EndChar

StartChar: zero
Encoding: 48 48 19
Width: 592
GlyphClass: 2
Flags: W
LayerCount: 2
Fore
SplineSet
116 491 m 2,0,-1
 116 144 l 2,1,2
 116 117 116 117 147.5 92 c 128,-1,3
 179 67 179 67 227 67 c 2,4,-1
 365 67 l 2,5,6
 413 67 413 67 444.5 92 c 128,-1,7
 476 117 476 117 476 144 c 2,8,-1
 476 491 l 2,9,10
 476 518 476 518 444.5 543 c 128,-1,11
 413 568 413 568 365 568 c 2,12,-1
 227 568 l 2,13,14
 179 568 179 568 147.5 543 c 128,-1,15
 116 518 116 518 116 491 c 2,0,-1
548 158 m 2,16,17
 548 86 548 86 493.5 40.5 c 128,-1,18
 439 -5 439 -5 354 -5 c 2,19,-1
 238 -5 l 2,20,21
 153 -5 153 -5 98.5 40.5 c 128,-1,22
 44 86 44 86 44 158 c 2,23,-1
 44 478 l 2,24,25
 44 550 44 550 98.5 595.5 c 128,-1,26
 153 641 153 641 238 641 c 2,27,-1
 354 641 l 2,28,29
 439 641 439 641 493.5 595.5 c 128,-1,30
 548 550 548 550 548 478 c 2,31,-1
 548 158 l 2,16,17
EndSplineSet
EndChar

StartChar: one
Encoding: 49 49 20
Width: 592
GlyphClass: 2
Flags: W
LayerCount: 2
Fore
SplineSet
269 569 m 1,0,-1
 261 562 l 2,1,2
 244 546 244 546 225 546 c 0,3,4
 207 546 207 546 199 556 c 128,-1,5
 191 566 191 566 191 576 c 0,6,7
 191 593 191 593 209 610 c 2,8,-1
 270 670 l 1,9,10
 287 685 287 685 304 685 c 0,11,12
 316 685 316 685 328.5 675.5 c 128,-1,13
 341 666 341 666 341 647 c 2,14,-1
 341 33 l 2,15,16
 341 -7 341 -7 305 -7 c 128,-1,17
 269 -7 269 -7 269 33 c 2,18,-1
 269 569 l 1,0,-1
EndSplineSet
EndChar

StartChar: two
Encoding: 50 50 21
Width: 592
GlyphClass: 2
Flags: W
LayerCount: 2
Fore
SplineSet
548 456 m 0,0,1
 548 406 548 406 505.5 366 c 128,-1,2
 463 326 463 326 401.5 296.5 c 128,-1,3
 340 267 340 267 277.5 237 c 128,-1,4
 215 207 215 207 168.5 163.5 c 128,-1,5
 122 120 122 120 117 67 c 1,6,-1
 503 67 l 2,7,8
 548 67 548 67 548 30 c 0,9,10
 548 -5 548 -5 503 -5 c 2,11,-1
 45 -5 l 1,12,-1
 45 52 l 2,13,14
 45 122 45 122 89.5 176.5 c 128,-1,15
 134 231 134 231 197 264 c 128,-1,16
 260 297 260 297 323.5 324.5 c 128,-1,17
 387 352 387 352 431.5 384 c 128,-1,18
 476 416 476 416 476 454 c 0,19,20
 476 529 476 529 443 549 c 128,-1,21
 410 569 410 569 314 569 c 2,22,-1
 161 569 l 2,23,24
 135 569 135 569 126 559 c 128,-1,25
 117 549 117 549 117 519 c 0,26,27
 117 474 117 474 80 474 c 0,28,29
 45 474 45 474 45 519 c 0,30,31
 45 585 45 585 71 613 c 128,-1,32
 97 641 97 641 154 641 c 2,33,-1
 314 641 l 2,34,35
 435 641 435 641 491.5 603 c 128,-1,36
 548 565 548 565 548 456 c 0,0,1
EndSplineSet
EndChar

StartChar: three
Encoding: 51 51 22
Width: 592
GlyphClass: 2
Flags: W
LayerCount: 2
Fore
SplineSet
342 569 m 2,0,-1
 250 569 l 2,1,2
 199 569 199 569 157.5 553 c 128,-1,3
 116 537 116 537 116 517 c 0,4,5
 116 474 116 474 80 474 c 128,-1,6
 44 474 44 474 44 519 c 0,7,8
 44 569 44 569 98 605 c 128,-1,9
 152 641 152 641 243 641 c 2,10,-1
 329 641 l 2,11,12
 449 641 449 641 498.5 596.5 c 128,-1,13
 548 552 548 552 548 447 c 0,14,15
 548 414 548 414 512 380 c 128,-1,16
 476 346 476 346 435 326 c 1,17,18
 475 305 475 305 511.5 264 c 128,-1,19
 548 223 548 223 548 189 c 0,20,21
 548 84 548 84 498.5 39.5 c 128,-1,22
 449 -5 449 -5 329 -5 c 2,23,-1
 243 -5 l 2,24,25
 152 -5 152 -5 98 31 c 128,-1,26
 44 67 44 67 44 116 c 0,27,28
 44 162 44 162 80 162 c 128,-1,29
 116 162 116 162 116 119 c 0,30,31
 116 99 116 99 157 83 c 128,-1,32
 198 67 198 67 250 67 c 2,33,-1
 342 67 l 2,34,35
 420 67 420 67 448.5 93.5 c 128,-1,36
 477 120 477 120 477 172 c 0,37,38
 477 217 477 217 413.5 253 c 128,-1,39
 350 289 350 289 291 289 c 0,40,41
 238 289 238 289 238 326 c 0,42,43
 238 362 238 362 291 362 c 0,44,45
 356 362 356 362 416.5 392 c 128,-1,46
 477 422 477 422 477 466 c 0,47,48
 477 517 477 517 448.5 543 c 128,-1,49
 420 569 420 569 342 569 c 2,0,-1
EndSplineSet
EndChar

StartChar: four
Encoding: 52 52 23
Width: 592
GlyphClass: 2
Flags: W
LayerCount: 2
Fore
SplineSet
508 160 m 2,0,-1
 462 160 l 1,1,-1
 462 32 l 2,2,3
 462 -7 462 -7 426 -7 c 0,4,5
 409 -7 409 -7 397.5 3 c 128,-1,6
 386 13 386 13 386 32 c 2,7,-1
 386 160 l 1,8,-1
 42 160 l 1,9,-1
 42 235 l 1,10,-1
 378 641 l 1,11,-1
 462 641 l 1,12,-1
 462 232 l 1,13,-1
 508 232 l 2,14,15
 550 232 550 232 550 196 c 128,-1,16
 550 160 550 160 508 160 c 2,0,-1
386 232 m 1,17,-1
 386 550 l 1,18,-1
 124 232 l 1,19,-1
 386 232 l 1,17,-1
EndSplineSet
EndChar

StartChar: five
Encoding: 53 53 24
Width: 592
GlyphClass: 2
Flags: W
LayerCount: 2
Fore
SplineSet
83 141 m 0,0,1
 91 141 91 141 119 121.5 c 128,-1,2
 147 102 147 102 193 82.5 c 128,-1,3
 239 63 239 63 291 63 c 0,4,5
 381 63 381 63 426 107.5 c 128,-1,6
 471 152 471 152 471 233 c 0,7,8
 471 307 471 307 422.5 342 c 128,-1,9
 374 377 374 377 319 377 c 2,10,-1
 55 377 l 1,11,-1
 64 508 l 2,12,13
 69 582 69 582 98 611.5 c 128,-1,14
 127 641 127 641 190 641 c 2,15,-1
 459 641 l 2,16,17
 501 641 501 641 501 604 c 0,18,19
 501 590 501 590 491.5 579.5 c 128,-1,20
 482 569 482 569 459 569 c 2,21,-1
 182 569 l 2,22,23
 161 569 161 569 151 559.5 c 128,-1,24
 141 550 141 550 138 523 c 2,25,-1
 132 449 l 1,26,-1
 310 449 l 2,27,28
 403 449 403 449 473 390.5 c 128,-1,29
 543 332 543 332 543 233 c 0,30,31
 543 120 543 120 473.5 55.5 c 128,-1,32
 404 -9 404 -9 291 -9 c 0,33,34
 220 -9 220 -9 134.5 28 c 128,-1,35
 49 65 49 65 49 105 c 0,36,37
 49 120 49 120 60 130.5 c 128,-1,38
 71 141 71 141 83 141 c 0,0,1
EndSplineSet
EndChar

StartChar: six
Encoding: 54 54 25
Width: 592
GlyphClass: 2
Flags: W
LayerCount: 2
Fore
SplineSet
44 213 m 0,0,1
 44 298 44 298 66.5 372.5 c 128,-1,2
 89 447 89 447 122 495 c 128,-1,3
 155 543 155 543 192.5 578 c 128,-1,4
 230 613 230 613 259 628.5 c 128,-1,5
 288 644 288 644 304 644 c 0,6,7
 347 644 347 644 347 611 c 0,8,9
 347 590 347 590 317 575 c 1,10,11
 267 553 267 553 221.5 509 c 128,-1,12
 176 465 176 465 149 401 c 1,13,14
 211 438 211 438 296 438 c 0,15,16
 408 438 408 438 478 375.5 c 128,-1,17
 548 313 548 313 548 214 c 0,18,19
 548 116 548 116 478 53.5 c 128,-1,20
 408 -9 408 -9 296 -9 c 128,-1,21
 184 -9 184 -9 114 53 c 128,-1,22
 44 115 44 115 44 213 c 0,0,1
116 214 m 128,-1,24
 116 144 116 144 163 103.5 c 128,-1,25
 210 63 210 63 296 63 c 128,-1,26
 382 63 382 63 429 103.5 c 128,-1,27
 476 144 476 144 476 214 c 128,-1,28
 476 284 476 284 429.5 325 c 128,-1,29
 383 366 383 366 296 366 c 128,-1,30
 209 366 209 366 162.5 325 c 128,-1,23
 116 284 116 284 116 214 c 128,-1,24
EndSplineSet
EndChar

StartChar: seven
Encoding: 55 55 26
Width: 592
GlyphClass: 2
Flags: W
LayerCount: 2
Fore
SplineSet
268 -10 m 0,0,1
 253 -10 253 -10 239 -2 c 128,-1,2
 225 6 225 6 225 23 c 0,3,4
 225 33 225 33 232 47 c 1,5,-1
 453 574 l 1,6,-1
 171 574 l 2,7,8
 144 574 144 574 134.5 563.5 c 128,-1,9
 125 553 125 553 125 524 c 0,10,11
 125 479 125 479 89 479 c 128,-1,12
 53 479 53 479 53 524 c 0,13,14
 53 589 53 589 79.5 617.5 c 128,-1,15
 106 646 106 646 163 646 c 2,16,-1
 503 646 l 2,17,18
 539 646 539 646 539 613 c 0,19,20
 539 600 539 600 535 590 c 2,21,-1
 307 22 l 2,22,23
 294 -10 294 -10 268 -10 c 0,0,1
EndSplineSet
EndChar

StartChar: eight
Encoding: 56 56 27
Width: 592
GlyphClass: 2
Flags: W
LayerCount: 2
Fore
SplineSet
116 180 m 0,0,1
 116 106 116 106 148.5 86.5 c 128,-1,2
 181 67 181 67 279 67 c 2,3,-1
 314 67 l 2,4,5
 411 67 411 67 443.5 86.5 c 128,-1,6
 476 106 476 106 476 180 c 0,7,8
 476 253 476 253 443.5 272.5 c 128,-1,9
 411 292 411 292 314 292 c 2,10,-1
 279 292 l 2,11,12
 182 292 182 292 149 272.5 c 128,-1,13
 116 253 116 253 116 180 c 0,0,1
548 178 m 0,14,15
 548 121 548 121 533 84.5 c 128,-1,16
 518 48 518 48 486 28.5 c 128,-1,17
 454 9 454 9 414 2 c 128,-1,18
 374 -5 374 -5 314 -5 c 2,19,-1
 279 -5 l 2,20,21
 157 -5 157 -5 100.5 32 c 128,-1,22
 44 69 44 69 44 178 c 0,23,24
 44 281 44 281 100 326 c 1,25,26
 44 366 44 366 44 468 c 0,27,28
 44 515 44 515 56 547.5 c 128,-1,29
 68 580 68 580 86 598.5 c 128,-1,30
 104 617 104 617 137.5 626.5 c 128,-1,31
 171 636 171 636 201 638.5 c 128,-1,32
 231 641 231 641 279 641 c 2,33,-1
 314 641 l 2,34,35
 362 641 362 641 392 638.5 c 128,-1,36
 422 636 422 636 455 626.5 c 128,-1,37
 488 617 488 617 506 598.5 c 128,-1,38
 524 580 524 580 536 547.5 c 128,-1,39
 548 515 548 515 548 468 c 0,40,41
 548 364 548 364 493 326 c 1,42,43
 548 280 548 280 548 178 c 0,14,15
476 466 m 0,44,45
 476 492 476 492 473.5 509 c 128,-1,46
 471 526 471 526 461.5 538 c 128,-1,47
 452 550 452 550 443 556 c 128,-1,48
 434 562 434 562 411 565 c 128,-1,49
 388 568 388 568 370.5 568.5 c 128,-1,50
 353 569 353 569 314 569 c 2,51,-1
 277 569 l 2,52,53
 244 569 244 569 229.5 568.5 c 128,-1,54
 215 568 215 568 193 566.5 c 128,-1,55
 171 565 171 565 162.5 561 c 128,-1,56
 154 557 154 557 142 550 c 128,-1,57
 130 543 130 543 126 531.5 c 128,-1,58
 122 520 122 520 119 504 c 128,-1,59
 116 488 116 488 116 466 c 128,-1,60
 116 444 116 444 119 428.5 c 128,-1,61
 122 413 122 413 126 402 c 128,-1,62
 130 391 130 391 141.5 384 c 128,-1,63
 153 377 153 377 162.5 373 c 128,-1,64
 172 369 172 369 193 367 c 128,-1,65
 214 365 214 365 230.5 364.5 c 128,-1,66
 247 364 247 364 279 364 c 2,67,-1
 314 364 l 2,68,69
 347 364 347 364 363 364.5 c 128,-1,70
 379 365 379 365 400.5 366.5 c 128,-1,71
 422 368 422 368 431 372.5 c 128,-1,72
 440 377 440 377 451 383.5 c 128,-1,73
 462 390 462 390 466 401.5 c 128,-1,74
 470 413 470 413 473 428.5 c 128,-1,75
 476 444 476 444 476 466 c 0,44,45
EndSplineSet
EndChar

StartChar: nine
Encoding: 57 57 28
Width: 592
GlyphClass: 2
Flags: W
LayerCount: 2
Fore
SplineSet
44 466 m 0,0,1
 44 505 44 505 58 535 c 128,-1,2
 72 565 72 565 96.5 583.5 c 128,-1,3
 121 602 121 602 148 614 c 128,-1,4
 175 626 175 626 208 631.5 c 128,-1,5
 241 637 241 637 265 639 c 128,-1,6
 289 641 289 641 314 641 c 0,7,8
 548 641 548 641 548 466 c 0,9,10
 548 361 548 361 515 269.5 c 128,-1,11
 482 178 482 178 428 116 c 128,-1,12
 374 54 374 54 304 19 c 128,-1,13
 234 -16 234 -16 160 -16 c 0,14,15
 119 -16 119 -16 119 21 c 0,16,17
 119 35 119 35 128.5 46 c 128,-1,18
 138 57 138 57 160 57 c 0,19,20
 194 57 194 57 235.5 72 c 128,-1,21
 277 87 277 87 320.5 116 c 128,-1,22
 364 145 364 145 401.5 197 c 128,-1,23
 439 249 439 249 457 315 c 1,24,25
 406 292 406 292 314 292 c 0,26,27
 44 292 44 292 44 466 c 0,0,1
314 569 m 0,28,29
 116 569 116 569 116 466 c 0,30,31
 116 439 116 439 128 419.5 c 128,-1,32
 140 400 140 400 158 389.5 c 128,-1,33
 176 379 176 379 204 373 c 128,-1,34
 232 367 232 367 256.5 365.5 c 128,-1,35
 281 364 281 364 314 364 c 0,36,37
 405 364 405 364 440.5 390 c 128,-1,38
 476 416 476 416 476 466 c 128,-1,39
 476 516 476 516 439.5 542.5 c 128,-1,40
 403 569 403 569 314 569 c 0,28,29
EndSplineSet
EndChar

StartChar: colon
Encoding: 58 58 29
Width: 268
GlyphClass: 2
Flags: W
LayerCount: 2
Fore
SplineSet
134 29 m 0,0,1
 112 29 112 29 92.5 43.5 c 128,-1,2
 73 58 73 58 73 80 c 128,-1,3
 73 102 73 102 93.5 116.5 c 128,-1,4
 114 131 114 131 134 131 c 128,-1,5
 154 131 154 131 174.5 116.5 c 128,-1,6
 195 102 195 102 195 80 c 128,-1,7
 195 58 195 58 174.5 43.5 c 128,-1,8
 154 29 154 29 134 29 c 0,0,1
134 382 m 0,9,10
 112 382 112 382 92.5 396.5 c 128,-1,11
 73 411 73 411 73 433 c 128,-1,12
 73 455 73 455 93.5 469.5 c 128,-1,13
 114 484 114 484 134 484 c 128,-1,14
 154 484 154 484 174.5 469.5 c 128,-1,15
 195 455 195 455 195 433 c 128,-1,16
 195 411 195 411 174.5 396.5 c 128,-1,17
 154 382 154 382 134 382 c 0,9,10
EndSplineSet
EndChar

StartChar: semicolon
Encoding: 59 59 30
Width: 271
GlyphClass: 2
Flags: W
LayerCount: 2
Fore
SplineSet
146 -14 m 1,0,1
 133 -44 133 -44 112 -44 c 0,2,3
 80 -44 80 -44 80 -9 c 1,4,5
 80 -9 80 -9 83 9 c 1,6,-1
 107 96 l 2,7,8
 116 127 116 127 142 127 c 0,9,10
 149 127 149 127 159.5 125 c 128,-1,11
 170 123 170 123 181.5 114.5 c 128,-1,12
 193 106 193 106 193 92 c 0,13,14
 193 83 193 83 186 69 c 2,15,-1
 146 -14 l 1,0,1
134 382 m 0,16,17
 112 382 112 382 92.5 396.5 c 128,-1,18
 73 411 73 411 73 433 c 128,-1,19
 73 455 73 455 93.5 469.5 c 128,-1,20
 114 484 114 484 134 484 c 128,-1,21
 154 484 154 484 174.5 469.5 c 128,-1,22
 195 455 195 455 195 433 c 128,-1,23
 195 411 195 411 174.5 396.5 c 128,-1,24
 154 382 154 382 134 382 c 0,16,17
EndSplineSet
EndChar

StartChar: less
Encoding: 60 60 31
Width: 548
GlyphClass: 2
Flags: W
LayerCount: 2
Fore
SplineSet
55 298 m 1,0,1
 33 312 33 312 33 333 c 0,2,3
 33 353 33 353 55 366 c 2,4,-1
 420 576 l 2,5,6
 432 584 432 584 445 584 c 0,7,8
 460 584 460 584 470 575 c 128,-1,9
 480 566 480 566 480 551 c 0,10,11
 480 539 480 539 471.5 529 c 128,-1,12
 463 519 463 519 455 515 c 2,13,-1
 140 333 l 1,14,-1
 455 149 l 2,15,16
 480 134 480 134 480 116 c 0,17,18
 480 111 480 111 477.5 103 c 128,-1,19
 475 95 475 95 466.5 87 c 128,-1,20
 458 79 458 79 446 79 c 0,21,22
 432 79 432 79 419 88 c 1,23,-1
 55 298 l 1,0,1
EndSplineSet
EndChar

StartChar: equal
Encoding: 61 61 32
Width: 488
GlyphClass: 2
Flags: W
LayerCount: 2
Fore
SplineSet
365 420 m 2,0,1
 409 420 409 420 409 382 c 0,2,3
 409 366 409 366 396.5 356.5 c 128,-1,4
 384 347 384 347 365 347 c 2,5,-1
 120 347 l 2,6,7
 79 347 79 347 79 384 c 0,8,9
 79 397 79 397 88.5 408.5 c 128,-1,10
 98 420 98 420 120 420 c 2,11,-1
 365 420 l 2,0,1
365 317 m 2,12,13
 409 317 409 317 409 279 c 0,14,15
 409 263 409 263 396.5 253.5 c 128,-1,16
 384 244 384 244 365 244 c 2,17,-1
 120 244 l 2,18,19
 79 244 79 244 79 281 c 0,20,21
 79 294 79 294 88.5 305.5 c 128,-1,22
 98 317 98 317 120 317 c 2,23,-1
 365 317 l 2,12,13
EndSplineSet
EndChar

StartChar: greater
Encoding: 62 62 33
Width: 548
GlyphClass: 2
Flags: W
LayerCount: 2
Fore
SplineSet
493 298 m 1,0,-1
 129 88 l 1,1,2
 116 79 116 79 102 79 c 0,3,4
 90 79 90 79 81.5 87 c 128,-1,5
 73 95 73 95 70.5 103 c 128,-1,6
 68 111 68 111 68 116 c 0,7,8
 68 134 68 134 93 149 c 2,9,-1
 408 333 l 1,10,-1
 93 515 l 2,11,12
 85 519 85 519 76.5 529 c 128,-1,13
 68 539 68 539 68 551 c 0,14,15
 68 566 68 566 78 575 c 128,-1,16
 88 584 88 584 103 584 c 0,17,18
 116 584 116 584 128 576 c 2,19,-1
 493 366 l 2,20,21
 515 353 515 353 515 333 c 0,22,23
 515 312 515 312 493 298 c 1,0,-1
EndSplineSet
EndChar

StartChar: question
Encoding: 63 63 34
Width: 553
GlyphClass: 2
Flags: W
LayerCount: 2
Fore
SplineSet
260 -22 m 0,0,1
 238 -22 238 -22 218.5 -7.5 c 128,-1,2
 199 7 199 7 199 29 c 128,-1,3
 199 51 199 51 219.5 65.5 c 128,-1,4
 240 80 240 80 260 80 c 128,-1,5
 280 80 280 80 300.5 65.5 c 128,-1,6
 321 51 321 51 321 29 c 128,-1,7
 321 7 321 7 300.5 -7.5 c 128,-1,8
 280 -22 280 -22 260 -22 c 0,0,1
224 194 m 2,9,-1
 224 346 l 1,10,-1
 389 391 l 2,11,12
 411 397 411 397 426 422.5 c 128,-1,13
 441 448 441 448 441 484 c 0,14,15
 441 522 441 522 421 554.5 c 128,-1,16
 401 587 401 587 354 587 c 2,17,-1
 261 587 l 2,18,19
 171 587 171 587 140.5 567 c 128,-1,20
 110 547 110 547 110 471 c 0,21,22
 110 448 110 448 98.5 438 c 128,-1,23
 87 428 87 428 74 428 c 0,24,25
 60 428 60 428 48.5 438 c 128,-1,26
 37 448 37 448 37 471 c 0,27,28
 37 583 37 583 92 621 c 128,-1,29
 147 659 147 659 261 659 c 2,30,-1
 337 659 l 2,31,32
 385 659 385 659 421 643.5 c 128,-1,33
 457 628 457 628 476 602 c 128,-1,34
 495 576 495 576 504 546.5 c 128,-1,35
 513 517 513 517 513 484 c 0,36,37
 513 414 513 414 482.5 374.5 c 128,-1,38
 452 335 452 335 378 314 c 2,39,-1
 296 291 l 1,40,-1
 296 194 l 2,41,42
 296 171 296 171 285 161 c 128,-1,43
 274 151 274 151 260 151 c 0,44,45
 247 151 247 151 235.5 161 c 128,-1,46
 224 171 224 171 224 194 c 2,9,-1
EndSplineSet
EndChar

StartChar: at
Encoding: 64 64 35
Width: 612
GlyphClass: 2
Flags: W
LayerCount: 2
Fore
SplineSet
69 395 m 2,0,1
 69 514 69 514 129.5 582.5 c 128,-1,2
 190 651 190 651 292 651 c 2,3,-1
 321 651 l 2,4,5
 423 651 423 651 483.5 582.5 c 128,-1,6
 544 514 544 514 544 395 c 0,7,8
 544 350 544 350 541 322.5 c 128,-1,9
 538 295 538 295 525 263.5 c 128,-1,10
 512 232 512 232 488 215 c 128,-1,11
 464 198 464 198 419.5 186.5 c 128,-1,12
 375 175 375 175 310 175 c 0,13,14
 232 175 232 175 203 212 c 128,-1,15
 174 249 174 249 174 332 c 0,16,17
 174 414 174 414 203 451 c 128,-1,18
 232 488 232 488 310 488 c 0,19,20
 389 488 389 488 418 451 c 128,-1,21
 447 414 447 414 447 332 c 0,22,23
 447 289 447 289 441 267 c 1,24,25
 459 276 459 276 465.5 303 c 128,-1,26
 472 330 472 330 472 395 c 0,27,28
 472 482 472 482 434 530.5 c 128,-1,29
 396 579 396 579 321 579 c 2,30,-1
 292 579 l 2,31,32
 216 579 216 579 178.5 531 c 128,-1,33
 141 483 141 483 141 395 c 2,34,-1
 141 241 l 2,35,36
 141 153 141 153 178.5 105 c 128,-1,37
 216 57 216 57 292 57 c 2,38,-1
 426 57 l 2,39,40
 453 57 453 57 462.5 68 c 128,-1,41
 472 79 472 79 472 109 c 0,42,43
 472 152 472 152 507 152 c 0,44,45
 544 152 544 152 544 106 c 0,46,47
 544 52 544 52 521 18.5 c 128,-1,48
 498 -15 498 -15 433 -15 c 2,49,-1
 292 -15 l 2,50,51
 190 -15 190 -15 129.5 53.5 c 128,-1,52
 69 122 69 122 69 241 c 2,53,-1
 69 395 l 2,0,1
310 247 m 0,54,55
 353 247 353 247 364 262.5 c 128,-1,56
 375 278 375 278 375 332 c 0,57,58
 375 385 375 385 364 400.5 c 128,-1,59
 353 416 353 416 310 416 c 0,60,61
 268 416 268 416 257 401 c 128,-1,62
 246 386 246 386 246 332 c 128,-1,63
 246 278 246 278 257 262.5 c 128,-1,64
 268 247 268 247 310 247 c 0,54,55
EndSplineSet
EndChar

StartChar: A
Encoding: 65 65 36
Width: 610
GlyphClass: 2
Flags: W
AnchorPoint: "Anchor-1" 304 0 basechar 0
AnchorPoint: "Anchor-0" 304 678 basechar 0
LayerCount: 2
Fore
SplineSet
346 636 m 1,0,-1
 583 37 l 2,1,2
 586 28 586 28 586 18 c 0,3,4
 586 0 586 0 573.5 -8 c 128,-1,5
 561 -16 561 -16 550 -16 c 0,6,7
 524 -16 524 -16 513 12 c 2,8,-1
 444 189 l 1,9,-1
 166 189 l 1,10,-1
 97 12 l 1,11,12
 85 -16 85 -16 60 -16 c 0,13,14
 49 -16 49 -16 36.5 -8 c 128,-1,15
 24 0 24 0 24 18 c 0,16,17
 24 28 24 28 27 37 c 2,18,-1
 264 636 l 1,19,-1
 346 636 l 1,0,-1
195 261 m 1,20,-1
 415 261 l 1,21,-1
 304 532 l 1,22,-1
 195 261 l 1,20,-1
EndSplineSet
EndChar

StartChar: B
Encoding: 66 66 37
Width: 644
GlyphClass: 2
Flags: W
AnchorPoint: "Anchor-1" 314 0 basechar 0
AnchorPoint: "Anchor-0" 314 678 basechar 0
LayerCount: 2
Fore
SplineSet
354 312 m 2,0,-1
 156 312 l 1,1,-1
 156 72 l 1,2,-1
 336 72 l 2,3,4
 446 72 446 72 481 91.5 c 128,-1,5
 516 111 516 111 516 184 c 2,6,-1
 516 200 l 2,7,8
 516 273 516 273 483.5 292.5 c 128,-1,9
 451 312 451 312 354 312 c 2,0,-1
84 44 m 2,10,-1
 84 592 l 2,11,12
 84 636 84 636 118 636 c 2,13,-1
 306 636 l 2,14,15
 428 636 428 636 487 601.5 c 128,-1,16
 546 567 546 567 546 475 c 0,17,18
 546 403 546 403 506 366 c 1,19,20
 588 325 588 325 588 203 c 2,21,-1
 588 184 l 2,22,23
 588 75 588 75 529 37.5 c 128,-1,24
 470 0 470 0 336 0 c 2,25,-1
 118 0 l 2,26,27
 84 0 84 0 84 44 c 2,10,-1
306 384 m 2,28,29
 403 384 403 384 438.5 401 c 128,-1,30
 474 418 474 418 474 472 c 0,31,32
 474 525 474 525 438.5 542 c 128,-1,33
 403 559 403 559 306 559 c 2,34,-1
 156 559 l 1,35,-1
 156 384 l 1,36,-1
 306 384 l 2,28,29
EndSplineSet
EndChar

StartChar: C
Encoding: 67 67 38
Width: 631
GlyphClass: 2
Flags: W
AnchorPoint: "Anchor-1" 330 0 basechar 0
AnchorPoint: "Anchor-0" 330 678 basechar 0
LayerCount: 2
Fore
SplineSet
465 0 m 2,0,-1
 324 0 l 2,1,2
 189 0 189 0 130 37.5 c 128,-1,3
 71 75 71 75 71 184 c 2,4,-1
 71 452 l 2,5,6
 71 561 71 561 128 598.5 c 128,-1,7
 185 636 185 636 306 636 c 2,8,-1
 465 636 l 2,9,10
 530 636 530 636 552.5 602.5 c 128,-1,11
 575 569 575 569 575 514 c 0,12,13
 575 469 575 469 539 469 c 0,14,15
 525 469 525 469 514 479 c 128,-1,16
 503 489 503 489 503 512 c 0,17,18
 503 542 503 542 494 553 c 128,-1,19
 485 564 485 564 458 564 c 2,20,-1
 306 564 l 2,21,22
 209 564 209 564 176 544 c 128,-1,23
 143 524 143 524 143 450 c 2,24,-1
 143 186 l 2,25,26
 143 111 143 111 178 91.5 c 128,-1,27
 213 72 213 72 324 72 c 2,28,-1
 458 72 l 2,29,30
 485 72 485 72 494 83 c 128,-1,31
 503 94 503 94 503 124 c 0,32,33
 503 147 503 147 514 157 c 128,-1,34
 525 167 525 167 539 167 c 0,35,36
 575 167 575 167 575 121 c 0,37,38
 575 66 575 66 552.5 33 c 128,-1,39
 530 0 530 0 465 0 c 2,0,-1
EndSplineSet
EndChar

StartChar: D
Encoding: 68 68 39
Width: 659
GlyphClass: 2
Flags: W
AnchorPoint: "Anchor-1" 323 0 basechar 0
AnchorPoint: "Anchor-0" 323 678 basechar 0
LayerCount: 2
Fore
SplineSet
588 452 m 2,0,-1
 588 184 l 2,1,2
 588 75 588 75 529 37.5 c 128,-1,3
 470 0 470 0 336 0 c 2,4,-1
 118 0 l 2,5,6
 84 0 84 0 84 44 c 2,7,-1
 84 592 l 2,8,9
 84 636 84 636 118 636 c 2,10,-1
 354 636 l 2,11,12
 475 636 475 636 531.5 598 c 128,-1,13
 588 560 588 560 588 452 c 2,0,-1
516 186 m 2,14,-1
 516 450 l 2,15,16
 516 524 516 524 483.5 544 c 128,-1,17
 451 564 451 564 354 564 c 2,18,-1
 156 564 l 1,19,-1
 156 72 l 1,20,-1
 336 72 l 2,21,22
 447 72 447 72 481.5 91.5 c 128,-1,23
 516 111 516 111 516 186 c 2,14,-1
EndSplineSet
EndChar

StartChar: E
Encoding: 69 69 40
Width: 636
GlyphClass: 2
Flags: W
AnchorPoint: "Anchor-1" 333 0 basechar 0
AnchorPoint: "Anchor-0" 333 678 basechar 0
LayerCount: 2
Fore
SplineSet
156 322 m 1,0,-1
 156 72 l 1,1,-1
 544 72 l 2,2,3
 588 72 588 72 588 34 c 0,4,5
 588 0 588 0 544 0 c 2,6,-1
 118 0 l 2,7,8
 84 0 84 0 84 44 c 2,9,-1
 84 592 l 2,10,11
 84 636 84 636 118 636 c 2,12,-1
 544 636 l 2,13,14
 588 636 588 636 588 598 c 0,15,16
 588 564 588 564 544 564 c 2,17,-1
 156 564 l 1,18,-1
 156 394 l 1,19,-1
 421 394 l 2,20,21
 471 394 471 394 471 356 c 0,22,23
 471 322 471 322 421 322 c 2,24,-1
 156 322 l 1,0,-1
EndSplineSet
EndChar

StartChar: F
Encoding: 70 70 41
Width: 615
GlyphClass: 2
Flags: W
AnchorPoint: "Anchor-1" 293 0 basechar 0
AnchorPoint: "Anchor-0" 333 678 basechar 0
LayerCount: 2
Fore
SplineSet
156 35 m 2,0,1
 156 -7 156 -7 120 -7 c 128,-1,2
 84 -7 84 -7 84 36 c 2,3,-1
 84 592 l 2,4,5
 84 636 84 636 118 636 c 2,6,-1
 544 636 l 2,7,8
 588 636 588 636 588 598 c 0,9,10
 588 564 588 564 544 564 c 2,11,-1
 156 564 l 1,12,-1
 156 394 l 1,13,-1
 421 394 l 2,14,15
 471 394 471 394 471 356 c 0,16,17
 471 322 471 322 421 322 c 2,18,-1
 156 322 l 1,19,-1
 156 35 l 2,0,1
EndSplineSet
EndChar

StartChar: G
Encoding: 71 71 42
Width: 645
GlyphClass: 2
Flags: W
AnchorPoint: "Anchor-1" 320 0 basechar 0
AnchorPoint: "Anchor-0" 320 678 basechar 0
LayerCount: 2
Fore
SplineSet
503 236 m 1,0,-1
 376 236 l 2,1,2
 326 236 326 236 326 271 c 0,3,4
 326 308 326 308 376 308 c 2,5,-1
 575 308 l 1,6,-1
 575 115 l 2,7,8
 575 63 575 63 552.5 31.5 c 128,-1,9
 530 0 530 0 465 0 c 2,10,-1
 306 0 l 2,11,12
 184 0 184 0 127.5 37 c 128,-1,13
 71 74 71 74 71 181 c 2,14,-1
 71 455 l 2,15,16
 71 564 71 564 130 600 c 128,-1,17
 189 636 189 636 324 636 c 2,18,-1
 465 636 l 2,19,20
 530 636 530 636 552.5 603 c 128,-1,21
 575 570 575 570 575 515 c 0,22,23
 575 469 575 469 539 469 c 128,-1,24
 503 469 503 469 503 513 c 0,25,26
 503 543 503 543 494 553.5 c 128,-1,27
 485 564 485 564 458 564 c 2,28,-1
 324 564 l 2,29,30
 214 564 214 564 178.5 544.5 c 128,-1,31
 143 525 143 525 143 452 c 2,32,-1
 143 184 l 2,33,34
 143 111 143 111 175.5 91.5 c 128,-1,35
 208 72 208 72 306 72 c 2,36,-1
 458 72 l 2,37,38
 485 72 485 72 494 81.5 c 128,-1,39
 503 91 503 91 503 120 c 2,40,-1
 503 236 l 1,0,-1
EndSplineSet
EndChar

StartChar: H
Encoding: 72 72 43
Width: 672
GlyphClass: 2
Flags: W
AnchorPoint: "Anchor-1" 336 0 basechar 0
AnchorPoint: "Anchor-0" 336 678 basechar 0
LayerCount: 2
Fore
SplineSet
156 35 m 2,0,1
 156 -7 156 -7 120 -7 c 128,-1,2
 84 -7 84 -7 84 35 c 2,3,-1
 84 600 l 2,4,5
 84 643 84 643 118 643 c 0,6,7
 156 643 156 643 156 600 c 2,8,-1
 156 379 l 1,9,-1
 516 379 l 1,10,-1
 516 600 l 2,11,12
 516 643 516 643 551 643 c 0,13,14
 588 643 588 643 588 600 c 2,15,-1
 588 35 l 2,16,17
 588 -7 588 -7 553 -7 c 0,18,19
 516 -7 516 -7 516 35 c 2,20,-1
 516 307 l 1,21,-1
 156 307 l 1,22,-1
 156 35 l 2,0,1
EndSplineSet
EndChar

StartChar: I
Encoding: 73 73 44
Width: 240
GlyphClass: 2
Flags: W
AnchorPoint: "Anchor-1" 120 0 basechar 0
LayerCount: 2
Fore
SplineSet
156 33 m 2,0,1
 156 -7 156 -7 119 -7 c 0,2,3
 84 -7 84 -7 84 33 c 2,4,-1
 84 602 l 2,5,6
 84 643 84 643 120 643 c 128,-1,7
 156 643 156 643 156 602 c 2,8,-1
 156 33 l 2,0,1
EndSplineSet
EndChar

StartChar: J
Encoding: 74 74 45
Width: 591
GlyphClass: 2
Flags: W
AnchorPoint: "Anchor-1" 272 0 basechar 0
AnchorPoint: "Anchor-0" 476 678 basechar 0
LayerCount: 2
Fore
SplineSet
272 64 m 0,0,1
 371 64 371 64 404.5 84 c 128,-1,2
 438 104 438 104 438 176 c 2,3,-1
 438 603 l 2,4,5
 438 624 438 624 449 633.5 c 128,-1,6
 460 643 460 643 474 643 c 0,7,8
 510 643 510 643 510 602 c 2,9,-1
 510 173 l 2,10,11
 510 66 510 66 453 29 c 128,-1,12
 396 -8 396 -8 272 -8 c 0,13,14
 210 -8 210 -8 169.5 -1 c 128,-1,15
 129 6 129 6 96 26 c 128,-1,16
 63 46 63 46 48 84.5 c 128,-1,17
 33 123 33 123 33 182 c 0,18,19
 33 225 33 225 71 225 c 0,20,21
 87 225 87 225 96.5 213 c 128,-1,22
 106 201 106 201 106 182 c 0,23,24
 106 105 106 105 139 84.5 c 128,-1,25
 172 64 172 64 272 64 c 0,0,1
EndSplineSet
EndChar

StartChar: K
Encoding: 75 75 46
Width: 560
GlyphClass: 2
Flags: W
AnchorPoint: "Anchor-1" 288 0 basechar 0
AnchorPoint: "Anchor-0" 288 678 basechar 0
LayerCount: 2
Fore
SplineSet
554 27 m 0,0,1
 554 13 554 13 542 3 c 128,-1,2
 530 -7 530 -7 518 -7 c 0,3,4
 501 -7 501 -7 485 12 c 1,5,-1
 199 316 l 1,6,-1
 156 264 l 1,7,-1
 156 35 l 2,8,9
 156 -7 156 -7 119 -7 c 0,10,11
 84 -7 84 -7 84 33 c 2,12,-1
 84 602 l 2,13,14
 84 643 84 643 120 643 c 0,15,16
 134 643 134 643 145 633 c 128,-1,17
 156 623 156 623 156 600 c 2,18,-1
 156 346 l 1,19,-1
 419 624 l 2,20,21
 436 643 436 643 452 643 c 0,22,23
 465 643 465 643 476 633.5 c 128,-1,24
 487 624 487 624 487 610 c 0,25,26
 487 595 487 595 475 581 c 1,27,-1
 251 354 l 1,28,-1
 541 55 l 1,29,30
 554 40 554 40 554 27 c 0,0,1
EndSplineSet
EndChar

StartChar: L
Encoding: 76 76 47
Width: 554
GlyphClass: 2
Flags: W
AnchorPoint: "Anchor-1" 310 0 basechar 0
AnchorPoint: "Anchor-0" 121 678 basechar 0
LayerCount: 2
Fore
SplineSet
118 0 m 2,0,1
 84 0 84 0 84 43 c 2,2,-1
 84 603 l 2,3,4
 84 624 84 624 95 633.5 c 128,-1,5
 106 643 106 643 120 643 c 128,-1,6
 134 643 134 643 145 633.5 c 128,-1,7
 156 624 156 624 156 603 c 2,8,-1
 156 72 l 1,9,-1
 489 72 l 2,10,11
 532 72 532 72 532 35 c 0,12,13
 532 0 532 0 489 0 c 2,14,-1
 118 0 l 2,0,1
EndSplineSet
EndChar

StartChar: M
Encoding: 77 77 48
Width: 693
GlyphClass: 2
Flags: W
AnchorPoint: "Anchor-1" 346 0 basechar 0
AnchorPoint: "Anchor-0" 346 678 basechar 0
LayerCount: 2
Fore
SplineSet
346 279 m 0,0,1
 331 279 331 279 319 291 c 1,2,-1
 156 523 l 1,3,-1
 156 38 l 2,4,5
 156 -7 156 -7 120 -7 c 128,-1,6
 84 -7 84 -7 84 35 c 2,7,-1
 84 600 l 2,8,9
 84 643 84 643 118 643 c 0,10,11
 140 643 140 643 156 620 c 2,12,-1
 346 354 l 1,13,-1
 537 620 l 2,14,15
 553 643 553 643 574 643 c 0,16,17
 609 643 609 643 609 600 c 2,18,-1
 609 35 l 2,19,20
 609 -7 609 -7 572 -7 c 0,21,22
 537 -7 537 -7 537 38 c 2,23,-1
 537 523 l 1,24,-1
 374 291 l 1,25,26
 362 279 362 279 346 279 c 0,0,1
EndSplineSet
EndChar

StartChar: N
Encoding: 78 78 49
Width: 672
GlyphClass: 2
Flags: W
AnchorPoint: "Anchor-1" 336 0 basechar 0
AnchorPoint: "Anchor-0" 336 678 basechar 0
LayerCount: 2
Fore
SplineSet
553 -7 m 0,0,1
 530 -7 530 -7 525 0 c 2,2,-1
 156 517 l 1,3,-1
 156 32 l 2,4,5
 156 -7 156 -7 120 -7 c 128,-1,6
 84 -7 84 -7 84 35 c 2,7,-1
 84 600 l 2,8,9
 84 643 84 643 118 643 c 0,10,11
 140 643 140 643 156 620 c 2,12,-1
 516 118 l 1,13,-1
 516 597 l 2,14,15
 516 643 516 643 551 643 c 0,16,17
 588 643 588 643 588 600 c 2,18,-1
 588 35 l 2,19,20
 588 -7 588 -7 553 -7 c 0,0,1
EndSplineSet
EndChar

StartChar: O
Encoding: 79 79 50
Width: 632
GlyphClass: 2
Flags: W
AnchorPoint: "Anchor-1" 316 0 basechar 0
AnchorPoint: "Anchor-0" 316 678 basechar 0
LayerCount: 2
Fore
SplineSet
316 -9 m 0,0,1
 202 -9 202 -9 133 54.5 c 128,-1,2
 64 118 64 118 64 230 c 2,3,-1
 64 406 l 2,4,5
 64 518 64 518 133 581.5 c 128,-1,6
 202 645 202 645 316 645 c 0,7,8
 429 645 429 645 498.5 581 c 128,-1,9
 568 517 568 517 568 406 c 2,10,-1
 568 230 l 2,11,12
 568 119 568 119 498.5 55 c 128,-1,13
 429 -9 429 -9 316 -9 c 0,0,1
316 573 m 128,-1,15
 227 573 227 573 181.5 528.5 c 128,-1,16
 136 484 136 484 136 403 c 2,17,-1
 136 233 l 2,18,19
 136 151 136 151 182 107 c 128,-1,20
 228 63 228 63 316 63 c 128,-1,21
 404 63 404 63 450 107 c 128,-1,22
 496 151 496 151 496 233 c 2,23,-1
 496 403 l 2,24,25
 496 484 496 484 450.5 528.5 c 128,-1,14
 405 573 405 573 316 573 c 128,-1,15
EndSplineSet
EndChar

StartChar: P
Encoding: 80 80 51
Width: 580
GlyphClass: 2
Flags: W
AnchorPoint: "Anchor-1" 310 0 basechar 0
AnchorPoint: "Anchor-0" 310 678 basechar 0
LayerCount: 2
Fore
SplineSet
156 33 m 2,0,1
 156 -7 156 -7 119 -7 c 0,2,3
 84 -7 84 -7 84 33 c 2,4,-1
 84 597 l 2,5,6
 84 641 84 641 118 641 c 2,7,-1
 309 641 l 2,8,9
 429 641 429 641 487.5 607 c 128,-1,10
 546 573 546 573 546 482 c 0,11,12
 546 405 546 405 496.5 363.5 c 128,-1,13
 447 322 447 322 357 322 c 2,14,-1
 156 322 l 1,15,-1
 156 33 l 2,0,1
309 394 m 2,16,17
 409 394 409 394 441.5 411.5 c 128,-1,18
 474 429 474 429 474 482 c 0,19,20
 474 536 474 536 439.5 552.5 c 128,-1,21
 405 569 405 569 309 569 c 2,22,-1
 156 569 l 1,23,-1
 156 394 l 1,24,-1
 309 394 l 2,16,17
EndSplineSet
EndChar

StartChar: Q
Encoding: 81 81 52
Width: 632
GlyphClass: 2
Flags: W
AnchorPoint: "Anchor-1" 316 0 basechar 0
AnchorPoint: "Anchor-0" 316 678 basechar 0
LayerCount: 2
Fore
SplineSet
316 573 m 128,-1,1
 227 573 227 573 181.5 528.5 c 128,-1,2
 136 484 136 484 136 403 c 2,3,-1
 136 233 l 2,4,5
 136 151 136 151 182 107 c 128,-1,6
 228 63 228 63 316 63 c 0,7,8
 376 63 376 63 416 83 c 1,9,-1
 367 124 l 1,10,11
 349 135 349 135 349 153 c 0,12,13
 349 167 349 167 360 178 c 128,-1,14
 371 189 371 189 388 189 c 0,15,16
 406 189 406 189 424 172 c 2,17,-1
 470 130 l 1,18,19
 496 172 496 172 496 233 c 2,20,-1
 496 403 l 2,21,22
 496 484 496 484 450.5 528.5 c 128,-1,0
 405 573 405 573 316 573 c 128,-1,1
316 -9 m 0,23,24
 202 -9 202 -9 133 54.5 c 128,-1,25
 64 118 64 118 64 230 c 2,26,-1
 64 406 l 2,27,28
 64 518 64 518 133 581.5 c 128,-1,29
 202 645 202 645 316 645 c 0,30,31
 429 645 429 645 498.5 581 c 128,-1,32
 568 517 568 517 568 406 c 2,33,-1
 568 230 l 2,34,35
 568 138 568 138 523 79 c 1,36,-1
 551 53 l 2,37,38
 565 39 565 39 565 22 c 0,39,40
 565 10 565 10 555 -1 c 128,-1,41
 545 -12 545 -12 531 -12 c 0,42,43
 511 -12 511 -12 499 -1 c 2,44,-1
 470 28 l 1,45,46
 408 -9 408 -9 316 -9 c 0,23,24
EndSplineSet
EndChar

StartChar: R
Encoding: 82 82 53
Width: 609
GlyphClass: 2
Flags: W
AnchorPoint: "Anchor-1" 305 0 basechar 0
AnchorPoint: "Anchor-0" 305 678 basechar 0
LayerCount: 2
Fore
SplineSet
438 336 m 1,0,1
 469 298 469 298 498 224.5 c 128,-1,2
 527 151 527 151 540.5 97.5 c 128,-1,3
 554 44 554 44 554 33 c 0,4,5
 554 17 554 17 543.5 5 c 128,-1,6
 533 -7 533 -7 517 -7 c 0,7,8
 500 -7 500 -7 491.5 5 c 128,-1,9
 483 17 483 17 482 33 c 0,10,11
 481 50 481 50 467.5 100 c 128,-1,12
 454 150 454 150 419.5 221 c 128,-1,13
 385 292 385 292 342 322 c 1,14,-1
 156 322 l 1,15,-1
 156 33 l 2,16,17
 156 -7 156 -7 119 -7 c 0,18,19
 84 -7 84 -7 84 33 c 2,20,-1
 84 602 l 2,21,22
 84 646 84 646 118 646 c 2,23,-1
 306 646 l 2,24,25
 428 646 428 646 487 611.5 c 128,-1,26
 546 577 546 577 546 485 c 0,27,28
 546 367 546 367 438 336 c 1,0,1
156 569 m 1,29,-1
 156 394 l 1,30,-1
 306 394 l 2,31,32
 404 394 404 394 439 411 c 128,-1,33
 474 428 474 428 474 482 c 128,-1,34
 474 536 474 536 438 552.5 c 128,-1,35
 402 569 402 569 306 569 c 2,36,-1
 156 569 l 1,29,-1
EndSplineSet
EndChar

StartChar: S
Encoding: 83 83 54
Width: 658
GlyphClass: 2
Flags: W
AnchorPoint: "Anchor-1" 313 0 basechar 0
AnchorPoint: "Anchor-0" 313 678 basechar 0
LayerCount: 2
Fore
SplineSet
133 475 m 0,0,1
 133 441 133 441 149 415 c 128,-1,2
 165 389 165 389 185 385 c 2,3,-1
 460 336 l 2,4,5
 532 323 532 323 564.5 274 c 128,-1,6
 597 225 597 225 597 160 c 0,7,8
 597 90 597 90 553 41 c 128,-1,9
 509 -8 509 -8 408 -8 c 2,10,-1
 312 -8 l 2,11,12
 180 -8 180 -8 120.5 30 c 128,-1,13
 61 68 61 68 61 182 c 0,14,15
 61 225 61 225 99 225 c 0,16,17
 115 225 115 225 124.5 213 c 128,-1,18
 134 201 134 201 134 182 c 0,19,20
 134 105 134 105 168.5 84.5 c 128,-1,21
 203 64 203 64 312 64 c 2,22,-1
 430 64 l 2,23,24
 482 64 482 64 503.5 95.5 c 128,-1,25
 525 127 525 127 525 163 c 0,26,27
 525 208 525 208 507 235 c 128,-1,28
 489 262 489 262 473 265 c 2,29,-1
 200 316 l 2,30,31
 125 331 125 331 93 369.5 c 128,-1,32
 61 408 61 408 61 478 c 0,33,34
 61 510 61 510 70.5 537 c 128,-1,35
 80 564 80 564 102 589.5 c 128,-1,36
 124 615 124 615 166.5 629.5 c 128,-1,37
 209 644 209 644 268 644 c 2,38,-1
 344 644 l 2,39,40
 411 644 411 644 453.5 637 c 128,-1,41
 496 630 496 630 531 610.5 c 128,-1,42
 566 591 566 591 581.5 553 c 128,-1,43
 597 515 597 515 597 456 c 0,44,45
 597 433 597 433 585.5 423 c 128,-1,46
 574 413 574 413 560 413 c 0,47,48
 544 413 544 413 534 425 c 128,-1,49
 524 437 524 437 524 456 c 0,50,51
 524 533 524 533 490 552.5 c 128,-1,52
 456 572 456 572 344 572 c 2,53,-1
 238 572 l 2,54,55
 180 572 180 572 156.5 541 c 128,-1,56
 133 510 133 510 133 475 c 0,0,1
EndSplineSet
EndChar

StartChar: T
Encoding: 84 84 55
Width: 520
GlyphClass: 2
Flags: W
AnchorPoint: "Anchor-1" 259 0 basechar 0
AnchorPoint: "Anchor-0" 259 678 basechar 0
LayerCount: 2
Fore
SplineSet
450 636 m 2,0,1
 493 636 493 636 493 599 c 0,2,3
 493 564 493 564 450 564 c 2,4,-1
 302 564 l 1,5,-1
 302 33 l 2,6,7
 302 12 302 12 288.5 2.5 c 128,-1,8
 275 -7 275 -7 259 -7 c 128,-1,9
 243 -7 243 -7 231 2 c 128,-1,10
 219 11 219 11 219 33 c 2,11,-1
 219 564 l 1,12,-1
 69 564 l 2,13,14
 46 564 46 564 36 575 c 128,-1,15
 26 586 26 586 26 600 c 128,-1,16
 26 614 26 614 36 625 c 128,-1,17
 46 636 46 636 69 636 c 2,18,-1
 450 636 l 2,0,1
EndSplineSet
EndChar

StartChar: U
Encoding: 85 85 56
Width: 658
GlyphClass: 2
Flags: W
AnchorPoint: "Anchor-1" 329 0 basechar 0
AnchorPoint: "Anchor-0" 329 678 basechar 0
LayerCount: 2
Fore
SplineSet
509 603 m 2,0,1
 509 643 509 643 546 643 c 0,2,3
 581 643 581 643 581 602 c 2,4,-1
 581 230 l 2,5,6
 581 119 581 119 511.5 55 c 128,-1,7
 442 -9 442 -9 329 -9 c 0,8,9
 215 -9 215 -9 146 54.5 c 128,-1,10
 77 118 77 118 77 230 c 2,11,-1
 77 602 l 2,12,13
 77 643 77 643 113 643 c 0,14,15
 127 643 127 643 138 633.5 c 128,-1,16
 149 624 149 624 149 603 c 2,17,-1
 149 233 l 2,18,19
 149 151 149 151 195 107 c 128,-1,20
 241 63 241 63 329 63 c 128,-1,21
 417 63 417 63 463 107 c 128,-1,22
 509 151 509 151 509 233 c 2,23,-1
 509 603 l 2,0,1
EndSplineSet
EndChar

StartChar: V
Encoding: 86 86 57
Width: 610
GlyphClass: 2
Flags: W
AnchorPoint: "Anchor-1" 304 0 basechar 0
AnchorPoint: "Anchor-0" 304 678 basechar 0
LayerCount: 2
Fore
SplineSet
513 624 m 2,0,1
 525 652 525 652 550 652 c 0,2,3
 561 652 561 652 573.5 644 c 128,-1,4
 586 636 586 636 586 618 c 0,5,6
 586 608 586 608 583 599 c 2,7,-1
 346 0 l 1,8,-1
 264 0 l 1,9,-1
 27 599 l 2,10,11
 24 608 24 608 24 618 c 0,12,13
 24 636 24 636 36.5 644 c 128,-1,14
 49 652 49 652 60 652 c 0,15,16
 86 652 86 652 97 624 c 2,17,-1
 306 104 l 1,18,-1
 513 624 l 2,0,1
EndSplineSet
EndChar

StartChar: W
Encoding: 87 87 58
Width: 955
GlyphClass: 2
Flags: W
AnchorPoint: "Anchor-1" 477 0 basechar 0
AnchorPoint: "Anchor-0" 477 678 basechar 0
LayerCount: 2
Fore
SplineSet
694 96 m 1,0,-1
 856 621 l 2,1,2
 865 649 865 649 894 649 c 0,3,4
 928 649 928 649 928 618 c 0,5,6
 928 612 928 612 924 600 c 2,7,-1
 730 0 l 1,8,-1
 656 0 l 1,9,-1
 477 531 l 1,10,-1
 299 0 l 1,11,-1
 226 0 l 1,12,-1
 31 604 l 2,13,14
 27 616 27 616 27 622 c 0,15,16
 27 653 27 653 61 653 c 0,17,18
 90 653 90 653 99 625 c 2,19,-1
 263 96 l 1,20,-1
 436 620 l 1,21,22
 448 652 448 652 477 652 c 0,23,24
 509 652 509 652 520 619 c 2,25,-1
 694 96 l 1,0,-1
EndSplineSet
EndChar

StartChar: X
Encoding: 88 88 59
Width: 605
GlyphClass: 2
Flags: W
AnchorPoint: "Anchor-1" 302 0 basechar 0
AnchorPoint: "Anchor-0" 302 678 basechar 0
LayerCount: 2
Fore
SplineSet
530 643 m 0,0,1
 542 643 542 643 554 634.5 c 128,-1,2
 566 626 566 626 566 607 c 0,3,4
 566 595 566 595 556 582 c 2,5,-1
 351 317 l 1,6,-1
 556 53 l 2,7,8
 566 40 566 40 566 26 c 0,9,10
 566 10 566 10 554.5 1.5 c 128,-1,11
 543 -7 543 -7 530 -7 c 0,12,13
 513 -7 513 -7 497 13 c 2,14,-1
 302 270 l 1,15,-1
 108 13 l 2,16,17
 93 -7 93 -7 74 -7 c 0,18,19
 61 -7 61 -7 50 2 c 128,-1,20
 39 11 39 11 39 26 c 0,21,22
 39 40 39 40 49 53 c 2,23,-1
 254 317 l 1,24,-1
 49 582 l 2,25,26
 39 594 39 594 39 607 c 0,27,28
 39 621 39 621 46.5 629.5 c 128,-1,29
 54 638 54 638 61 640.5 c 128,-1,30
 68 643 68 643 74 643 c 0,31,32
 93 643 93 643 108 621 c 1,33,-1
 302 365 l 1,34,-1
 497 621 l 2,35,36
 513 643 513 643 530 643 c 0,0,1
EndSplineSet
EndChar

StartChar: Y
Encoding: 89 89 60
Width: 563
GlyphClass: 2
Flags: W
AnchorPoint: "Anchor-1" 281 0 basechar 0
AnchorPoint: "Anchor-0" 281 678 basechar 0
LayerCount: 2
Fore
SplineSet
243 306 m 1,0,-1
 28 583 l 1,1,2
 18 600 18 600 18 609 c 0,3,4
 18 623 18 623 29 633 c 128,-1,5
 40 643 40 643 53 643 c 0,6,7
 70 643 70 643 86 621 c 2,8,-1
 281 365 l 1,9,-1
 475 621 l 1,10,11
 493 643 493 643 509 643 c 0,12,13
 521 643 521 643 532.5 633.5 c 128,-1,14
 544 624 544 624 544 609 c 0,15,16
 544 600 544 600 534 583 c 1,17,-1
 320 306 l 1,18,-1
 320 32 l 2,19,20
 320 -7 320 -7 281 -7 c 0,21,22
 243 -7 243 -7 243 32 c 2,23,-1
 243 306 l 1,0,-1
EndSplineSet
EndChar

StartChar: Z
Encoding: 90 90 61
Width: 602
GlyphClass: 2
Flags: W
AnchorPoint: "Anchor-1" 291 0 basechar 0
AnchorPoint: "Anchor-0" 291 678 basechar 0
LayerCount: 2
Fore
SplineSet
50 0 m 1,0,-1
 50 64 l 1,1,-1
 461 564 l 1,2,-1
 95 564 l 2,3,4
 49 564 49 564 49 600 c 128,-1,5
 49 636 49 636 95 636 c 2,6,-1
 553 636 l 1,7,-1
 553 569 l 1,8,-1
 144 72 l 1,9,-1
 508 72 l 2,10,11
 553 72 553 72 553 35 c 0,12,13
 553 0 553 0 508 0 c 2,14,-1
 50 0 l 1,0,-1
EndSplineSet
EndChar

StartChar: bracketleft
Encoding: 91 91 62
Width: 279
GlyphClass: 2
Flags: W
LayerCount: 2
Fore
SplineSet
153 15 m 1,0,-1
 231 15 l 1,1,-1
 231 -57 l 1,2,-1
 81 -57 l 1,3,-1
 81 693 l 1,4,-1
 231 693 l 1,5,-1
 231 621 l 1,6,-1
 153 621 l 1,7,-1
 153 15 l 1,0,-1
EndSplineSet
EndChar

StartChar: backslash
Encoding: 92 92 63
Width: 375
GlyphClass: 2
Flags: W
LayerCount: 2
Fore
SplineSet
262 6 m 1,0,-1
 50 590 l 2,1,2
 41 612 41 612 41 626 c 0,3,4
 41 644 41 644 53.5 652 c 128,-1,5
 66 660 66 660 78 660 c 0,6,7
 100 660 100 660 113 631 c 1,8,-1
 323 53 l 2,9,10
 334 24 334 24 334 11 c 0,11,12
 334 -7 334 -7 321.5 -15 c 128,-1,13
 309 -23 309 -23 298 -23 c 0,14,15
 274 -23 274 -23 262 6 c 1,0,-1
EndSplineSet
EndChar

StartChar: bracketright
Encoding: 93 93 64
Width: 279
GlyphClass: 2
Flags: W
LayerCount: 2
Fore
SplineSet
126 15 m 1,0,-1
 126 621 l 1,1,-1
 48 621 l 1,2,-1
 48 693 l 1,3,-1
 198 693 l 1,4,-1
 198 -57 l 1,5,-1
 48 -57 l 1,6,-1
 48 15 l 1,7,-1
 126 15 l 1,0,-1
EndSplineSet
EndChar

StartChar: asciicircum
Encoding: 94 94 65
Width: 443
GlyphClass: 2
Flags: W
LayerCount: 2
Fore
SplineSet
103 350 m 0,0,1
 90 350 90 350 80 359.5 c 128,-1,2
 70 369 70 369 70 383 c 0,3,4
 70 393 70 393 72 399 c 2,5,-1
 186 651 l 1,6,-1
 258 651 l 1,7,-1
 371 399 l 2,8,9
 373 393 373 393 373 383 c 0,10,11
 373 368 373 368 364 359 c 128,-1,12
 355 350 355 350 340 350 c 0,13,14
 316 350 316 350 301 377 c 1,15,-1
 222 557 l 1,16,-1
 141 377 l 2,17,18
 129 350 129 350 103 350 c 0,0,1
EndSplineSet
EndChar

StartChar: underscore
Encoding: 95 95 66
Width: 475
GlyphClass: 2
Flags: W
LayerCount: 2
Fore
SplineSet
447 15 m 2,0,1
 490 15 490 15 490 -22 c 0,2,3
 490 -57 490 -57 447 -57 c 2,4,-1
 28 -57 l 2,5,6
 -15 -57 -15 -57 -15 -20 c 0,7,8
 -15 15 -15 15 28 15 c 2,9,-1
 447 15 l 2,0,1
EndSplineSet
EndChar

StartChar: grave
Encoding: 96 96 67
Width: 212
GlyphClass: 2
Flags: W
LayerCount: 2
Fore
SplineSet
183 559 m 1,0,1
 194 544 194 544 194 530 c 0,2,3
 194 515 194 515 183 505 c 128,-1,4
 172 495 172 495 159 495 c 0,5,6
 143 495 143 495 126 514 c 2,7,-1
 30 629 l 2,8,9
 19 641 19 641 19 657 c 128,-1,10
 19 673 19 673 29.5 683 c 128,-1,11
 40 693 40 693 54 693 c 0,12,13
 70 693 70 693 87 674 c 2,14,-1
 183 559 l 1,0,1
EndSplineSet
EndChar

StartChar: a
Encoding: 97 97 68
Width: 594
GlyphClass: 2
Flags: W
AnchorPoint: "Anchor-1" 268 0 basechar 0
AnchorPoint: "Anchor-0" 293 510 basechar 0
LayerCount: 2
Fore
SplineSet
314 305 m 2,0,-1
 451 305 l 1,1,-1
 451 347 l 2,2,3
 451 372 451 372 442 380.5 c 128,-1,4
 433 389 433 389 406 389 c 2,5,-1
 265 389 l 2,6,7
 187 389 187 389 160 380.5 c 128,-1,8
 133 372 133 372 133 350 c 0,9,10
 133 305 133 305 96 305 c 0,11,12
 61 305 61 305 61 350 c 0,13,14
 61 413 61 413 111.5 437 c 128,-1,15
 162 461 162 461 258 461 c 2,16,-1
 413 461 l 2,17,18
 477 461 477 461 500 431 c 128,-1,19
 523 401 523 401 523 331 c 2,20,-1
 523 35 l 2,21,22
 523 -7 523 -7 487 -7 c 128,-1,23
 451 -7 451 -7 451 38 c 2,24,-1
 451 50 l 1,25,26
 391 0 391 0 271 0 c 2,27,-1
 178 0 l 2,28,29
 127 0 127 0 94 35 c 128,-1,30
 61 70 61 70 61 129 c 0,31,32
 61 231 61 231 121.5 268 c 128,-1,33
 182 305 182 305 314 305 c 2,0,-1
451 233 m 1,34,-1
 314 233 l 2,35,36
 202 233 202 233 167.5 214.5 c 128,-1,37
 133 196 133 196 133 124 c 0,38,39
 133 103 133 103 148 87.5 c 128,-1,40
 163 72 163 72 178 72 c 2,41,-1
 271 72 l 2,42,43
 329 72 329 72 368 87 c 128,-1,44
 407 102 407 102 423.5 129 c 128,-1,45
 440 156 440 156 445.5 179 c 128,-1,46
 451 202 451 202 451 233 c 1,34,-1
EndSplineSet
EndChar

StartChar: b
Encoding: 98 98 69
Width: 670
GlyphClass: 2
Flags: W
AnchorPoint: "Anchor-1" 347 0 basechar 0
AnchorPoint: "Anchor-0" 357 510 basechar 0
LayerCount: 2
Fore
SplineSet
147 411 m 1,0,1
 209 461 209 461 328 461 c 2,2,-1
 357 461 l 2,3,4
 491 461 491 461 550 424.5 c 128,-1,5
 609 388 609 388 609 283 c 2,6,-1
 609 178 l 2,7,8
 609 73 609 73 550 36.5 c 128,-1,9
 491 0 491 0 357 0 c 2,10,-1
 328 0 l 2,11,12
 209 0 209 0 147 50 c 1,13,-1
 147 38 l 2,14,15
 147 -7 147 -7 111 -7 c 128,-1,16
 75 -7 75 -7 75 35 c 2,17,-1
 75 597 l 2,18,19
 75 643 75 643 109 643 c 0,20,21
 147 643 147 643 147 597 c 2,22,-1
 147 411 l 1,0,1
328 389 m 2,23,24
 226 389 226 389 186.5 346.5 c 128,-1,25
 147 304 147 304 147 232 c 2,26,-1
 147 228 l 2,27,28
 147 157 147 157 187 114.5 c 128,-1,29
 227 72 227 72 328 72 c 2,30,-1
 357 72 l 2,31,32
 468 72 468 72 502.5 90.5 c 128,-1,33
 537 109 537 109 537 181 c 2,34,-1
 537 280 l 2,35,36
 537 352 537 352 502.5 370.5 c 128,-1,37
 468 389 468 389 357 389 c 2,38,-1
 328 389 l 2,23,24
EndSplineSet
EndChar

StartChar: c
Encoding: 99 99 70
Width: 624
GlyphClass: 2
Flags: W
AnchorPoint: "Anchor-1" 328 0 basechar 0
AnchorPoint: "Anchor-0" 328 510 basechar 0
LayerCount: 2
Fore
SplineSet
455 0 m 2,0,-1
 314 0 l 2,1,2
 179 0 179 0 120 36.5 c 128,-1,3
 61 73 61 73 61 178 c 2,4,-1
 61 283 l 2,5,6
 61 388 61 388 120 424.5 c 128,-1,7
 179 461 179 461 314 461 c 2,8,-1
 455 461 l 2,9,10
 520 461 520 461 542.5 427.5 c 128,-1,11
 565 394 565 394 565 339 c 0,12,13
 565 294 565 294 529 294 c 0,14,15
 515 294 515 294 504 304 c 128,-1,16
 493 314 493 314 493 337 c 0,17,18
 493 367 493 367 484 378 c 128,-1,19
 475 389 475 389 448 389 c 2,20,-1
 314 389 l 2,21,22
 202 389 202 389 167.5 370.5 c 128,-1,23
 133 352 133 352 133 280 c 2,24,-1
 133 181 l 2,25,26
 133 109 133 109 167.5 90.5 c 128,-1,27
 202 72 202 72 314 72 c 2,28,-1
 448 72 l 2,29,30
 475 72 475 72 484 83 c 128,-1,31
 493 94 493 94 493 124 c 0,32,33
 493 147 493 147 504 157 c 128,-1,34
 515 167 515 167 529 167 c 0,35,36
 565 167 565 167 565 121 c 0,37,38
 565 66 565 66 542.5 33 c 128,-1,39
 520 0 520 0 455 0 c 2,0,-1
EndSplineSet
EndChar

StartChar: d
Encoding: 100 100 71
Width: 670
GlyphClass: 2
Flags: W
AnchorPoint: "Anchor-1" 313 0 basechar 0
AnchorPoint: "Anchor-0" 303 510 basechar 0
LayerCount: 2
Fore
SplineSet
133 181 m 2,0,1
 133 109 133 109 167.5 90.5 c 128,-1,2
 202 72 202 72 313 72 c 2,3,-1
 342 72 l 2,4,5
 444 72 444 72 483.5 114.5 c 128,-1,6
 523 157 523 157 523 229 c 2,7,-1
 523 389 l 1,8,-1
 305 389 l 2,9,10
 200 389 200 389 166.5 370.5 c 128,-1,11
 133 352 133 352 133 280 c 2,12,-1
 133 181 l 2,0,1
61 283 m 2,13,14
 61 388 61 388 119 424.5 c 128,-1,15
 177 461 177 461 305 461 c 2,16,-1
 523 461 l 1,17,-1
 523 598 l 2,18,19
 523 643 523 643 561 643 c 0,20,21
 595 643 595 643 595 598 c 2,22,-1
 595 35 l 2,23,24
 595 -7 595 -7 559 -7 c 128,-1,25
 523 -7 523 -7 523 38 c 2,26,-1
 523 50 l 1,27,28
 461 0 461 0 342 0 c 2,29,-1
 313 0 l 2,30,31
 179 0 179 0 120 36.5 c 128,-1,32
 61 73 61 73 61 178 c 2,33,-1
 61 283 l 2,13,14
EndSplineSet
EndChar

StartChar: e
Encoding: 101 101 72
Width: 651
GlyphClass: 2
Flags: W
AnchorPoint: "Anchor-1" 328 0 basechar 0
AnchorPoint: "Anchor-0" 328 510 basechar 0
LayerCount: 2
Fore
SplineSet
595 283 m 2,0,-1
 595 235 l 1,1,-1
 133 235 l 1,2,-1
 133 181 l 2,3,4
 133 109 133 109 167.5 90.5 c 128,-1,5
 202 72 202 72 314 72 c 2,6,-1
 468 72 l 2,7,8
 495 72 495 72 504 83 c 128,-1,9
 513 94 513 94 513 124 c 0,10,11
 513 147 513 147 524 157 c 128,-1,12
 535 167 535 167 549 167 c 0,13,14
 585 167 585 167 585 121 c 0,15,16
 585 66 585 66 562.5 33 c 128,-1,17
 540 0 540 0 475 0 c 2,18,-1
 314 0 l 2,19,20
 179 0 179 0 120 36.5 c 128,-1,21
 61 73 61 73 61 178 c 2,22,-1
 61 283 l 2,23,24
 61 388 61 388 120 424.5 c 128,-1,25
 179 461 179 461 314 461 c 2,26,-1
 343 461 l 2,27,28
 477 461 477 461 536 424.5 c 128,-1,29
 595 388 595 388 595 283 c 2,0,-1
343 389 m 2,30,-1
 314 389 l 2,31,32
 206 389 206 389 171 374 c 128,-1,33
 136 359 136 359 133 307 c 1,34,-1
 523 307 l 1,35,36
 519 360 519 360 483 374.5 c 128,-1,37
 447 389 447 389 343 389 c 2,30,-1
EndSplineSet
EndChar

StartChar: f
Encoding: 102 102 73
Width: 345
GlyphClass: 2
Flags: W
AnchorPoint: "Anchor-1" 115 0 basechar 0
AnchorPoint: "Anchor-0" 291 678 basechar 0
LayerCount: 2
Fore
SplineSet
303 564 m 0,0,1
 218 564 218 564 186 546 c 128,-1,2
 154 528 154 528 152 461 c 1,3,-1
 280 461 l 2,4,5
 326 461 326 461 326 423 c 0,6,7
 326 389 326 389 280 389 c 2,8,-1
 152 389 l 1,9,-1
 152 36 l 2,10,11
 152 -7 152 -7 114 -7 c 0,12,13
 80 -7 80 -7 80 36 c 2,14,-1
 80 394 l 1,15,16
 49 400 49 400 49 429 c 0,17,18
 49 455 49 455 80 460 c 1,19,20
 84 564 84 564 139 600 c 128,-1,21
 194 636 194 636 303 636 c 0,22,23
 349 636 349 636 349 598 c 0,24,25
 349 564 349 564 303 564 c 0,0,1
EndSplineSet
EndChar

StartChar: g
Encoding: 103 103 74
Width: 670
GlyphClass: 2
Flags: W
AnchorPoint: "Anchor-1" 323 0 basechar 0
AnchorPoint: "Anchor-0" 323 510 basechar 0
LayerCount: 2
Fore
SplineSet
595 -77 m 2,0,1
 595 -146 595 -146 573.5 -175.5 c 128,-1,2
 552 -205 552 -205 494 -205 c 2,3,-1
 171 -205 l 2,4,5
 106 -205 106 -205 83.5 -171.5 c 128,-1,6
 61 -138 61 -138 61 -83 c 0,7,8
 61 -38 61 -38 97 -38 c 128,-1,9
 133 -38 133 -38 133 -81 c 0,10,11
 133 -111 133 -111 142 -122 c 128,-1,12
 151 -133 151 -133 178 -133 c 2,13,-1
 487 -133 l 2,14,15
 510 -133 510 -133 516.5 -125.5 c 128,-1,16
 523 -118 523 -118 523 -93 c 2,17,-1
 523 0 l 1,18,-1
 311 0 l 2,19,20
 179 0 179 0 120 36.5 c 128,-1,21
 61 73 61 73 61 178 c 2,22,-1
 61 283 l 2,23,24
 61 388 61 388 120 424.5 c 128,-1,25
 179 461 179 461 313 461 c 2,26,-1
 342 461 l 2,27,28
 461 461 461 461 523 411 c 1,29,-1
 523 423 l 2,30,31
 523 468 523 468 559 468 c 128,-1,32
 595 468 595 468 595 426 c 2,33,-1
 595 -77 l 2,0,1
311 72 m 2,34,-1
 523 72 l 1,35,-1
 523 233 l 2,36,37
 523 304 523 304 483 346.5 c 128,-1,38
 443 389 443 389 342 389 c 2,39,-1
 313 389 l 2,40,41
 202 389 202 389 167.5 370.5 c 128,-1,42
 133 352 133 352 133 280 c 2,43,-1
 133 181 l 2,44,45
 133 109 133 109 167.5 90.5 c 128,-1,46
 202 72 202 72 311 72 c 2,34,-1
EndSplineSet
EndChar

StartChar: h
Encoding: 104 104 75
Width: 679
GlyphClass: 2
Flags: W
AnchorPoint: "Anchor-1" 332 0 basechar 0
AnchorPoint: "Anchor-0" 347 510 basechar 0
LayerCount: 2
Fore
SplineSet
328 389 m 2,0,1
 227 389 227 389 187 345.5 c 128,-1,2
 147 302 147 302 147 229 c 2,3,-1
 147 35 l 2,4,5
 147 -7 147 -7 111 -7 c 128,-1,6
 75 -7 75 -7 75 35 c 2,7,-1
 75 597 l 2,8,9
 75 643 75 643 109 643 c 0,10,11
 147 643 147 643 147 597 c 2,12,-1
 147 411 l 1,13,14
 209 461 209 461 328 461 c 2,15,-1
 357 461 l 2,16,17
 491 461 491 461 550 424.5 c 128,-1,18
 609 388 609 388 609 283 c 2,19,-1
 609 35 l 2,20,21
 609 -7 609 -7 574 -7 c 0,22,23
 537 -7 537 -7 537 35 c 2,24,-1
 537 280 l 2,25,26
 537 352 537 352 502.5 370.5 c 128,-1,27
 468 389 468 389 357 389 c 2,28,-1
 328 389 l 2,0,1
EndSplineSet
EndChar

StartChar: i
Encoding: 105 105 76
Width: 218
GlyphClass: 2
Flags: W
AnchorPoint: "Anchor-1" 109 0 basechar 0
AnchorPoint: "Anchor-0" 109 678 basechar 0
LayerCount: 2
Fore
SplineSet
73 440 m 2,0,1
 73 463 73 463 84 473 c 128,-1,2
 95 483 95 483 109 483 c 128,-1,3
 123 483 123 483 134 473 c 128,-1,4
 145 463 145 463 145 440 c 2,5,-1
 145 20 l 2,6,7
 145 -22 145 -22 108 -22 c 0,8,9
 94 -22 94 -22 83.5 -12.5 c 128,-1,10
 73 -3 73 -3 73 20 c 2,11,-1
 73 440 l 2,0,1
109 550 m 128,-1,13
 89 550 89 550 68.5 564.5 c 128,-1,14
 48 579 48 579 48 601 c 128,-1,15
 48 623 48 623 67.5 637.5 c 128,-1,16
 87 652 87 652 109 652 c 0,17,18
 129 652 129 652 149.5 637.5 c 128,-1,19
 170 623 170 623 170 601 c 128,-1,20
 170 579 170 579 149.5 564.5 c 128,-1,12
 129 550 129 550 109 550 c 128,-1,13
EndSplineSet
EndChar

StartChar: j
Encoding: 106 106 77
Width: 222
GlyphClass: 2
Flags: W
AnchorPoint: "Anchor-1" 110 -175 basechar 0
AnchorPoint: "Anchor-0" 111 678 basechar 0
LayerCount: 2
Fore
SplineSet
111 550 m 128,-1,1
 91 550 91 550 70.5 564.5 c 128,-1,2
 50 579 50 579 50 601 c 128,-1,3
 50 623 50 623 69.5 637.5 c 128,-1,4
 89 652 89 652 111 652 c 0,5,6
 131 652 131 652 151.5 637.5 c 128,-1,7
 172 623 172 623 172 601 c 128,-1,8
 172 579 172 579 151.5 564.5 c 128,-1,0
 131 550 131 550 111 550 c 128,-1,1
147 0 m 2,9,10
 147 -105 147 -105 92.5 -140 c 128,-1,11
 38 -175 38 -175 -76 -175 c 0,12,13
 -122 -175 -122 -175 -122 -138 c 0,14,15
 -122 -103 -122 -103 -76 -103 c 0,16,17
 14 -103 14 -103 44.5 -85 c 128,-1,18
 75 -67 75 -67 75 0 c 2,19,-1
 75 422 l 2,20,21
 75 468 75 468 112 468 c 0,22,23
 147 468 147 468 147 422 c 2,24,-1
 147 0 l 2,9,10
EndSplineSet
EndChar

StartChar: k
Encoding: 107 107 78
Width: 496
GlyphClass: 2
Flags: W
AnchorPoint: "Anchor-1" 277 0 basechar 0
AnchorPoint: "Anchor-0" 277 510 basechar 0
LayerCount: 2
Fore
SplineSet
482 27 m 0,0,1
 482 15 482 15 472 4.5 c 128,-1,2
 462 -6 462 -6 448 -6 c 0,3,4
 433 -6 433 -6 417 8 c 2,5,-1
 166 231 l 1,6,-1
 147 212 l 1,7,-1
 147 35 l 2,8,9
 147 -7 147 -7 110 -7 c 0,10,11
 75 -7 75 -7 75 32 c 2,12,-1
 75 600 l 2,13,14
 75 623 75 623 86 633 c 128,-1,15
 97 643 97 643 111 643 c 128,-1,16
 125 643 125 643 136 633 c 128,-1,17
 147 623 147 623 147 600 c 2,18,-1
 147 282 l 1,19,-1
 343 452 l 2,20,21
 359 466 359 466 375 466 c 0,22,23
 388 466 388 466 399 456 c 128,-1,24
 410 446 410 446 410 432 c 0,25,26
 410 415 410 415 394 403 c 2,27,-1
 219 263 l 1,28,-1
 468 57 l 1,29,30
 482 47 482 47 482 27 c 0,0,1
EndSplineSet
EndChar

StartChar: l
Encoding: 108 108 79
Width: 294
GlyphClass: 2
Flags: W
AnchorPoint: "Anchor-1" 188 0 basechar 0
AnchorPoint: "Anchor-0" 128 678 basechar 0
LayerCount: 2
Fore
SplineSet
208 0 m 2,0,-1
 201 0 l 2,1,2
 138 0 138 0 114.5 31 c 128,-1,3
 91 62 91 62 91 133 c 2,4,-1
 91 598 l 2,5,6
 91 643 91 643 127 643 c 128,-1,7
 163 643 163 643 163 598 c 2,8,-1
 163 118 l 2,9,10
 163 91 163 91 172 81.5 c 128,-1,11
 181 72 181 72 208 72 c 0,12,13
 253 72 253 72 253 35 c 0,14,15
 253 0 253 0 208 0 c 2,0,-1
EndSplineSet
EndChar

StartChar: m
Encoding: 109 109 80
Width: 869
GlyphClass: 2
Flags: W
AnchorPoint: "Anchor-1" 437 0 basechar 0
AnchorPoint: "Anchor-0" 437 510 basechar 0
LayerCount: 2
Fore
SplineSet
270 389 m 0,0,1
 210 389 210 389 178 348.5 c 128,-1,2
 146 308 146 308 146 229 c 2,3,-1
 146 35 l 2,4,5
 146 -7 146 -7 110 -7 c 128,-1,6
 74 -7 74 -7 74 35 c 2,7,-1
 74 425 l 2,8,9
 74 468 74 468 108 468 c 0,10,11
 146 468 146 468 146 422 c 2,12,-1
 146 414 l 1,13,14
 193 461 193 461 270 461 c 0,15,16
 337 461 337 461 382 446 c 128,-1,17
 427 431 427 431 450 390 c 1,18,19
 507 461 507 461 602 461 c 0,20,21
 701 461 701 461 750 424 c 128,-1,22
 799 387 799 387 799 283 c 2,23,-1
 799 35 l 2,24,25
 799 -7 799 -7 763 -7 c 128,-1,26
 727 -7 727 -7 727 35 c 2,27,-1
 727 280 l 2,28,29
 727 352 727 352 702.5 370.5 c 128,-1,30
 678 389 678 389 602 389 c 0,31,32
 541 389 541 389 507 348 c 128,-1,33
 473 307 473 307 473 229 c 2,34,-1
 473 35 l 2,35,36
 473 -7 473 -7 437 -7 c 0,37,38
 399 -7 399 -7 399 35 c 2,39,-1
 399 280 l 2,40,41
 399 351 399 351 373.5 370 c 128,-1,42
 348 389 348 389 270 389 c 0,0,1
EndSplineSet
EndChar

StartChar: n
Encoding: 110 110 81
Width: 678
GlyphClass: 2
Flags: W
AnchorPoint: "Anchor-1" 336 0 basechar 0
AnchorPoint: "Anchor-0" 341 510 basechar 0
LayerCount: 2
Fore
SplineSet
327 389 m 2,0,1
 226 389 226 389 186 345.5 c 128,-1,2
 146 302 146 302 146 229 c 2,3,-1
 146 35 l 2,4,5
 146 -7 146 -7 110 -7 c 128,-1,6
 74 -7 74 -7 74 35 c 2,7,-1
 74 425 l 2,8,9
 74 468 74 468 108 468 c 0,10,11
 146 468 146 468 146 422 c 2,12,-1
 146 411 l 1,13,14
 208 461 208 461 327 461 c 2,15,-1
 356 461 l 2,16,17
 490 461 490 461 549 424.5 c 128,-1,18
 608 388 608 388 608 283 c 2,19,-1
 608 35 l 2,20,21
 608 -7 608 -7 573 -7 c 0,22,23
 536 -7 536 -7 536 35 c 2,24,-1
 536 280 l 2,25,26
 536 352 536 352 501.5 370.5 c 128,-1,27
 467 389 467 389 356 389 c 2,28,-1
 327 389 l 2,0,1
EndSplineSet
EndChar

StartChar: o
Encoding: 111 111 82
Width: 656
GlyphClass: 2
Flags: W
AnchorPoint: "Anchor-1" 328 0 basechar 0
AnchorPoint: "Anchor-0" 328 510 basechar 0
LayerCount: 2
Fore
SplineSet
343 0 m 2,0,-1
 314 0 l 2,1,2
 179 0 179 0 120 36.5 c 128,-1,3
 61 73 61 73 61 178 c 2,4,-1
 61 283 l 2,5,6
 61 388 61 388 120 424.5 c 128,-1,7
 179 461 179 461 314 461 c 2,8,-1
 343 461 l 2,9,10
 477 461 477 461 536 424.5 c 128,-1,11
 595 388 595 388 595 283 c 2,12,-1
 595 178 l 2,13,14
 595 73 595 73 536 36.5 c 128,-1,15
 477 0 477 0 343 0 c 2,0,-1
314 72 m 2,16,-1
 343 72 l 2,17,18
 454 72 454 72 488.5 90.5 c 128,-1,19
 523 109 523 109 523 181 c 2,20,-1
 523 280 l 2,21,22
 523 352 523 352 488.5 370.5 c 128,-1,23
 454 389 454 389 343 389 c 2,24,-1
 314 389 l 2,25,26
 202 389 202 389 167.5 370.5 c 128,-1,27
 133 352 133 352 133 280 c 2,28,-1
 133 181 l 2,29,30
 133 109 133 109 167.5 90.5 c 128,-1,31
 202 72 202 72 314 72 c 2,16,-1
EndSplineSet
EndChar

StartChar: p
Encoding: 112 112 83
Width: 670
GlyphClass: 2
Flags: W
AnchorPoint: "Anchor-1" 337 0 basechar 0
AnchorPoint: "Anchor-0" 337 510 basechar 0
LayerCount: 2
Fore
SplineSet
537 280 m 2,0,1
 537 352 537 352 502.5 370.5 c 128,-1,2
 468 389 468 389 357 389 c 2,3,-1
 328 389 l 2,4,5
 226 389 226 389 186.5 346.5 c 128,-1,6
 147 304 147 304 147 232 c 2,7,-1
 147 72 l 1,8,-1
 360 72 l 2,9,10
 469 72 469 72 503 90.5 c 128,-1,11
 537 109 537 109 537 181 c 2,12,-1
 537 280 l 2,0,1
609 178 m 2,13,14
 609 73 609 73 550.5 36.5 c 128,-1,15
 492 0 492 0 360 0 c 2,16,-1
 147 0 l 1,17,-1
 147 -137 l 2,18,19
 147 -182 147 -182 109 -182 c 0,20,21
 75 -182 75 -182 75 -137 c 2,22,-1
 75 426 l 2,23,24
 75 468 75 468 111 468 c 128,-1,25
 147 468 147 468 147 423 c 2,26,-1
 147 411 l 1,27,28
 209 461 209 461 328 461 c 2,29,-1
 357 461 l 2,30,31
 491 461 491 461 550 424.5 c 128,-1,32
 609 388 609 388 609 283 c 2,33,-1
 609 178 l 2,13,14
EndSplineSet
EndChar

StartChar: q
Encoding: 113 113 84
Width: 670
GlyphClass: 2
Flags: W
AnchorPoint: "Anchor-1" 310 0 basechar 0
AnchorPoint: "Anchor-0" 310 510 basechar 0
LayerCount: 2
Fore
SplineSet
133 280 m 2,0,-1
 133 181 l 2,1,2
 133 109 133 109 167.5 90.5 c 128,-1,3
 202 72 202 72 311 72 c 2,4,-1
 523 72 l 1,5,-1
 523 232 l 2,6,7
 523 389 523 389 343 389 c 2,8,-1
 314 389 l 2,9,10
 202 389 202 389 167.5 370.5 c 128,-1,11
 133 352 133 352 133 280 c 2,0,-1
61 178 m 2,12,-1
 61 283 l 2,13,14
 61 388 61 388 120 424.5 c 128,-1,15
 179 461 179 461 314 461 c 2,16,-1
 343 461 l 2,17,18
 463 461 463 461 523 411 c 1,19,-1
 523 423 l 2,20,21
 523 468 523 468 559 468 c 128,-1,22
 595 468 595 468 595 426 c 2,23,-1
 595 -137 l 2,24,25
 595 -182 595 -182 561 -182 c 0,26,27
 547 -182 547 -182 535 -172 c 128,-1,28
 523 -162 523 -162 523 -137 c 2,29,-1
 523 0 l 1,30,-1
 311 0 l 2,31,32
 179 0 179 0 120 36.5 c 128,-1,33
 61 73 61 73 61 178 c 2,12,-1
EndSplineSet
EndChar

StartChar: r
Encoding: 114 114 85
Width: 406
GlyphClass: 2
Flags: W
AnchorPoint: "Anchor-1" 218 0 basechar 0
AnchorPoint: "Anchor-0" 268 510 basechar 0
LayerCount: 2
Fore
SplineSet
297 389 m 2,0,1
 223 389 223 389 184.5 348 c 128,-1,2
 146 307 146 307 146 229 c 2,3,-1
 146 35 l 2,4,5
 146 -7 146 -7 110 -7 c 128,-1,6
 74 -7 74 -7 74 35 c 2,7,-1
 74 425 l 2,8,9
 74 468 74 468 108 468 c 0,10,11
 146 468 146 468 146 422 c 2,12,-1
 146 411 l 1,13,14
 206 461 206 461 297 461 c 2,15,-1
 343 461 l 2,16,17
 388 461 388 461 388 425 c 128,-1,18
 388 389 388 389 343 389 c 2,19,-1
 297 389 l 2,0,1
EndSplineSet
EndChar

StartChar: s
Encoding: 115 115 86
Width: 625
GlyphClass: 2
Flags: W
AnchorPoint: "Anchor-1" 304 0 basechar 0
AnchorPoint: "Anchor-0" 314 510 basechar 0
LayerCount: 2
Fore
SplineSet
170 0 m 2,0,1
 105 0 105 0 82.5 33 c 128,-1,2
 60 66 60 66 60 121 c 0,3,4
 60 167 60 167 96 167 c 128,-1,5
 132 167 132 167 132 124 c 0,6,7
 132 94 132 94 141 83 c 128,-1,8
 150 72 150 72 177 72 c 2,9,-1
 445 72 l 2,10,11
 494 72 494 72 494 132 c 0,12,13
 494 161 494 161 480.5 180.5 c 128,-1,14
 467 200 467 200 445 200 c 2,15,-1
 199 200 l 2,16,17
 127 200 127 200 93.5 237 c 128,-1,18
 60 274 60 274 60 334 c 0,19,20
 60 396 60 396 97 428.5 c 128,-1,21
 134 461 134 461 229 461 c 2,22,-1
 454 461 l 2,23,24
 519 461 519 461 541.5 427.5 c 128,-1,25
 564 394 564 394 564 339 c 0,26,27
 564 294 564 294 528 294 c 0,28,29
 514 294 514 294 503 304 c 128,-1,30
 492 314 492 314 492 337 c 0,31,32
 492 367 492 367 483 378 c 128,-1,33
 474 389 474 389 447 389 c 2,34,-1
 181 389 l 2,35,36
 132 389 132 389 132 334 c 0,37,38
 132 304 132 304 146 288 c 128,-1,39
 160 272 160 272 181 272 c 2,40,-1
 428 272 l 2,41,42
 502 272 502 272 534 232 c 128,-1,43
 566 192 566 192 566 132 c 0,44,45
 566 68 566 68 528.5 34 c 128,-1,46
 491 0 491 0 398 0 c 2,47,-1
 170 0 l 2,0,1
EndSplineSet
EndChar

StartChar: t
Encoding: 116 116 87
Width: 373
GlyphClass: 2
Flags: W
AnchorPoint: "Anchor-1" 264 0 basechar 0
AnchorPoint: "Anchor-0" 227 510 basechar 0
LayerCount: 2
Fore
SplineSet
152 181 m 2,0,1
 152 110 152 110 183 91 c 128,-1,2
 214 72 214 72 303 72 c 0,3,4
 348 72 348 72 348 38 c 0,5,6
 348 0 348 0 303 0 c 0,7,8
 190 0 190 0 135 37.5 c 128,-1,9
 80 75 80 75 80 178 c 2,10,-1
 80 394 l 1,11,12
 49 399 49 399 49 429 c 0,13,14
 49 455 49 455 80 460 c 1,15,-1
 80 555 l 2,16,17
 80 601 80 601 114 601 c 0,18,19
 152 601 152 601 152 555 c 2,20,-1
 152 461 l 1,21,-1
 280 461 l 2,22,23
 326 461 326 461 326 423 c 0,24,25
 326 389 326 389 280 389 c 2,26,-1
 152 389 l 1,27,-1
 152 181 l 2,0,1
EndSplineSet
EndChar

StartChar: u
Encoding: 117 117 88
Width: 678
GlyphClass: 2
Flags: W
AnchorPoint: "Anchor-1" 337 0 basechar 0
AnchorPoint: "Anchor-0" 337 510 basechar 0
LayerCount: 2
Fore
SplineSet
351 72 m 2,0,1
 454 72 454 72 493 116.5 c 128,-1,2
 532 161 532 161 532 232 c 2,3,-1
 532 426 l 2,4,5
 532 468 532 468 568 468 c 128,-1,6
 604 468 604 468 604 426 c 2,7,-1
 604 36 l 2,8,9
 604 -7 604 -7 570 -7 c 0,10,11
 532 -7 532 -7 532 39 c 2,12,-1
 532 50 l 1,13,14
 470 0 470 0 351 0 c 2,15,-1
 322 0 l 2,16,17
 188 0 188 0 129 36.5 c 128,-1,18
 70 73 70 73 70 178 c 2,19,-1
 70 426 l 2,20,21
 70 468 70 468 105 468 c 0,22,23
 142 468 142 468 142 426 c 2,24,-1
 142 181 l 2,25,26
 142 109 142 109 176.5 90.5 c 128,-1,27
 211 72 211 72 322 72 c 2,28,-1
 351 72 l 2,0,1
EndSplineSet
EndChar

StartChar: v
Encoding: 118 118 89
Width: 533
GlyphClass: 2
Flags: W
AnchorPoint: "Anchor-1" 264 0 basechar 0
AnchorPoint: "Anchor-0" 264 510 basechar 0
LayerCount: 2
Fore
SplineSet
214 0 m 1,0,-1
 34 432 l 2,1,2
 30 442 30 442 30 449 c 0,3,4
 30 467 30 467 40.5 475 c 128,-1,5
 51 483 51 483 64 483 c 0,6,7
 88 483 88 483 102 455 c 1,8,-1
 264 76 l 1,9,-1
 432 456 l 2,10,11
 444 483 444 483 470 483 c 0,12,13
 504 483 504 483 504 450 c 0,14,15
 504 441 504 441 500 432 c 2,16,-1
 309 0 l 1,17,-1
 214 0 l 1,0,-1
EndSplineSet
EndChar

StartChar: w
Encoding: 119 119 90
Width: 834
GlyphClass: 2
Flags: W
AnchorPoint: "Anchor-1" 418 0 basechar 0
AnchorPoint: "Anchor-0" 418 510 basechar 0
LayerCount: 2
Fore
SplineSet
799 424 m 2,0,-1
 642 0 l 1,1,-1
 547 0 l 1,2,-1
 418 354 l 1,3,-1
 277 0 l 1,4,-1
 184 0 l 1,5,-1
 36 424 l 2,6,7
 32 436 32 436 32 442 c 0,8,9
 32 473 32 473 66 473 c 0,10,11
 93 473 93 473 104 445 c 1,12,-1
 234 68 l 1,13,-1
 378 440 l 2,14,15
 388 467 388 467 419 467 c 0,16,17
 448 467 448 467 458 440 c 2,18,-1
 596 68 l 1,19,-1
 731 445 l 2,20,21
 742 473 742 473 769 473 c 0,22,23
 803 473 803 473 803 442 c 0,24,25
 803 436 803 436 799 424 c 2,0,-1
EndSplineSet
EndChar

StartChar: x
Encoding: 120 120 91
Width: 558
GlyphClass: 2
Flags: W
AnchorPoint: "Anchor-1" 280 0 basechar 0
AnchorPoint: "Anchor-0" 280 510 basechar 0
LayerCount: 2
Fore
SplineSet
515 20 m 0,0,1
 515 7 515 7 503.5 -2 c 128,-1,2
 492 -11 492 -11 480 -11 c 0,3,4
 460 -11 460 -11 448 1 c 2,5,-1
 280 186 l 1,6,-1
 111 1 l 2,7,8
 99 -11 99 -11 78 -11 c 0,9,10
 66 -11 66 -11 54.5 -2 c 128,-1,11
 43 7 43 7 43 20 c 0,12,13
 43 38 43 38 55 50 c 2,14,-1
 226 230 l 1,15,-1
 55 411 l 2,16,17
 43 424 43 424 43 440 c 0,18,19
 43 454 43 454 54 463 c 128,-1,20
 65 472 65 472 78 472 c 0,21,22
 99 472 99 472 111 460 c 2,23,-1
 280 275 l 1,24,-1
 448 460 l 2,25,26
 460 472 460 472 480 472 c 0,27,28
 493 472 493 472 504 463 c 128,-1,29
 515 454 515 454 515 440 c 0,30,31
 515 424 515 424 503 411 c 2,32,-1
 332 230 l 1,33,-1
 503 50 l 2,34,35
 515 38 515 38 515 20 c 0,0,1
EndSplineSet
EndChar

StartChar: y
Encoding: 121 121 92
Width: 679
GlyphClass: 2
Flags: W
AnchorPoint: "Anchor-1" 337 0 basechar 0
AnchorPoint: "Anchor-0" 337 510 basechar 0
LayerCount: 2
Fore
SplineSet
604 -77 m 2,0,1
 604 -146 604 -146 582.5 -175.5 c 128,-1,2
 561 -205 561 -205 503 -205 c 2,3,-1
 180 -205 l 2,4,5
 115 -205 115 -205 92.5 -171.5 c 128,-1,6
 70 -138 70 -138 70 -83 c 0,7,8
 70 -38 70 -38 106 -38 c 128,-1,9
 142 -38 142 -38 142 -81 c 0,10,11
 142 -111 142 -111 151 -122 c 128,-1,12
 160 -133 160 -133 187 -133 c 2,13,-1
 496 -133 l 2,14,15
 519 -133 519 -133 525.5 -125.5 c 128,-1,16
 532 -118 532 -118 532 -93 c 2,17,-1
 532 50 l 1,18,19
 470 0 470 0 351 0 c 2,20,-1
 322 0 l 2,21,22
 188 0 188 0 129 36.5 c 128,-1,23
 70 73 70 73 70 178 c 2,24,-1
 70 426 l 2,25,26
 70 468 70 468 105 468 c 0,27,28
 142 468 142 468 142 426 c 2,29,-1
 142 181 l 2,30,31
 142 109 142 109 176.5 90.5 c 128,-1,32
 211 72 211 72 322 72 c 2,33,-1
 351 72 l 2,34,35
 532 72 532 72 532 232 c 2,36,-1
 532 426 l 2,37,38
 532 468 532 468 568 468 c 128,-1,39
 604 468 604 468 604 426 c 2,40,-1
 604 -77 l 2,0,1
EndSplineSet
EndChar

StartChar: z
Encoding: 122 122 93
Width: 594
GlyphClass: 2
Flags: W
AnchorPoint: "Anchor-1" 292 0 basechar 0
AnchorPoint: "Anchor-0" 292 510 basechar 0
LayerCount: 2
Fore
SplineSet
162 72 m 1,0,-1
 424 72 l 2,1,2
 454 72 454 72 462 87 c 128,-1,3
 470 102 470 102 470 139 c 0,4,5
 470 185 470 185 506 185 c 128,-1,6
 542 185 542 185 542 139 c 0,7,8
 542 65 542 65 518.5 32.5 c 128,-1,9
 495 0 495 0 432 0 c 2,10,-1
 60 0 l 1,11,-1
 60 74 l 1,12,-1
 422 389 l 1,13,-1
 177 389 l 2,14,15
 149 389 149 389 140.5 375.5 c 128,-1,16
 132 362 132 362 132 322 c 0,17,18
 132 276 132 276 95 276 c 0,19,20
 60 276 60 276 60 322 c 0,21,22
 60 397 60 397 83 429 c 128,-1,23
 106 461 106 461 170 461 c 2,24,-1
 521 461 l 1,25,-1
 521 384 l 1,26,-1
 162 72 l 1,0,-1
EndSplineSet
EndChar

StartChar: braceleft
Encoding: 123 123 94
Width: 287
GlyphClass: 2
Flags: W
LayerCount: 2
Fore
SplineSet
40 327 m 1,0,1
 65 340 65 340 89 361.5 c 128,-1,2
 113 383 113 383 113 400 c 0,3,4
 113 415 113 415 99 461.5 c 128,-1,5
 85 508 85 508 85 528 c 0,6,7
 85 575 85 575 93.5 606.5 c 128,-1,8
 102 638 102 638 113.5 655 c 128,-1,9
 125 672 125 672 147.5 681 c 128,-1,10
 170 690 170 690 187.5 691.5 c 128,-1,11
 205 693 205 693 235 693 c 1,12,-1
 235 621 l 1,13,14
 180 621 180 621 168.5 608 c 128,-1,15
 157 595 157 595 157 528 c 0,16,17
 157 521 157 521 171 474 c 128,-1,18
 185 427 185 427 185 400 c 0,19,20
 185 360 185 360 123 317 c 1,21,22
 185 278 185 278 185 236 c 0,23,24
 185 209 185 209 171 163 c 128,-1,25
 157 117 157 117 157 108 c 0,26,27
 157 41 157 41 168.5 28 c 128,-1,28
 180 15 180 15 235 15 c 1,29,-1
 235 -57 l 1,30,31
 210 -57 210 -57 195 -56 c 128,-1,32
 180 -55 180 -55 160 -50 c 128,-1,33
 140 -45 140 -45 128.5 -34.5 c 128,-1,34
 117 -24 117 -24 106 -6.5 c 128,-1,35
 95 11 95 11 90 40 c 128,-1,36
 85 69 85 69 85 108 c 0,37,38
 85 128 85 128 99 174.5 c 128,-1,39
 113 221 113 221 113 236 c 0,40,41
 113 253 113 253 89.5 273 c 128,-1,42
 66 293 66 293 40 307 c 1,43,-1
 40 327 l 1,0,1
EndSplineSet
EndChar

StartChar: bar
Encoding: 124 124 95
Width: 235
GlyphClass: 2
Flags: W
LayerCount: 2
Fore
SplineSet
153 33 m 2,0,1
 153 -7 153 -7 116 -7 c 0,2,3
 81 -7 81 -7 81 33 c 2,4,-1
 81 602 l 2,5,6
 81 643 81 643 117 643 c 128,-1,7
 153 643 153 643 153 602 c 2,8,-1
 153 33 l 2,0,1
EndSplineSet
EndChar

StartChar: braceright
Encoding: 125 125 96
Width: 287
GlyphClass: 2
Flags: W
LayerCount: 2
Fore
SplineSet
247 327 m 1,0,-1
 247 307 l 1,1,2
 221 293 221 293 197.5 273 c 128,-1,3
 174 253 174 253 174 236 c 0,4,5
 174 221 174 221 188 174.5 c 128,-1,6
 202 128 202 128 202 108 c 0,7,8
 202 69 202 69 197 40 c 128,-1,9
 192 11 192 11 181 -6.5 c 128,-1,10
 170 -24 170 -24 158.5 -34.5 c 128,-1,11
 147 -45 147 -45 127 -50 c 128,-1,12
 107 -55 107 -55 92 -56 c 128,-1,13
 77 -57 77 -57 52 -57 c 1,14,-1
 52 15 l 1,15,16
 107 15 107 15 118.5 28 c 128,-1,17
 130 41 130 41 130 108 c 0,18,19
 130 117 130 117 116 163 c 128,-1,20
 102 209 102 209 102 236 c 0,21,22
 102 278 102 278 164 317 c 1,23,24
 102 360 102 360 102 400 c 0,25,26
 102 427 102 427 116 474 c 128,-1,27
 130 521 130 521 130 528 c 0,28,29
 130 595 130 595 118.5 608 c 128,-1,30
 107 621 107 621 52 621 c 1,31,-1
 52 693 l 1,32,33
 82 693 82 693 99.5 691.5 c 128,-1,34
 117 690 117 690 139.5 681 c 128,-1,35
 162 672 162 672 173.5 655 c 128,-1,36
 185 638 185 638 193.5 606.5 c 128,-1,37
 202 575 202 575 202 528 c 0,38,39
 202 508 202 508 188 461.5 c 128,-1,40
 174 415 174 415 174 400 c 0,41,42
 174 383 174 383 198 361.5 c 128,-1,43
 222 340 222 340 247 327 c 1,0,-1
EndSplineSet
EndChar

StartChar: asciitilde
Encoding: 126 126 97
Width: 438
GlyphClass: 2
Flags: W
LayerCount: 2
Fore
SplineSet
171 205 m 2,0,1
 167 207 167 207 165 207 c 128,-1,2
 163 207 163 207 160 204 c 2,3,-1
 131 178 l 2,4,5
 120 167 120 167 103 167 c 0,6,7
 91 167 91 167 79.5 176.5 c 128,-1,8
 68 186 68 186 68 201 c 0,9,10
 68 220 68 220 86 235 c 2,11,-1
 131 273 l 2,12,13
 144 284 144 284 157 284 c 0,14,15
 167 284 167 284 180 279 c 2,16,-1
 267 246 l 2,17,18
 271 244 271 244 273 244 c 0,19,20
 274 244 274 244 277 247 c 2,21,-1
 307 273 l 1,22,23
 318 284 318 284 335 284 c 0,24,25
 347 284 347 284 358 274.5 c 128,-1,26
 369 265 369 265 369 250 c 0,27,28
 369 230 369 230 351 216 c 1,29,-1
 307 178 l 1,30,31
 292 167 292 167 281 167 c 128,-1,32
 270 167 270 167 257 172 c 2,33,-1
 171 205 l 2,0,1
EndSplineSet
EndChar

StartChar: exclamdown
Encoding: 161 161 98
Width: 247
GlyphClass: 2
Flags: W
LayerCount: 2
Fore
SplineSet
88 282 m 2,0,1
 88 305 88 305 99 315 c 128,-1,2
 110 325 110 325 124 325 c 128,-1,3
 138 325 138 325 149 315 c 128,-1,4
 160 305 160 305 160 282 c 2,5,-1
 160 -138 l 2,6,7
 160 -180 160 -180 123 -180 c 0,8,9
 109 -180 109 -180 98.5 -170.5 c 128,-1,10
 88 -161 88 -161 88 -138 c 2,11,-1
 88 282 l 2,0,1
123 399 m 128,-1,13
 103 399 103 399 82.5 413.5 c 128,-1,14
 62 428 62 428 62 450 c 128,-1,15
 62 472 62 472 82.5 486.5 c 128,-1,16
 103 501 103 501 123 501 c 0,17,18
 145 501 145 501 165 486.5 c 128,-1,19
 185 472 185 472 185 450 c 0,20,21
 185 427 185 427 164 413 c 128,-1,12
 143 399 143 399 123 399 c 128,-1,13
EndSplineSet
EndChar

StartChar: cent
Encoding: 162 162 99
Width: 498
GlyphClass: 2
Flags: W
LayerCount: 2
Fore
SplineSet
218 108 m 1,0,1
 133 115 133 115 91 158 c 128,-1,2
 49 201 49 201 49 298 c 2,3,-1
 49 340 l 2,4,5
 49 436 49 436 92 479 c 128,-1,6
 135 522 135 522 218 529 c 1,7,-1
 218 615 l 2,8,9
 218 658 218 658 255 658 c 0,10,11
 290 658 290 658 290 615 c 2,12,-1
 290 530 l 1,13,-1
 332 530 l 2,14,15
 397 530 397 530 419 497 c 128,-1,16
 441 464 441 464 441 409 c 0,17,18
 441 363 441 363 406 363 c 0,19,20
 369 363 369 363 369 407 c 0,21,22
 369 438 369 438 360 448 c 128,-1,23
 351 458 351 458 325 458 c 2,24,-1
 290 458 l 1,25,-1
 290 180 l 1,26,-1
 323 180 l 2,27,28
 351 180 351 180 360 190.5 c 128,-1,29
 369 201 369 201 369 231 c 0,30,31
 369 275 369 275 404 275 c 0,32,33
 441 275 441 275 441 229 c 0,34,35
 441 175 441 175 418 141.5 c 128,-1,36
 395 108 395 108 330 108 c 2,37,-1
 290 108 l 1,38,-1
 290 20 l 2,39,40
 290 -22 290 -22 253 -22 c 0,41,42
 239 -22 239 -22 228.5 -12.5 c 128,-1,43
 218 -3 218 -3 218 20 c 2,44,-1
 218 108 l 1,0,1
218 181 m 1,45,-1
 218 457 l 1,46,47
 165 452 165 452 143 428 c 128,-1,48
 121 404 121 404 121 340 c 2,49,-1
 121 298 l 2,50,51
 121 233 121 233 142 209.5 c 128,-1,52
 163 186 163 186 218 181 c 1,45,-1
EndSplineSet
EndChar

StartChar: sterling
Encoding: 163 163 100
Width: 520
GlyphClass: 2
Flags: W
LayerCount: 2
Fore
SplineSet
104 468 m 2,0,1
 109 527 109 527 126.5 566.5 c 128,-1,2
 144 606 144 606 173 625 c 128,-1,3
 202 644 202 644 231 651 c 128,-1,4
 260 658 260 658 298 658 c 0,5,6
 374 658 374 658 417.5 624.5 c 128,-1,7
 461 591 461 591 461 501 c 0,8,9
 461 478 461 478 449.5 468 c 128,-1,10
 438 458 438 458 424 458 c 0,11,12
 389 458 389 458 389 501 c 0,13,14
 389 555 389 555 368 570.5 c 128,-1,15
 347 586 347 586 294 586 c 0,16,17
 237 586 237 586 210 563.5 c 128,-1,18
 183 541 183 541 176 468 c 2,19,-1
 168 379 l 1,20,-1
 191 379 l 2,21,22
 214 379 214 379 223.5 367.5 c 128,-1,23
 233 356 233 356 233 342 c 128,-1,24
 233 328 233 328 223.5 317.5 c 128,-1,25
 214 307 214 307 191 307 c 2,26,-1
 163 307 l 1,27,-1
 139 57 l 1,28,-1
 420 57 l 2,29,30
 463 57 463 57 463 20 c 0,31,32
 463 -15 463 -15 420 -15 c 2,33,-1
 97 -15 l 2,34,35
 65 -15 65 -15 65 25 c 0,36,37
 65 31 65 31 66 34 c 2,38,-1
 104 468 l 2,0,1
EndSplineSet
EndChar

StartChar: currency
Encoding: 164 164 101
Width: 521
GlyphClass: 2
Flags: W
LayerCount: 2
Fore
SplineSet
166 230 m 0,0,1
 166 192 166 192 194 164 c 128,-1,2
 222 136 222 136 261 136 c 0,3,4
 299 136 299 136 327 164 c 128,-1,5
 355 192 355 192 355 230 c 0,6,7
 355 269 355 269 327 297 c 128,-1,8
 299 325 299 325 261 325 c 0,9,10
 222 325 222 325 194 297 c 128,-1,11
 166 269 166 269 166 230 c 0,0,1
85 354 m 1,12,13
 71 370 71 370 71 384 c 128,-1,14
 71 398 71 398 82.5 408.5 c 128,-1,15
 94 419 94 419 106 419 c 0,16,17
 120 419 120 419 136 405 c 1,18,-1
 177 364 l 1,19,20
 216 389 216 389 261 389 c 128,-1,21
 306 389 306 389 344 365 c 1,22,-1
 384 405 l 2,23,24
 399 419 399 419 415 419 c 0,25,26
 427 419 427 419 438.5 409.5 c 128,-1,27
 450 400 450 400 450 385 c 0,28,29
 450 368 450 368 432 352 c 1,30,-1
 395 314 l 1,31,32
 419 276 419 276 419 230 c 0,33,34
 419 185 419 185 395 147 c 1,35,-1
 434 108 l 2,36,37
 450 91 450 91 450 77 c 0,38,39
 450 64 450 64 439 52.5 c 128,-1,40
 428 41 428 41 414 41 c 0,41,42
 399 41 399 41 382 59 c 1,43,-1
 344 96 l 1,44,45
 306 72 306 72 261 72 c 128,-1,46
 216 72 216 72 177 97 c 1,47,-1
 138 59 l 1,48,49
 122 41 122 41 105 41 c 0,50,51
 92 41 92 41 81.5 50.5 c 128,-1,52
 71 60 71 60 71 76 c 128,-1,53
 71 92 71 92 85 107 c 2,54,-1
 126 148 l 1,55,56
 102 182 102 182 102 230 c 0,57,58
 102 279 102 279 126 313 c 1,59,-1
 85 354 l 1,12,13
EndSplineSet
EndChar

StartChar: yen
Encoding: 165 165 102
Width: 560
GlyphClass: 2
Flags: W
LayerCount: 2
Fore
SplineSet
67 658 m 0,0,1
 84 658 84 658 100 636 c 2,2,-1
 280 381 l 1,3,-1
 459 636 l 1,4,5
 473 658 473 658 493 658 c 0,6,7
 505 658 505 658 516.5 648 c 128,-1,8
 528 638 528 638 528 623 c 0,9,10
 528 610 528 610 518 595 c 2,11,-1
 316 304 l 1,12,-1
 316 287 l 1,13,-1
 400 287 l 2,14,15
 423 287 423 287 433 275.5 c 128,-1,16
 443 264 443 264 443 250 c 0,17,18
 443 237 443 237 433 226 c 128,-1,19
 423 215 423 215 400 215 c 2,20,-1
 316 215 l 1,21,-1
 316 198 l 1,22,-1
 400 198 l 2,23,24
 423 198 423 198 433 186.5 c 128,-1,25
 443 175 443 175 443 161 c 0,26,27
 443 126 443 126 400 126 c 2,28,-1
 316 126 l 1,29,-1
 316 20 l 2,30,31
 316 -22 316 -22 280 -22 c 0,32,33
 266 -22 266 -22 255.5 -12.5 c 128,-1,34
 245 -3 245 -3 245 20 c 2,35,-1
 245 126 l 1,36,-1
 155 126 l 2,37,38
 113 126 113 126 113 163 c 0,39,40
 113 198 113 198 155 198 c 2,41,-1
 245 198 l 1,42,-1
 245 215 l 1,43,-1
 155 215 l 2,44,45
 132 215 132 215 122.5 226.5 c 128,-1,46
 113 238 113 238 113 252 c 0,47,48
 113 287 113 287 155 287 c 2,49,-1
 245 287 l 1,50,-1
 245 304 l 1,51,-1
 42 595 l 1,52,53
 32 612 32 612 32 623 c 0,54,55
 32 638 32 638 43 648 c 128,-1,56
 54 658 54 658 67 658 c 0,0,1
EndSplineSet
EndChar

StartChar: brokenbar
Encoding: 166 166 103
Width: 231
GlyphClass: 2
Flags: W
LayerCount: 2
Fore
SplineSet
151 401 m 2,0,1
 151 378 151 378 139.5 368 c 128,-1,2
 128 358 128 358 114 358 c 0,3,4
 98 358 98 358 89 370 c 128,-1,5
 80 382 80 382 80 401 c 2,6,-1
 80 616 l 2,7,8
 80 658 80 658 116 658 c 0,9,10
 130 658 130 658 140.5 648.5 c 128,-1,11
 151 639 151 639 151 616 c 2,12,-1
 151 401 l 2,0,1
151 22 m 2,13,14
 151 -22 151 -22 114 -22 c 0,15,16
 101 -22 101 -22 90.5 -12 c 128,-1,17
 80 -2 80 -2 80 22 c 2,18,-1
 80 237 l 2,19,20
 80 278 80 278 116 278 c 0,21,22
 151 278 151 278 151 237 c 2,23,-1
 151 22 l 2,13,14
EndSplineSet
EndChar

StartChar: section
Encoding: 167 167 104
Width: 539
GlyphClass: 2
Flags: W
LayerCount: 2
Fore
SplineSet
349 -15 m 2,0,-1
 165 -15 l 2,1,2
 111 -15 111 -15 92.5 12.5 c 128,-1,3
 74 40 74 40 74 86 c 0,4,5
 74 104 74 104 84 115 c 128,-1,6
 94 126 94 126 111 126 c 0,7,8
 126 126 126 126 136 115 c 128,-1,9
 146 104 146 104 146 88 c 0,10,11
 146 66 146 66 150.5 61.5 c 128,-1,12
 155 57 155 57 176 57 c 2,13,-1
 360 57 l 2,14,15
 379 57 379 57 385.5 65.5 c 128,-1,16
 392 74 392 74 392 99 c 0,17,18
 392 155 392 155 361 159 c 2,19,-1
 186 184 l 1,20,21
 74 198 74 198 74 306 c 0,22,23
 74 371 74 371 111 400 c 1,24,25
 74 432 74 432 74 495 c 0,26,27
 74 609 74 609 189 609 c 2,28,-1
 374 609 l 2,29,30
 427 609 427 609 445.5 581.5 c 128,-1,31
 464 554 464 554 464 508 c 0,32,33
 464 468 464 468 428 468 c 0,34,35
 412 468 412 468 402 479 c 128,-1,36
 392 490 392 490 392 506 c 0,37,38
 392 528 392 528 387.5 532.5 c 128,-1,39
 383 537 383 537 362 537 c 2,40,-1
 178 537 l 2,41,42
 159 537 159 537 152.5 528 c 128,-1,43
 146 519 146 519 146 495 c 0,44,45
 146 439 146 439 177 435 c 2,46,-1
 352 410 l 1,47,48
 464 396 464 396 464 289 c 0,49,50
 464 221 464 221 427 194 c 1,51,52
 464 162 464 162 464 99 c 0,53,54
 464 -15 464 -15 349 -15 c 2,0,-1
146 306 m 0,55,56
 146 273 146 273 193.5 254.5 c 128,-1,57
 241 236 241 236 321 236 c 0,58,59
 369 236 369 236 380.5 244 c 128,-1,60
 392 252 392 252 392 289 c 0,61,62
 392 325 392 325 339 341.5 c 128,-1,63
 286 358 286 358 217 358 c 0,64,65
 169 358 169 358 157.5 350 c 128,-1,66
 146 342 146 342 146 306 c 0,55,56
EndSplineSet
EndChar

StartChar: dieresis
Encoding: 168 168 105
Width: 392
GlyphClass: 2
Flags: W
LayerCount: 2
Fore
SplineSet
111 579 m 0,0,1
 89 579 89 579 69.5 593.5 c 128,-1,2
 50 608 50 608 50 630 c 128,-1,3
 50 652 50 652 70.5 666.5 c 128,-1,4
 91 681 91 681 111 681 c 128,-1,5
 131 681 131 681 151.5 666.5 c 128,-1,6
 172 652 172 652 172 630 c 128,-1,7
 172 608 172 608 151.5 593.5 c 128,-1,8
 131 579 131 579 111 579 c 0,0,1
281 579 m 0,9,10
 259 579 259 579 239.5 593.5 c 128,-1,11
 220 608 220 608 220 630 c 128,-1,12
 220 652 220 652 240.5 666.5 c 128,-1,13
 261 681 261 681 281 681 c 128,-1,14
 301 681 301 681 321.5 666.5 c 128,-1,15
 342 652 342 652 342 630 c 128,-1,16
 342 608 342 608 321.5 593.5 c 128,-1,17
 301 579 301 579 281 579 c 0,9,10
EndSplineSet
EndChar

StartChar: copyright
Encoding: 169 169 106
Width: 630
GlyphClass: 2
Flags: W
LayerCount: 2
Fore
SplineSet
301 144 m 2,0,-1
 330 144 l 2,1,2
 417 144 417 144 448.5 165 c 128,-1,3
 480 186 480 186 480 262 c 2,4,-1
 480 373 l 2,5,6
 480 449 480 449 448.5 470 c 128,-1,7
 417 491 417 491 330 491 c 2,8,-1
 301 491 l 2,9,10
 212 491 212 491 181 470 c 128,-1,11
 150 449 150 449 150 373 c 2,12,-1
 150 262 l 2,13,14
 150 186 150 186 181 165 c 128,-1,15
 212 144 212 144 301 144 c 2,0,-1
78 373 m 2,16,17
 78 485 78 485 133 524 c 128,-1,18
 188 563 188 563 301 563 c 2,19,-1
 330 563 l 2,20,21
 442 563 442 563 497 524 c 128,-1,22
 552 485 552 485 552 373 c 2,23,-1
 552 262 l 2,24,25
 552 150 552 150 497 111 c 128,-1,26
 442 72 442 72 330 72 c 2,27,-1
 301 72 l 2,28,29
 188 72 188 72 133 111 c 128,-1,30
 78 150 78 150 78 262 c 2,31,-1
 78 373 l 2,16,17
395 336 m 0,32,33
 380 336 380 336 373.5 342.5 c 128,-1,34
 367 349 367 349 366 359 c 2,35,-1
 365 369 l 2,36,37
 364 370 364 370 358 370 c 2,38,-1
 310 370 l 2,39,40
 289 370 289 370 277 361 c 128,-1,41
 265 352 265 352 265 337 c 2,42,-1
 265 298 l 2,43,44
 265 283 265 283 277 274 c 128,-1,45
 289 265 289 265 310 265 c 2,46,-1
 358 265 l 2,47,48
 365 265 365 265 365 266 c 2,49,-1
 366 273 l 2,50,51
 368 280 368 280 369.5 285 c 128,-1,52
 371 290 371 290 377.5 294.5 c 128,-1,53
 384 299 384 299 394 299 c 0,54,55
 406 299 406 299 415.5 292 c 128,-1,56
 425 285 425 285 425 272 c 0,57,58
 425 247 425 247 410.5 225.5 c 128,-1,59
 396 204 396 204 360 204 c 2,60,-1
 310 204 l 2,61,62
 266 204 266 204 235.5 228.5 c 128,-1,63
 205 253 205 253 205 298 c 2,64,-1
 205 337 l 2,65,66
 205 382 205 382 235.5 406.5 c 128,-1,67
 266 431 266 431 310 431 c 2,68,-1
 360 431 l 2,69,70
 394 431 394 431 409.5 409.5 c 128,-1,71
 425 388 425 388 425 363 c 0,72,73
 425 351 425 351 415.5 343.5 c 128,-1,74
 406 336 406 336 395 336 c 0,32,33
EndSplineSet
EndChar

StartChar: ordfeminine
Encoding: 170 170 107
Width: 392
GlyphClass: 2
Flags: W
LayerCount: 2
Fore
SplineSet
245 404 m 2,0,1
 245 411 245 411 243.5 413 c 128,-1,2
 242 415 242 415 235 415 c 2,3,-1
 156 415 l 2,4,5
 149 415 149 415 147 414 c 1,6,7
 147 403 147 403 137.5 396 c 128,-1,8
 128 389 128 389 117 389 c 0,9,10
 105 389 105 389 95.5 396.5 c 128,-1,11
 86 404 86 404 86 416 c 0,12,13
 86 445 86 445 104 460.5 c 128,-1,14
 122 476 122 476 153 476 c 2,15,-1
 238 476 l 2,16,17
 272 476 272 476 289 454.5 c 128,-1,18
 306 433 306 433 306 397 c 2,19,-1
 306 258 l 2,20,21
 306 244 306 244 296 237.5 c 128,-1,22
 286 231 286 231 276 231 c 0,23,24
 256 231 256 231 247 248 c 1,25,26
 227 234 227 234 193 234 c 2,27,-1
 156 234 l 2,28,29
 125 234 125 234 105.5 258 c 128,-1,30
 86 282 86 282 86 311 c 0,31,32
 86 361 86 361 115 380.5 c 128,-1,33
 144 400 144 400 198 400 c 2,34,-1
 245 400 l 1,35,-1
 245 404 l 2,0,1
293 214 m 2,36,37
 310 214 310 214 320.5 204.5 c 128,-1,38
 331 195 331 195 331 180 c 0,39,40
 331 166 331 166 320.5 157.5 c 128,-1,41
 310 149 310 149 293 149 c 2,42,-1
 97 149 l 2,43,44
 78 149 78 149 69.5 159.5 c 128,-1,45
 61 170 61 170 61 182 c 0,46,47
 61 195 61 195 71 204.5 c 128,-1,48
 81 214 81 214 97 214 c 2,49,-1
 293 214 l 2,36,37
147 309 m 0,50,51
 147 296 147 296 156 295 c 1,52,-1
 193 295 l 2,53,54
 237 295 237 295 244 339 c 1,55,-1
 198 339 l 2,56,57
 165 339 165 339 156 333.5 c 128,-1,58
 147 328 147 328 147 309 c 0,50,51
EndSplineSet
EndChar

StartChar: guillemotleft
Encoding: 171 171 108
Width: 516
GlyphClass: 2
Flags: W
LayerCount: 2
Fore
SplineSet
420 545 m 0,0,1
 434 545 434 545 442 536.5 c 128,-1,2
 450 528 450 528 450 515 c 0,3,4
 450 495 450 495 434 477 c 1,5,-1
 285 333 l 1,6,-1
 434 188 l 2,7,8
 450 172 450 172 450 150 c 0,9,10
 450 136 450 136 442 128 c 128,-1,11
 434 120 434 120 420 120 c 0,12,13
 400 120 400 120 391 129 c 2,14,-1
 209 298 l 1,15,16
 187 316 187 316 187 333 c 0,17,18
 187 348 187 348 209 366 c 1,19,-1
 391 535 l 2,20,21
 401 545 401 545 420 545 c 0,0,1
266 545 m 0,22,23
 280 545 280 545 288 536.5 c 128,-1,24
 296 528 296 528 296 515 c 0,25,26
 296 495 296 495 280 477 c 1,27,-1
 131 333 l 1,28,-1
 280 188 l 2,29,30
 296 172 296 172 296 150 c 0,31,32
 296 136 296 136 288 128 c 128,-1,33
 280 120 280 120 266 120 c 0,34,35
 246 120 246 120 237 129 c 2,36,-1
 55 298 l 1,37,38
 33 316 33 316 33 333 c 0,39,40
 33 348 33 348 55 366 c 1,41,-1
 237 535 l 2,42,43
 247 545 247 545 266 545 c 0,22,23
EndSplineSet
EndChar

StartChar: logicalnot
Encoding: 172 172 109
Width: 543
GlyphClass: 2
Flags: W
LayerCount: 2
Fore
SplineSet
389 141 m 2,0,-1
 389 194 l 1,1,-1
 120 194 l 2,2,3
 79 194 79 194 79 231 c 0,4,5
 79 244 79 244 88.5 255.5 c 128,-1,6
 98 267 98 267 120 267 c 2,7,-1
 418 267 l 2,8,9
 462 267 462 267 462 225 c 2,10,-1
 462 141 l 2,11,12
 462 98 462 98 424 98 c 0,13,14
 408 98 408 98 398.5 110 c 128,-1,15
 389 122 389 122 389 141 c 2,0,-1
EndSplineSet
EndChar

StartChar: uni00AD
Encoding: 173 173 110
Width: 476
GlyphClass: 2
Flags: W
LayerCount: 2
Fore
SplineSet
359 267 m 2,0,1
 403 267 403 267 403 229 c 0,2,3
 403 213 403 213 390.5 203.5 c 128,-1,4
 378 194 378 194 359 194 c 2,5,-1
 114 194 l 2,6,7
 73 194 73 194 73 231 c 0,8,9
 73 244 73 244 82.5 255.5 c 128,-1,10
 92 267 92 267 114 267 c 2,11,-1
 359 267 l 2,0,1
EndSplineSet
EndChar

StartChar: registered
Encoding: 174 174 111
Width: 630
GlyphClass: 2
Flags: W
LayerCount: 2
Fore
SplineSet
301 144 m 2,0,-1
 330 144 l 2,1,2
 417 144 417 144 448.5 165 c 128,-1,3
 480 186 480 186 480 262 c 2,4,-1
 480 373 l 2,5,6
 480 449 480 449 448.5 470 c 128,-1,7
 417 491 417 491 330 491 c 2,8,-1
 301 491 l 2,9,10
 212 491 212 491 181 470 c 128,-1,11
 150 449 150 449 150 373 c 2,12,-1
 150 262 l 2,13,14
 150 186 150 186 181 165 c 128,-1,15
 212 144 212 144 301 144 c 2,0,-1
78 373 m 2,16,17
 78 485 78 485 133 524 c 128,-1,18
 188 563 188 563 301 563 c 2,19,-1
 330 563 l 2,20,21
 442 563 442 563 497 524 c 128,-1,22
 552 485 552 485 552 373 c 2,23,-1
 552 262 l 2,24,25
 552 150 552 150 497 111 c 128,-1,26
 442 72 442 72 330 72 c 2,27,-1
 301 72 l 2,28,29
 188 72 188 72 133 111 c 128,-1,30
 78 150 78 150 78 262 c 2,31,-1
 78 373 l 2,16,17
407 193 m 0,32,33
 380 193 380 193 375 214 c 0,34,35
 372 225 372 225 356.5 250 c 128,-1,36
 341 275 341 275 320 288 c 1,37,-1
 262 288 l 1,38,-1
 262 217 l 2,39,40
 262 207 262 207 253.5 200 c 128,-1,41
 245 193 245 193 232 193 c 128,-1,42
 219 193 219 193 210 200 c 128,-1,43
 201 207 201 207 201 217 c 2,44,-1
 201 411 l 2,45,46
 201 423 201 423 211 429.5 c 128,-1,47
 221 436 221 436 230 436 c 2,48,-1
 314 436 l 2,49,50
 433 436 433 436 433 361 c 0,51,52
 433 318 433 318 392 297 c 1,53,54
 436 246 436 246 436 217 c 0,55,56
 436 207 436 207 427 200 c 128,-1,57
 418 193 418 193 407 193 c 0,32,33
314 349 m 2,58,59
 340 349 340 349 352.5 350 c 128,-1,60
 365 351 365 351 368.5 353.5 c 128,-1,61
 372 356 372 356 372 361 c 0,62,63
 372 370 372 370 361.5 372.5 c 128,-1,64
 351 375 351 375 314 375 c 2,65,-1
 262 375 l 1,66,-1
 262 349 l 1,67,-1
 314 349 l 2,58,59
EndSplineSet
EndChar

StartChar: macron
Encoding: 175 175 112
Width: 429
GlyphClass: 2
Flags: W
LayerCount: 2
Fore
SplineSet
336 736 m 2,0,1
 380 736 380 736 380 698 c 0,2,3
 380 682 380 682 367.5 672.5 c 128,-1,4
 355 663 355 663 336 663 c 2,5,-1
 91 663 l 2,6,7
 50 663 50 663 50 700 c 0,8,9
 50 713 50 713 59.5 724.5 c 128,-1,10
 69 736 69 736 91 736 c 2,11,-1
 336 736 l 2,0,1
EndSplineSet
EndChar

StartChar: degree
Encoding: 176 176 113
Width: 424
GlyphClass: 2
Flags: W
LayerCount: 2
Fore
SplineSet
125 535 m 0,0,1
 125 499 125 499 151 473 c 128,-1,2
 177 447 177 447 212 447 c 0,3,4
 248 447 248 447 274 473 c 128,-1,5
 300 499 300 499 300 535 c 0,6,7
 300 570 300 570 274 596 c 128,-1,8
 248 622 248 622 212 622 c 0,9,10
 177 622 177 622 151 596 c 128,-1,11
 125 570 125 570 125 535 c 0,0,1
212 376 m 0,12,13
 147 376 147 376 100.5 422.5 c 128,-1,14
 54 469 54 469 54 535 c 0,15,16
 54 600 54 600 100.5 646.5 c 128,-1,17
 147 693 147 693 212 693 c 0,18,19
 278 693 278 693 324.5 646.5 c 128,-1,20
 371 600 371 600 371 535 c 0,21,22
 371 469 371 469 324.5 422.5 c 128,-1,23
 278 376 278 376 212 376 c 0,12,13
EndSplineSet
EndChar

StartChar: plusminus
Encoding: 177 177 114
Width: 587
GlyphClass: 2
Flags: W
LayerCount: 2
Fore
SplineSet
103 -10 m 2,0,1
 87 -10 87 -10 74.5 -1 c 128,-1,2
 62 8 62 8 62 28 c 0,3,4
 62 63 62 63 103 63 c 2,5,-1
 481 63 l 2,6,7
 525 63 525 63 525 25 c 0,8,9
 525 9 525 9 512.5 -0.5 c 128,-1,10
 500 -10 500 -10 481 -10 c 2,11,-1
 103 -10 l 2,0,1
257 255 m 1,12,-1
 103 255 l 2,13,14
 83 255 83 255 72.5 266 c 128,-1,15
 62 277 62 277 62 293 c 0,16,17
 62 328 62 328 103 328 c 2,18,-1
 257 328 l 1,19,-1
 257 440 l 2,20,21
 257 483 257 483 294 483 c 0,22,23
 329 483 329 483 329 440 c 2,24,-1
 329 328 l 1,25,-1
 481 328 l 2,26,27
 501 328 501 328 513 318 c 128,-1,28
 525 308 525 308 525 291 c 0,29,30
 525 275 525 275 512.5 265 c 128,-1,31
 500 255 500 255 481 255 c 2,32,-1
 329 255 l 1,33,-1
 329 143 l 2,34,35
 329 101 329 101 293 101 c 128,-1,36
 257 101 257 101 257 143 c 2,37,-1
 257 255 l 1,12,-1
EndSplineSet
EndChar

StartChar: twosuperior
Encoding: 178 178 115
Width: 355
GlyphClass: 2
Flags: W
LayerCount: 2
Fore
SplineSet
268 446 m 2,0,-1
 50 446 l 1,1,-1
 50 483 l 2,2,3
 50 520 50 520 70 550 c 128,-1,4
 90 580 90 580 118 598 c 128,-1,5
 146 616 146 616 174 630 c 128,-1,6
 202 644 202 644 222 657 c 128,-1,7
 242 670 242 670 242 682 c 0,8,9
 242 707 242 707 229.5 713 c 128,-1,10
 217 719 217 719 170 719 c 2,11,-1
 144 719 l 2,12,13
 116 719 116 719 116 703 c 0,14,15
 116 689 116 689 106.5 679.5 c 128,-1,16
 97 670 97 670 83 670 c 0,17,18
 72 670 72 670 61 679 c 128,-1,19
 50 688 50 688 50 703 c 0,20,21
 50 738 50 738 77.5 760 c 128,-1,22
 105 782 105 782 140 782 c 2,23,-1
 170 782 l 2,24,25
 236 782 236 782 270.5 763 c 128,-1,26
 305 744 305 744 305 682 c 0,27,28
 305 652 305 652 279.5 626.5 c 128,-1,29
 254 601 254 601 222 585.5 c 128,-1,30
 190 570 190 570 159 549.5 c 128,-1,31
 128 529 128 529 120 509 c 1,32,-1
 268 509 l 1,33,34
 281 508 281 508 293 499 c 128,-1,35
 305 490 305 490 305 477 c 0,36,37
 305 466 305 466 293 456 c 128,-1,38
 281 446 281 446 268 446 c 2,0,-1
EndSplineSet
EndChar

StartChar: threesuperior
Encoding: 179 179 116
Width: 325
GlyphClass: 2
Flags: W
LayerCount: 2
Fore
SplineSet
159 719 m 0,0,1
 143 719 143 719 129.5 716 c 128,-1,2
 116 713 116 713 109.5 709 c 128,-1,3
 103 705 103 705 103 701 c 0,4,5
 103 688 103 688 93.5 680.5 c 128,-1,6
 84 673 84 673 69 673 c 0,7,8
 55 673 55 673 46 681.5 c 128,-1,9
 37 690 37 690 37 703 c 0,10,11
 37 732 37 732 69 757 c 128,-1,12
 101 782 101 782 149 782 c 0,13,14
 172 782 172 782 185.5 781 c 128,-1,15
 199 780 199 780 219.5 775 c 128,-1,16
 240 770 240 770 251.5 760.5 c 128,-1,17
 263 751 263 751 271.5 731.5 c 128,-1,18
 280 712 280 712 280 684 c 0,19,20
 280 644 280 644 233 618 c 1,21,22
 280 585 280 585 280 540 c 0,23,24
 280 508 280 508 269.5 488 c 128,-1,25
 259 468 259 468 238 459.5 c 128,-1,26
 217 451 217 451 198 448.5 c 128,-1,27
 179 446 179 446 149 446 c 0,28,29
 101 446 101 446 69 471 c 128,-1,30
 37 496 37 496 37 525 c 0,31,32
 37 538 37 538 46 546.5 c 128,-1,33
 55 555 55 555 69 555 c 0,34,35
 84 555 84 555 92.5 547 c 128,-1,36
 101 539 101 539 102 534 c 128,-1,37
 103 529 103 529 103 525 c 1,38,39
 111 509 111 509 159 509 c 0,40,41
 182 509 182 509 192 510.5 c 128,-1,42
 202 512 202 512 210 519 c 128,-1,43
 218 526 218 526 218 541 c 0,44,45
 218 557 218 557 192 571.5 c 128,-1,46
 166 586 166 586 141 586 c 0,47,48
 124 586 124 586 116 596.5 c 128,-1,49
 108 607 108 607 108 618 c 0,50,51
 108 631 108 631 117.5 640 c 128,-1,52
 127 649 127 649 141 649 c 0,53,54
 166 649 166 649 192 660 c 128,-1,55
 218 671 218 671 218 687 c 0,56,57
 218 708 218 708 205.5 713.5 c 128,-1,58
 193 719 193 719 159 719 c 0,0,1
EndSplineSet
EndChar

StartChar: acute
Encoding: 180 180 117
Width: 212
GlyphClass: 2
Flags: W
LayerCount: 2
Fore
SplineSet
54 495 m 0,0,1
 42 495 42 495 30.5 505 c 128,-1,2
 19 515 19 515 19 530 c 0,3,4
 19 544 19 544 30 559 c 1,5,-1
 126 674 l 2,6,7
 143 693 143 693 159 693 c 0,8,9
 173 693 173 693 183.5 683 c 128,-1,10
 194 673 194 673 194 657 c 128,-1,11
 194 641 194 641 183 629 c 2,12,-1
 87 514 l 2,13,14
 70 495 70 495 54 495 c 0,0,1
EndSplineSet
EndChar

StartChar: paragraph
Encoding: 182 182 119
Width: 506
GlyphClass: 2
Flags: W
LayerCount: 2
Fore
SplineSet
345 579 m 1,0,-1
 314 579 l 1,1,-1
 314 20 l 2,2,3
 314 -3 314 -3 303.5 -12.5 c 128,-1,4
 293 -22 293 -22 279 -22 c 0,5,6
 242 -22 242 -22 242 20 c 2,7,-1
 242 322 l 1,8,-1
 215 322 l 2,9,10
 131 322 131 322 83 364.5 c 128,-1,11
 35 407 35 407 35 486 c 0,12,13
 35 579 35 579 91.5 615 c 128,-1,14
 148 651 148 651 257 651 c 2,15,-1
 417 651 l 1,16,-1
 417 20 l 2,17,18
 417 -3 417 -3 406.5 -12.5 c 128,-1,19
 396 -22 396 -22 382 -22 c 0,20,21
 345 -22 345 -22 345 20 c 2,22,-1
 345 579 l 1,0,-1
EndSplineSet
EndChar

StartChar: periodcentered
Encoding: 183 183 120
Width: 252
GlyphClass: 2
Flags: W
LayerCount: 2
Fore
SplineSet
126 336 m 0,0,1
 104 336 104 336 84.5 350.5 c 128,-1,2
 65 365 65 365 65 387 c 128,-1,3
 65 409 65 409 85.5 423.5 c 128,-1,4
 106 438 106 438 126 438 c 128,-1,5
 146 438 146 438 166.5 423.5 c 128,-1,6
 187 409 187 409 187 387 c 128,-1,7
 187 365 187 365 166.5 350.5 c 128,-1,8
 146 336 146 336 126 336 c 0,0,1
EndSplineSet
EndChar

StartChar: cedilla
Encoding: 184 184 121
Width: 242
GlyphClass: 2
Flags: W
LayerCount: 2
Fore
SplineSet
153 5 m 2,0,1
 153 -7 153 -7 164 -18 c 128,-1,2
 175 -29 175 -29 187.5 -36.5 c 128,-1,3
 200 -44 200 -44 211 -60.5 c 128,-1,4
 222 -77 222 -77 222 -99 c 0,5,6
 222 -142 222 -142 190 -166 c 128,-1,7
 158 -190 158 -190 116 -190 c 0,8,9
 99 -190 99 -190 80.5 -185.5 c 128,-1,10
 62 -181 62 -181 44.5 -166.5 c 128,-1,11
 27 -152 27 -152 27 -130 c 0,12,13
 27 -116 27 -116 35 -109 c 128,-1,14
 43 -102 43 -102 52 -102 c 0,15,16
 65 -102 65 -102 87 -112.5 c 128,-1,17
 109 -123 109 -123 118 -123 c 0,18,19
 130 -123 130 -123 137 -121 c 128,-1,20
 144 -119 144 -119 146.5 -113.5 c 128,-1,21
 149 -108 149 -108 149.5 -106 c 128,-1,22
 150 -104 150 -104 150 -98 c 0,23,24
 150 -95 150 -95 133 -83.5 c 128,-1,25
 116 -72 116 -72 98.5 -49 c 128,-1,26
 81 -26 81 -26 81 5 c 2,27,-1
 81 10 l 1,28,-1
 153 10 l 1,29,-1
 153 5 l 2,0,1
EndSplineSet
EndChar

StartChar: onesuperior
Encoding: 185 185 122
Width: 182
GlyphClass: 2
Flags: W
LayerCount: 2
Fore
SplineSet
59 679 m 1,0,1
 43 663 43 663 27 663 c 0,2,3
 13 663 13 663 5 672 c 128,-1,4
 -3 681 -3 681 -3 692 c 0,5,6
 -3 706 -3 706 12 721 c 2,7,-1
 61 772 l 1,8,9
 76 785 76 785 90 785 c 0,10,11
 101 785 101 785 112 776.5 c 128,-1,12
 123 768 123 768 123 751 c 2,13,-1
 123 480 l 2,14,15
 123 443 123 443 91 443 c 128,-1,16
 59 443 59 443 59 480 c 2,17,-1
 59 679 l 1,0,1
EndSplineSet
EndChar

StartChar: ordmasculine
Encoding: 186 186 123
Width: 392
GlyphClass: 2
Flags: W
LayerCount: 2
Fore
SplineSet
191 295 m 2,0,-1
 200 295 l 2,1,2
 231 295 231 295 238 300.5 c 128,-1,3
 245 306 245 306 245 333 c 2,4,-1
 245 377 l 2,5,6
 245 404 245 404 238 409.5 c 128,-1,7
 231 415 231 415 200 415 c 2,8,-1
 191 415 l 2,9,10
 161 415 161 415 154 409.5 c 128,-1,11
 147 404 147 404 147 377 c 2,12,-1
 147 333 l 2,13,14
 147 306 147 306 154 300.5 c 128,-1,15
 161 295 161 295 191 295 c 2,0,-1
86 377 m 2,16,17
 86 434 86 434 110.5 455 c 128,-1,18
 135 476 135 476 191 476 c 2,19,-1
 200 476 l 2,20,21
 257 476 257 476 281.5 455 c 128,-1,22
 306 434 306 434 306 377 c 2,23,-1
 306 333 l 2,24,25
 306 276 306 276 281.5 255 c 128,-1,26
 257 234 257 234 200 234 c 2,27,-1
 191 234 l 2,28,29
 135 234 135 234 110.5 255 c 128,-1,30
 86 276 86 276 86 333 c 2,31,-1
 86 377 l 2,16,17
293 214 m 2,32,33
 310 214 310 214 320.5 204.5 c 128,-1,34
 331 195 331 195 331 180 c 0,35,36
 331 166 331 166 320.5 157.5 c 128,-1,37
 310 149 310 149 293 149 c 2,38,-1
 97 149 l 2,39,40
 78 149 78 149 69.5 159.5 c 128,-1,41
 61 170 61 170 61 182 c 0,42,43
 61 195 61 195 71 204.5 c 128,-1,44
 81 214 81 214 97 214 c 2,45,-1
 293 214 l 2,32,33
EndSplineSet
EndChar

StartChar: guillemotright
Encoding: 187 187 124
Width: 516
GlyphClass: 2
Flags: W
LayerCount: 2
Fore
SplineSet
250 545 m 0,0,1
 269 545 269 545 279 535 c 2,2,-1
 461 366 l 1,3,4
 483 348 483 348 483 333 c 0,5,6
 483 316 483 316 461 298 c 1,7,-1
 279 129 l 2,8,9
 270 120 270 120 250 120 c 0,10,11
 236 120 236 120 228 128 c 128,-1,12
 220 136 220 136 220 150 c 0,13,14
 220 172 220 172 236 188 c 2,15,-1
 385 333 l 1,16,-1
 236 477 l 1,17,18
 220 495 220 495 220 515 c 0,19,20
 220 528 220 528 228 536.5 c 128,-1,21
 236 545 236 545 250 545 c 0,0,1
96 545 m 0,22,23
 115 545 115 545 125 535 c 2,24,-1
 307 366 l 1,25,26
 329 348 329 348 329 333 c 0,27,28
 329 316 329 316 307 298 c 1,29,-1
 125 129 l 2,30,31
 116 120 116 120 96 120 c 0,32,33
 82 120 82 120 74 128 c 128,-1,34
 66 136 66 136 66 150 c 0,35,36
 66 172 66 172 82 188 c 2,37,-1
 231 333 l 1,38,-1
 82 477 l 1,39,40
 66 495 66 495 66 515 c 0,41,42
 66 528 66 528 74 536.5 c 128,-1,43
 82 545 82 545 96 545 c 0,22,23
EndSplineSet
EndChar

StartChar: onequarter
Encoding: 188 188 125
Width: 602
GlyphClass: 2
Flags: W
LayerCount: 2
Fore
SplineSet
150 545 m 1,0,1
 134 529 134 529 118 529 c 0,2,3
 104 529 104 529 96 538 c 128,-1,4
 88 547 88 547 88 558 c 0,5,6
 88 572 88 572 103 587 c 2,7,-1
 152 638 l 1,8,9
 167 651 167 651 181 651 c 0,10,11
 192 651 192 651 203 642.5 c 128,-1,12
 214 634 214 634 214 617 c 2,13,-1
 214 346 l 2,14,15
 214 309 214 309 182 309 c 128,-1,16
 150 309 150 309 150 346 c 2,17,-1
 150 545 l 1,0,1
103 77 m 2,18,19
 88 63 88 63 72 63 c 0,20,21
 60 63 60 63 51 70 c 128,-1,22
 42 77 42 77 42 93 c 128,-1,23
 42 109 42 109 56 124 c 2,24,-1
 467 535 l 2,25,26
 482 549 482 549 498 549 c 0,27,28
 510 549 510 549 519 542 c 128,-1,29
 528 535 528 535 528 519 c 128,-1,30
 528 503 528 503 514 488 c 2,31,-1
 103 77 l 2,18,19
457 -19 m 128,-1,33
 425 -19 425 -19 425 18 c 2,34,-1
 425 85 l 1,35,-1
 293 85 l 1,36,-1
 293 151 l 1,37,-1
 419 320 l 1,38,-1
 489 320 l 1,39,-1
 489 148 l 1,40,-1
 523 148 l 2,41,42
 559 148 559 148 559 117 c 0,43,44
 559 85 559 85 523 85 c 2,45,-1
 489 85 l 1,46,-1
 489 18 l 2,47,32
 489 -19 489 -19 457 -19 c 128,-1,33
425 148 m 1,48,-1
 425 226 l 1,49,-1
 367 148 l 1,50,-1
 425 148 l 1,48,-1
EndSplineSet
EndChar

StartChar: onehalf
Encoding: 189 189 126
Width: 631
GlyphClass: 2
Flags: W
LayerCount: 2
Fore
SplineSet
100 77 m 2,0,1
 85 63 85 63 69 63 c 0,2,3
 57 63 57 63 48 70 c 128,-1,4
 39 77 39 77 39 93 c 128,-1,5
 39 109 39 109 53 124 c 2,6,-1
 464 535 l 2,7,8
 479 549 479 549 495 549 c 0,9,10
 507 549 507 549 516 542 c 128,-1,11
 525 535 525 535 525 519 c 128,-1,12
 525 503 525 503 511 488 c 2,13,-1
 100 77 l 2,0,1
541 -16 m 2,14,-1
 323 -16 l 1,15,-1
 323 21 l 2,16,17
 323 58 323 58 343 88 c 128,-1,18
 363 118 363 118 391 136 c 128,-1,19
 419 154 419 154 447 168 c 128,-1,20
 475 182 475 182 495 195 c 128,-1,21
 515 208 515 208 515 220 c 0,22,23
 515 245 515 245 502.5 251 c 128,-1,24
 490 257 490 257 443 257 c 2,25,-1
 417 257 l 2,26,27
 389 257 389 257 389 241 c 0,28,29
 389 227 389 227 379.5 217.5 c 128,-1,30
 370 208 370 208 356 208 c 0,31,32
 345 208 345 208 334 217 c 128,-1,33
 323 226 323 226 323 241 c 0,34,35
 323 276 323 276 350.5 298 c 128,-1,36
 378 320 378 320 413 320 c 2,37,-1
 443 320 l 2,38,39
 509 320 509 320 543.5 301 c 128,-1,40
 578 282 578 282 578 220 c 0,41,42
 578 190 578 190 552.5 164.5 c 128,-1,43
 527 139 527 139 495 123.5 c 128,-1,44
 463 108 463 108 432 87.5 c 128,-1,45
 401 67 401 67 393 47 c 1,46,-1
 541 47 l 1,47,48
 554 46 554 46 566 37 c 128,-1,49
 578 28 578 28 578 15 c 0,50,51
 578 4 578 4 566 -6 c 128,-1,52
 554 -16 554 -16 541 -16 c 2,14,-1
158 545 m 1,53,54
 142 529 142 529 126 529 c 0,55,56
 112 529 112 529 104 538 c 128,-1,57
 96 547 96 547 96 558 c 0,58,59
 96 572 96 572 111 587 c 2,60,-1
 160 638 l 1,61,62
 175 651 175 651 189 651 c 0,63,64
 200 651 200 651 211 642.5 c 128,-1,65
 222 634 222 634 222 617 c 2,66,-1
 222 346 l 2,67,68
 222 309 222 309 190 309 c 128,-1,69
 158 309 158 309 158 346 c 2,70,-1
 158 545 l 1,53,54
EndSplineSet
EndChar

StartChar: threequarters
Encoding: 190 190 127
Width: 650
GlyphClass: 2
Flags: W
LayerCount: 2
Fore
SplineSet
503 -19 m 128,-1,1
 471 -19 471 -19 471 18 c 2,2,-1
 471 85 l 1,3,-1
 339 85 l 1,4,-1
 339 151 l 1,5,-1
 465 320 l 1,6,-1
 535 320 l 1,7,-1
 535 148 l 1,8,-1
 569 148 l 2,9,10
 605 148 605 148 605 117 c 0,11,12
 605 85 605 85 569 85 c 2,13,-1
 535 85 l 1,14,-1
 535 18 l 2,15,0
 535 -19 535 -19 503 -19 c 128,-1,1
471 148 m 1,16,-1
 471 226 l 1,17,-1
 413 148 l 1,18,-1
 471 148 l 1,16,-1
154 77 m 2,19,20
 139 63 139 63 123 63 c 0,21,22
 111 63 111 63 102 70 c 128,-1,23
 93 77 93 77 93 93 c 128,-1,24
 93 109 93 109 107 124 c 2,25,-1
 518 535 l 2,26,27
 533 549 533 549 549 549 c 0,28,29
 561 549 561 549 570 542 c 128,-1,30
 579 535 579 535 579 519 c 128,-1,31
 579 503 579 503 565 488 c 2,32,-1
 154 77 l 2,19,20
184 588 m 0,33,34
 168 588 168 588 154.5 585 c 128,-1,35
 141 582 141 582 134.5 578 c 128,-1,36
 128 574 128 574 128 570 c 0,37,38
 128 557 128 557 118.5 549.5 c 128,-1,39
 109 542 109 542 94 542 c 0,40,41
 80 542 80 542 71 550.5 c 128,-1,42
 62 559 62 559 62 572 c 0,43,44
 62 601 62 601 94 626 c 128,-1,45
 126 651 126 651 174 651 c 0,46,47
 197 651 197 651 210.5 650 c 128,-1,48
 224 649 224 649 244.5 644 c 128,-1,49
 265 639 265 639 276.5 629.5 c 128,-1,50
 288 620 288 620 296.5 600.5 c 128,-1,51
 305 581 305 581 305 553 c 0,52,53
 305 513 305 513 258 487 c 1,54,55
 305 454 305 454 305 409 c 0,56,57
 305 377 305 377 294.5 357 c 128,-1,58
 284 337 284 337 263 328.5 c 128,-1,59
 242 320 242 320 223 317.5 c 128,-1,60
 204 315 204 315 174 315 c 0,61,62
 126 315 126 315 94 340 c 128,-1,63
 62 365 62 365 62 394 c 0,64,65
 62 407 62 407 71 415.5 c 128,-1,66
 80 424 80 424 94 424 c 0,67,68
 109 424 109 424 117.5 416 c 128,-1,69
 126 408 126 408 127 403 c 128,-1,70
 128 398 128 398 128 394 c 1,71,72
 136 378 136 378 184 378 c 0,73,74
 207 378 207 378 217 379.5 c 128,-1,75
 227 381 227 381 235 388 c 128,-1,76
 243 395 243 395 243 410 c 0,77,78
 243 426 243 426 217 440.5 c 128,-1,79
 191 455 191 455 166 455 c 0,80,81
 149 455 149 455 141 465.5 c 128,-1,82
 133 476 133 476 133 487 c 0,83,84
 133 500 133 500 142.5 509 c 128,-1,85
 152 518 152 518 166 518 c 0,86,87
 191 518 191 518 217 529 c 128,-1,88
 243 540 243 540 243 556 c 0,89,90
 243 577 243 577 230.5 582.5 c 128,-1,91
 218 588 218 588 184 588 c 0,33,34
EndSplineSet
EndChar

StartChar: questiondown
Encoding: 191 191 128
Width: 545
GlyphClass: 2
Flags: W
LayerCount: 2
Fore
SplineSet
290 501 m 0,0,1
 310 501 310 501 330.5 486.5 c 128,-1,2
 351 472 351 472 351 450 c 128,-1,3
 351 428 351 428 330.5 413.5 c 128,-1,4
 310 399 310 399 290 399 c 128,-1,5
 270 399 270 399 249 413 c 128,-1,6
 228 427 228 427 228 450 c 0,7,8
 228 472 228 472 248 486.5 c 128,-1,9
 268 501 268 501 290 501 c 0,0,1
325 285 m 2,10,-1
 325 133 l 1,11,-1
 160 88 l 2,12,13
 138 82 138 82 123 56 c 128,-1,14
 108 30 108 30 108 -5 c 0,15,16
 108 -43 108 -43 129 -75.5 c 128,-1,17
 150 -108 150 -108 195 -108 c 2,18,-1
 289 -108 l 2,19,20
 379 -108 379 -108 409 -88 c 128,-1,21
 439 -68 439 -68 439 8 c 0,22,23
 439 27 439 27 449 39 c 128,-1,24
 459 51 459 51 475 51 c 0,25,26
 489 51 489 51 500.5 41 c 128,-1,27
 512 31 512 31 512 8 c 0,28,29
 512 -51 512 -51 497 -89 c 128,-1,30
 482 -127 482 -127 450 -146.5 c 128,-1,31
 418 -166 418 -166 381 -173 c 128,-1,32
 344 -180 344 -180 289 -180 c 2,33,-1
 213 -180 l 2,34,35
 120 -180 120 -180 78 -128.5 c 128,-1,36
 36 -77 36 -77 36 -5 c 0,37,38
 36 65 36 65 67 104.5 c 128,-1,39
 98 144 98 144 172 165 c 2,40,-1
 253 188 l 1,41,-1
 253 285 l 2,42,43
 253 328 253 328 290 328 c 0,44,45
 325 328 325 328 325 285 c 2,10,-1
EndSplineSet
EndChar

StartChar: AE
Encoding: 198 198 135
Width: 904
GlyphClass: 2
Flags: W
AnchorPoint: "Anchor-1" 439 0 basechar 0
AnchorPoint: "Anchor-0" 439 678 basechar 0
LayerCount: 2
Fore
SplineSet
482 317 m 1,0,-1
 482 72 l 1,1,-1
 813 72 l 2,2,3
 857 72 857 72 857 34 c 0,4,5
 857 0 857 0 813 0 c 2,6,-1
 442 0 l 2,7,8
 408 0 408 0 408 44 c 2,9,-1
 408 184 l 1,10,-1
 201 184 l 1,11,-1
 81 11 l 2,12,13
 63 -16 63 -16 40 -16 c 0,14,15
 31 -16 31 -16 20.5 -9 c 128,-1,16
 10 -2 10 -2 10 12 c 0,17,18
 10 25 10 25 20 39 c 2,19,-1
 414 627 l 2,20,21
 424 641 424 641 442 641 c 2,22,-1
 813 641 l 2,23,24
 857 641 857 641 857 603 c 0,25,26
 857 569 857 569 813 569 c 2,27,-1
 482 569 l 1,28,-1
 482 389 l 1,29,-1
 692 389 l 2,30,31
 740 389 740 389 740 351 c 0,32,33
 740 317 740 317 692 317 c 2,34,-1
 482 317 l 1,0,-1
408 494 m 1,35,-1
 249 256 l 1,36,-1
 408 256 l 1,37,-1
 408 494 l 1,35,-1
EndSplineSet
EndChar

StartChar: Ccedilla
Encoding: 199 199 136
Width: 631
GlyphClass: 2
Flags: W
LayerCount: 2
Fore
SplineSet
297 0 m 1,0,1
 178 2 178 2 124.5 41 c 128,-1,2
 71 80 71 80 71 184 c 2,3,-1
 71 452 l 2,4,5
 71 561 71 561 128 598.5 c 128,-1,6
 185 636 185 636 306 636 c 2,7,-1
 465 636 l 2,8,9
 530 636 530 636 552.5 602.5 c 128,-1,10
 575 569 575 569 575 514 c 0,11,12
 575 469 575 469 539 469 c 0,13,14
 525 469 525 469 514 479 c 128,-1,15
 503 489 503 489 503 512 c 0,16,17
 503 542 503 542 494 553 c 128,-1,18
 485 564 485 564 458 564 c 2,19,-1
 306 564 l 2,20,21
 209 564 209 564 176 544 c 128,-1,22
 143 524 143 524 143 450 c 2,23,-1
 143 186 l 2,24,25
 143 111 143 111 178 91.5 c 128,-1,26
 213 72 213 72 324 72 c 2,27,-1
 458 72 l 2,28,29
 485 72 485 72 494 83 c 128,-1,30
 503 94 503 94 503 124 c 0,31,32
 503 147 503 147 514 157 c 128,-1,33
 525 167 525 167 539 167 c 0,34,35
 575 167 575 167 575 121 c 0,36,37
 575 66 575 66 552.5 33 c 128,-1,38
 530 0 530 0 465 0 c 2,39,-1
 369 0 l 1,40,41
 371 -13 371 -13 388.5 -25 c 128,-1,42
 406 -37 406 -37 422 -54.5 c 128,-1,43
 438 -72 438 -72 438 -99 c 0,44,45
 438 -142 438 -142 406 -166 c 128,-1,46
 374 -190 374 -190 332 -190 c 0,47,48
 315 -190 315 -190 296.5 -185.5 c 128,-1,49
 278 -181 278 -181 260.5 -166.5 c 128,-1,50
 243 -152 243 -152 243 -130 c 0,51,52
 243 -116 243 -116 251 -109 c 128,-1,53
 259 -102 259 -102 268 -102 c 0,54,55
 281 -102 281 -102 303 -112.5 c 128,-1,56
 325 -123 325 -123 334 -123 c 0,57,58
 346 -123 346 -123 353 -121 c 128,-1,59
 360 -119 360 -119 362.5 -113.5 c 128,-1,60
 365 -108 365 -108 365.5 -106 c 128,-1,61
 366 -104 366 -104 366 -98 c 0,62,63
 366 -94 366 -94 349.5 -83.5 c 128,-1,64
 333 -73 333 -73 315.5 -51 c 128,-1,65
 298 -29 298 -29 297 0 c 1,0,1
EndSplineSet
EndChar

StartChar: Eth
Encoding: 208 208 145
Width: 659
GlyphClass: 2
Flags: W
LayerCount: 2
Fore
SplineSet
516 186 m 2,0,-1
 516 450 l 2,1,2
 516 524 516 524 483.5 544 c 128,-1,3
 451 564 451 564 354 564 c 2,4,-1
 156 564 l 1,5,-1
 156 361 l 1,6,-1
 240 361 l 2,7,8
 284 361 284 361 284 324 c 0,9,10
 284 308 284 308 272 298 c 128,-1,11
 260 288 260 288 240 288 c 2,12,-1
 156 288 l 1,13,-1
 156 72 l 1,14,-1
 336 72 l 2,15,16
 447 72 447 72 481.5 91.5 c 128,-1,17
 516 111 516 111 516 186 c 2,0,-1
588 452 m 2,18,-1
 588 184 l 2,19,20
 588 75 588 75 529 37.5 c 128,-1,21
 470 0 470 0 336 0 c 2,22,-1
 118 0 l 2,23,24
 84 0 84 0 84 44 c 2,25,-1
 84 288 l 1,26,27
 42 288 42 288 42 326 c 0,28,29
 42 340 42 340 51.5 350.5 c 128,-1,30
 61 361 61 361 84 361 c 1,31,-1
 84 592 l 2,32,33
 84 636 84 636 118 636 c 2,34,-1
 354 636 l 2,35,36
 475 636 475 636 531.5 598 c 128,-1,37
 588 560 588 560 588 452 c 2,18,-1
EndSplineSet
EndChar

StartChar: multiply
Encoding: 215 215 152
Width: 510
GlyphClass: 2
Flags: W
LayerCount: 2
Fore
SplineSet
69 382 m 0,0,1
 69 396 69 396 80 406.5 c 128,-1,2
 91 417 91 417 104 417 c 0,3,4
 120 417 120 417 135 402 c 2,5,-1
 255 282 l 1,6,-1
 376 403 l 2,7,8
 391 417 391 417 406 417 c 128,-1,9
 421 417 421 417 431 405.5 c 128,-1,10
 441 394 441 394 441 381 c 0,11,12
 441 365 441 365 427 351 c 2,13,-1
 306 230 l 1,14,-1
 427 109 l 1,15,16
 441 97 441 97 441 80 c 0,17,18
 441 66 441 66 429.5 54 c 128,-1,19
 418 42 418 42 406 42 c 128,-1,20
 394 42 394 42 376 58 c 1,21,-1
 255 179 l 1,22,-1
 134 58 l 2,23,24
 121 45 121 45 104 45 c 0,25,26
 90 45 90 45 79.5 55.5 c 128,-1,27
 69 66 69 66 69 80 c 0,28,29
 69 96 69 96 83 109 c 2,30,-1
 204 230 l 1,31,-1
 84 351 l 1,32,33
 69 364 69 364 69 382 c 0,0,1
EndSplineSet
EndChar

StartChar: Oslash
Encoding: 216 216 153
Width: 632
GlyphClass: 2
Flags: W
AnchorPoint: "Anchor-1" 316 0 basechar 0
AnchorPoint: "Anchor-0" 316 678 basechar 0
LayerCount: 2
Fore
SplineSet
316 573 m 0,0,1
 227 573 227 573 181.5 528.5 c 128,-1,2
 136 484 136 484 136 403 c 2,3,-1
 136 233 l 2,4,5
 136 188 136 188 149 156 c 1,6,-1
 438 539 l 1,7,8
 393 573 393 573 316 573 c 0,0,1
536 646 m 0,9,10
 550 646 550 646 561.5 635.5 c 128,-1,11
 573 625 573 625 573 611 c 0,12,13
 573 598 573 598 562 584 c 2,14,-1
 531 543 l 1,15,16
 568 486 568 486 568 406 c 2,17,-1
 568 230 l 2,18,19
 568 119 568 119 498.5 55 c 128,-1,20
 429 -9 429 -9 316 -9 c 0,21,22
 219 -9 219 -9 152 39 c 1,23,-1
 127 6 l 2,24,25
 113 -12 113 -12 96 -12 c 0,26,27
 83 -12 83 -12 71 -2 c 128,-1,28
 59 8 59 8 59 23 c 128,-1,29
 59 38 59 38 69 50 c 2,30,-1
 101 93 l 1,31,32
 64 150 64 150 64 230 c 2,33,-1
 64 406 l 2,34,35
 64 518 64 518 133 581.5 c 128,-1,36
 202 645 202 645 316 645 c 0,37,38
 415 645 415 645 481 596 c 1,39,-1
 505 627 l 2,40,41
 519 646 519 646 536 646 c 0,9,10
483 479 m 1,42,-1
 195 96 l 1,43,44
 238 63 238 63 316 63 c 0,45,46
 404 63 404 63 450 107 c 128,-1,47
 496 151 496 151 496 233 c 2,48,-1
 496 403 l 2,49,50
 496 447 496 447 483 479 c 1,42,-1
EndSplineSet
EndChar

StartChar: Thorn
Encoding: 222 222 159
Width: 560
GlyphClass: 2
Flags: W
LayerCount: 2
Fore
SplineSet
156 476 m 1,0,-1
 335 476 l 2,1,2
 426 476 426 476 475.5 435 c 128,-1,3
 525 394 525 394 525 317 c 0,4,5
 525 238 525 238 475 196.5 c 128,-1,6
 425 155 425 155 333 155 c 2,7,-1
 156 155 l 1,8,-1
 156 35 l 2,9,10
 156 -7 156 -7 119 -7 c 0,11,12
 84 -7 84 -7 84 35 c 2,13,-1
 84 573 l 2,14,15
 84 596 84 596 95 606 c 128,-1,16
 106 616 106 616 120 616 c 128,-1,17
 134 616 134 616 145 606 c 128,-1,18
 156 596 156 596 156 573 c 2,19,-1
 156 476 l 1,0,-1
284 404 m 2,20,-1
 156 404 l 1,21,-1
 156 218 l 1,22,-1
 283 218 l 2,23,24
 384 218 384 218 418 236 c 128,-1,25
 452 254 452 254 452 311 c 128,-1,26
 452 368 452 368 417 386 c 128,-1,27
 382 404 382 404 284 404 c 2,20,-1
EndSplineSet
EndChar

StartChar: germandbls
Encoding: 223 223 160
Width: 506
GlyphClass: 2
Flags: W
LayerCount: 2
Fore
SplineSet
165 341 m 1,0,-1
 165 408 l 1,1,2
 241 408 241 408 283 431 c 128,-1,3
 325 454 325 454 325 512 c 0,4,5
 325 536 325 536 304 550 c 128,-1,6
 283 564 283 564 245 564 c 0,7,8
 183 564 183 564 159 545.5 c 128,-1,9
 135 527 135 527 135 461 c 2,10,-1
 135 39 l 2,11,12
 135 -7 135 -7 97 -7 c 0,13,14
 63 -7 63 -7 63 37 c 2,15,-1
 63 394 l 1,16,17
 32 399 32 399 32 429 c 0,18,19
 32 455 32 455 63 460 c 1,20,21
 68 562 68 562 116 599 c 128,-1,22
 164 636 164 636 245 636 c 0,23,24
 320 636 320 636 359 598.5 c 128,-1,25
 398 561 398 561 398 510 c 0,26,27
 398 430 398 430 335 381 c 1,28,29
 466 336 466 336 466 198 c 0,30,31
 466 133 466 133 450.5 87.5 c 128,-1,32
 435 42 435 42 408.5 20 c 128,-1,33
 382 -2 382 -2 356 -11 c 128,-1,34
 330 -20 330 -20 301 -20 c 0,35,36
 247 -20 247 -20 199.5 11.5 c 128,-1,37
 152 43 152 43 152 101 c 0,38,39
 152 147 152 147 194 147 c 128,-1,40
 236 147 236 147 236 103 c 0,41,42
 236 52 236 52 310 52 c 0,43,44
 394 52 394 52 394 201 c 0,45,46
 394 341 394 341 165 341 c 1,0,-1
EndSplineSet
EndChar

StartChar: ae
Encoding: 230 230 167
Width: 986
GlyphClass: 2
Flags: W
AnchorPoint: "Anchor-1" 470 0 basechar 0
AnchorPoint: "Anchor-0" 495 510 basechar 0
LayerCount: 2
Fore
SplineSet
295 233 m 2,0,1
 198 233 198 233 166 214 c 128,-1,2
 134 195 134 195 134 124 c 0,3,4
 134 103 134 103 149 87.5 c 128,-1,5
 164 72 164 72 179 72 c 2,6,-1
 272 72 l 2,7,8
 440 72 440 72 440 228 c 1,9,-1
 436 233 l 1,10,-1
 295 233 l 2,0,1
694 389 m 2,11,-1
 686 389 l 2,12,13
 589 389 589 389 553 373 c 128,-1,14
 517 357 517 357 513 305 c 1,15,-1
 854 305 l 1,16,17
 850 357 850 357 816.5 373 c 128,-1,18
 783 389 783 389 694 389 c 2,11,-1
926 283 m 2,19,-1
 926 233 l 1,20,-1
 513 233 l 1,21,-1
 517 181 l 1,22,23
 517 110 517 110 550.5 91 c 128,-1,24
 584 72 584 72 686 72 c 2,25,-1
 809 72 l 2,26,27
 836 72 836 72 845 83 c 128,-1,28
 854 94 854 94 854 124 c 0,29,30
 854 147 854 147 865 157 c 128,-1,31
 876 167 876 167 890 167 c 0,32,33
 926 167 926 167 926 121 c 0,34,35
 926 66 926 66 903.5 33 c 128,-1,36
 881 0 881 0 816 0 c 2,37,-1
 686 0 l 2,38,39
 603 0 603 0 550 15 c 128,-1,40
 497 30 497 30 469 71 c 1,41,42
 436 37 436 37 378.5 18.5 c 128,-1,43
 321 0 321 0 272 0 c 2,44,-1
 179 0 l 2,45,46
 128 0 128 0 95 35 c 128,-1,47
 62 70 62 70 62 129 c 0,48,49
 62 231 62 231 119.5 268 c 128,-1,50
 177 305 177 305 295 305 c 2,51,-1
 435 305 l 1,52,-1
 435 347 l 2,53,54
 435 371 435 371 425.5 380 c 128,-1,55
 416 389 416 389 387 389 c 2,56,-1
 246 389 l 2,57,58
 134 389 134 389 134 339 c 0,59,60
 134 294 134 294 97 294 c 0,61,62
 62 294 62 294 62 339 c 0,63,64
 62 402 62 402 111 431.5 c 128,-1,65
 160 461 160 461 239 461 c 2,66,-1
 394 461 l 2,67,68
 468 461 468 461 494 421 c 1,69,70
 547 461 547 461 686 461 c 2,71,-1
 694 461 l 2,72,73
 813 461 813 461 869.5 424.5 c 128,-1,74
 926 388 926 388 926 283 c 2,19,-1
EndSplineSet
EndChar

StartChar: ccedilla
Encoding: 231 231 168
Width: 624
GlyphClass: 2
Flags: W
LayerCount: 2
Fore
SplineSet
277 1 m 1,0,1
 163 5 163 5 112 42.5 c 128,-1,2
 61 80 61 80 61 178 c 2,3,-1
 61 283 l 2,4,5
 61 388 61 388 120 424.5 c 128,-1,6
 179 461 179 461 314 461 c 2,7,-1
 455 461 l 2,8,9
 520 461 520 461 542.5 427.5 c 128,-1,10
 565 394 565 394 565 339 c 0,11,12
 565 294 565 294 529 294 c 0,13,14
 515 294 515 294 504 304 c 128,-1,15
 493 314 493 314 493 337 c 0,16,17
 493 367 493 367 484 378 c 128,-1,18
 475 389 475 389 448 389 c 2,19,-1
 314 389 l 2,20,21
 202 389 202 389 167.5 370.5 c 128,-1,22
 133 352 133 352 133 280 c 2,23,-1
 133 181 l 2,24,25
 133 109 133 109 167.5 90.5 c 128,-1,26
 202 72 202 72 314 72 c 2,27,-1
 448 72 l 2,28,29
 475 72 475 72 484 83 c 128,-1,30
 493 94 493 94 493 124 c 0,31,32
 493 147 493 147 504 157 c 128,-1,33
 515 167 515 167 529 167 c 0,34,35
 565 167 565 167 565 121 c 0,36,37
 565 66 565 66 542.5 33 c 128,-1,38
 520 0 520 0 455 0 c 2,39,-1
 349 0 l 1,40,41
 351 -13 351 -13 368.5 -25 c 128,-1,42
 386 -37 386 -37 402 -54.5 c 128,-1,43
 418 -72 418 -72 418 -99 c 0,44,45
 418 -142 418 -142 386 -166 c 128,-1,46
 354 -190 354 -190 312 -190 c 0,47,48
 295 -190 295 -190 276.5 -185.5 c 128,-1,49
 258 -181 258 -181 240.5 -166.5 c 128,-1,50
 223 -152 223 -152 223 -130 c 0,51,52
 223 -116 223 -116 231 -109 c 128,-1,53
 239 -102 239 -102 248 -102 c 0,54,55
 261 -102 261 -102 283 -112.5 c 128,-1,56
 305 -123 305 -123 314 -123 c 0,57,58
 326 -123 326 -123 333 -121 c 128,-1,59
 340 -119 340 -119 342.5 -113.5 c 128,-1,60
 345 -108 345 -108 345.5 -106 c 128,-1,61
 346 -104 346 -104 346 -98 c 0,62,63
 346 -94 346 -94 329.5 -83 c 128,-1,64
 313 -72 313 -72 295.5 -50 c 128,-1,65
 278 -28 278 -28 277 1 c 1,0,1
EndSplineSet
EndChar

StartChar: eth
Encoding: 240 240 177
Width: 605
GlyphClass: 2
Flags: W
LayerCount: 2
Fore
SplineSet
162 563 m 0,0,1
 121 563 121 563 121 598 c 0,2,3
 121 618 121 618 133.5 627 c 128,-1,4
 146 636 146 636 162 636 c 0,5,6
 236 636 236 636 305 612 c 1,7,-1
 336 640 l 1,8,9
 354 654 354 654 372 654 c 0,10,11
 385 654 385 654 397.5 644.5 c 128,-1,12
 410 635 410 635 410 620 c 0,13,14
 410 604 410 604 393 587 c 1,15,-1
 380 577 l 1,16,17
 550 471 550 471 550 224 c 0,18,19
 550 125 550 125 488 54.5 c 128,-1,20
 426 -16 426 -16 316 -16 c 0,21,22
 194 -16 194 -16 120 47 c 128,-1,23
 46 110 46 110 46 220 c 0,24,25
 46 331 46 331 119.5 393.5 c 128,-1,26
 193 456 193 456 316 456 c 0,27,28
 375 456 375 456 423 435 c 1,29,30
 387 488 387 488 322 524 c 1,31,-1
 272 481 l 1,32,33
 258 467 258 467 240 467 c 0,34,35
 226 467 226 467 212 477 c 128,-1,36
 198 487 198 487 198 502 c 0,37,38
 198 516 198 516 216 534 c 1,39,-1
 240 554 l 1,40,41
 201 563 201 563 162 563 c 0,0,1
478 221 m 0,42,43
 478 290 478 290 438.5 337 c 128,-1,44
 399 384 399 384 316 384 c 0,45,46
 225 384 225 384 171.5 339 c 128,-1,47
 118 294 118 294 118 220 c 0,48,49
 118 147 118 147 170.5 101.5 c 128,-1,50
 223 56 223 56 316 56 c 0,51,52
 397 56 397 56 437.5 107.5 c 128,-1,53
 478 159 478 159 478 221 c 0,42,43
EndSplineSet
EndChar

StartChar: divide
Encoding: 247 247 184
Width: 440
GlyphClass: 2
Flags: W
LayerCount: 2
Fore
SplineSet
341 267 m 2,0,1
 385 267 385 267 385 229 c 0,2,3
 385 213 385 213 372.5 203.5 c 128,-1,4
 360 194 360 194 341 194 c 2,5,-1
 96 194 l 2,6,7
 55 194 55 194 55 231 c 0,8,9
 55 244 55 244 64.5 255.5 c 128,-1,10
 74 267 74 267 96 267 c 2,11,-1
 341 267 l 2,0,1
216 67 m 0,12,13
 194 67 194 67 174.5 81.5 c 128,-1,14
 155 96 155 96 155 118 c 128,-1,15
 155 140 155 140 175.5 154.5 c 128,-1,16
 196 169 196 169 216 169 c 128,-1,17
 236 169 236 169 256.5 154.5 c 128,-1,18
 277 140 277 140 277 118 c 128,-1,19
 277 96 277 96 256.5 81.5 c 128,-1,20
 236 67 236 67 216 67 c 0,12,13
216 292 m 0,21,22
 194 292 194 292 174.5 306.5 c 128,-1,23
 155 321 155 321 155 343 c 128,-1,24
 155 365 155 365 175.5 379.5 c 128,-1,25
 196 394 196 394 216 394 c 128,-1,26
 236 394 236 394 256.5 379.5 c 128,-1,27
 277 365 277 365 277 343 c 128,-1,28
 277 321 277 321 256.5 306.5 c 128,-1,29
 236 292 236 292 216 292 c 0,21,22
EndSplineSet
EndChar

StartChar: oslash
Encoding: 248 248 185
Width: 656
GlyphClass: 2
Flags: W
AnchorPoint: "Anchor-1" 328 0 basechar 0
AnchorPoint: "Anchor-0" 328 510 basechar 0
LayerCount: 2
Fore
SplineSet
314 72 m 2,0,-1
 343 72 l 2,1,2
 454 72 454 72 488.5 90.5 c 128,-1,3
 523 109 523 109 523 181 c 2,4,-1
 523 280 l 2,5,6
 523 314 523 314 516 334 c 1,7,-1
 210 77 l 1,8,9
 242 72 242 72 314 72 c 2,0,-1
553 447 m 0,10,11
 567 447 567 447 577.5 435.5 c 128,-1,12
 588 424 588 424 588 411 c 0,13,14
 588 397 588 397 574 383 c 1,15,16
 595 346 595 346 595 283 c 2,17,-1
 595 178 l 2,18,19
 595 73 595 73 536 36.5 c 128,-1,20
 477 0 477 0 343 0 c 2,21,-1
 314 0 l 2,22,23
 199 0 199 0 145 23 c 1,24,25
 123 3 123 3 107 3 c 0,26,27
 92 3 92 3 82 15 c 128,-1,28
 72 27 72 27 72 39 c 0,29,30
 72 54 72 54 88 69 c 1,31,32
 61 108 61 108 61 178 c 2,33,-1
 61 283 l 2,34,35
 61 388 61 388 120 424.5 c 128,-1,36
 179 461 179 461 314 461 c 2,37,-1
 343 461 l 2,38,39
 469 461 469 461 522 433 c 1,40,41
 538 447 538 447 553 447 c 0,10,11
144 116 m 1,42,-1
 460 381 l 1,43,44
 429 389 429 389 343 389 c 2,45,-1
 314 389 l 2,46,47
 202 389 202 389 167.5 370.5 c 128,-1,48
 133 352 133 352 133 280 c 2,49,-1
 133 181 l 2,50,51
 133 138 133 138 144 116 c 1,42,-1
EndSplineSet
EndChar

StartChar: thorn
Encoding: 254 254 191
Width: 671
GlyphClass: 2
Flags: W
LayerCount: 2
Fore
SplineSet
538 280 m 2,0,1
 538 352 538 352 503.5 370.5 c 128,-1,2
 469 389 469 389 358 389 c 2,3,-1
 329 389 l 2,4,5
 227 389 227 389 187.5 346.5 c 128,-1,6
 148 304 148 304 148 232 c 2,7,-1
 148 72 l 1,8,-1
 361 72 l 2,9,10
 470 72 470 72 504 90.5 c 128,-1,11
 538 109 538 109 538 181 c 2,12,-1
 538 280 l 2,0,1
610 178 m 2,13,14
 610 73 610 73 551.5 36.5 c 128,-1,15
 493 0 493 0 361 0 c 2,16,-1
 148 0 l 1,17,-1
 148 -137 l 2,18,19
 148 -182 148 -182 110 -182 c 0,20,21
 76 -182 76 -182 76 -137 c 2,22,-1
 76 598 l 2,23,24
 76 643 76 643 112 643 c 128,-1,25
 148 643 148 643 148 598 c 2,26,-1
 148 411 l 1,27,28
 210 461 210 461 329 461 c 2,29,-1
 358 461 l 2,30,31
 492 461 492 461 551 424.5 c 128,-1,32
 610 388 610 388 610 283 c 2,33,-1
 610 178 l 2,13,14
EndSplineSet
EndChar

StartChar: Amacron
Encoding: 256 256 193
Width: 610
GlyphClass: 2
Flags: W
LayerCount: 2
Fore
SplineSet
426 780 m 2,0,1
 470 780 470 780 470 742 c 0,2,3
 470 726 470 726 457.5 716.5 c 128,-1,4
 445 707 445 707 426 707 c 2,5,-1
 181 707 l 2,6,7
 140 707 140 707 140 744 c 0,8,9
 140 757 140 757 149.5 768.5 c 128,-1,10
 159 780 159 780 181 780 c 2,11,-1
 426 780 l 2,0,1
346 636 m 1,12,-1
 583 37 l 2,13,14
 586 28 586 28 586 18 c 0,15,16
 586 0 586 0 573.5 -8 c 128,-1,17
 561 -16 561 -16 550 -16 c 0,18,19
 524 -16 524 -16 513 12 c 2,20,-1
 444 189 l 1,21,-1
 166 189 l 1,22,-1
 97 12 l 1,23,24
 85 -16 85 -16 60 -16 c 0,25,26
 49 -16 49 -16 36.5 -8 c 128,-1,27
 24 0 24 0 24 18 c 0,28,29
 24 28 24 28 27 37 c 2,30,-1
 264 636 l 1,31,-1
 346 636 l 1,12,-1
195 261 m 1,32,-1
 415 261 l 1,33,-1
 304 532 l 1,34,-1
 195 261 l 1,32,-1
EndSplineSet
EndChar

StartChar: amacron
Encoding: 257 257 194
Width: 594
GlyphClass: 2
Flags: W
LayerCount: 2
Fore
SplineSet
413 596 m 2,0,1
 457 596 457 596 457 558 c 0,2,3
 457 542 457 542 444.5 532.5 c 128,-1,4
 432 523 432 523 413 523 c 2,5,-1
 168 523 l 2,6,7
 127 523 127 523 127 560 c 0,8,9
 127 573 127 573 136.5 584.5 c 128,-1,10
 146 596 146 596 168 596 c 2,11,-1
 413 596 l 2,0,1
314 305 m 2,12,-1
 451 305 l 1,13,-1
 451 347 l 2,14,15
 451 372 451 372 442 380.5 c 128,-1,16
 433 389 433 389 406 389 c 2,17,-1
 265 389 l 2,18,19
 187 389 187 389 160 380.5 c 128,-1,20
 133 372 133 372 133 350 c 0,21,22
 133 305 133 305 96 305 c 0,23,24
 61 305 61 305 61 350 c 0,25,26
 61 413 61 413 111.5 437 c 128,-1,27
 162 461 162 461 258 461 c 2,28,-1
 413 461 l 2,29,30
 477 461 477 461 500 431 c 128,-1,31
 523 401 523 401 523 331 c 2,32,-1
 523 35 l 2,33,34
 523 -7 523 -7 487 -7 c 128,-1,35
 451 -7 451 -7 451 38 c 2,36,-1
 451 50 l 1,37,38
 391 0 391 0 271 0 c 2,39,-1
 178 0 l 2,40,41
 127 0 127 0 94 35 c 128,-1,42
 61 70 61 70 61 129 c 0,43,44
 61 231 61 231 121.5 268 c 128,-1,45
 182 305 182 305 314 305 c 2,12,-1
451 233 m 1,46,-1
 314 233 l 2,47,48
 202 233 202 233 167.5 214.5 c 128,-1,49
 133 196 133 196 133 124 c 0,50,51
 133 103 133 103 148 87.5 c 128,-1,52
 163 72 163 72 178 72 c 2,53,-1
 271 72 l 2,54,55
 329 72 329 72 368 87 c 128,-1,56
 407 102 407 102 423.5 129 c 128,-1,57
 440 156 440 156 445.5 179 c 128,-1,58
 451 202 451 202 451 233 c 1,46,-1
EndSplineSet
EndChar

StartChar: Abreve
Encoding: 258 258 195
Width: 610
GlyphClass: 2
Flags: W
LayerCount: 2
Fore
SplineSet
435 819 m 1,0,1
 435 753 435 753 392.5 723 c 128,-1,2
 350 693 350 693 305 693 c 0,3,4
 285 693 285 693 264.5 699 c 128,-1,5
 244 705 244 705 223 718.5 c 128,-1,6
 202 732 202 732 188.5 758 c 128,-1,7
 175 784 175 784 175 819 c 1,8,-1
 248 819 l 1,9,10
 248 767 248 767 305 767 c 128,-1,11
 362 767 362 767 362 819 c 1,12,-1
 435 819 l 1,0,1
346 636 m 1,13,-1
 583 37 l 2,14,15
 586 28 586 28 586 18 c 0,16,17
 586 0 586 0 573.5 -8 c 128,-1,18
 561 -16 561 -16 550 -16 c 0,19,20
 524 -16 524 -16 513 12 c 2,21,-1
 444 189 l 1,22,-1
 166 189 l 1,23,-1
 97 12 l 1,24,25
 85 -16 85 -16 60 -16 c 0,26,27
 49 -16 49 -16 36.5 -8 c 128,-1,28
 24 0 24 0 24 18 c 0,29,30
 24 28 24 28 27 37 c 2,31,-1
 264 636 l 1,32,-1
 346 636 l 1,13,-1
195 261 m 1,33,-1
 415 261 l 1,34,-1
 304 532 l 1,35,-1
 195 261 l 1,33,-1
EndSplineSet
EndChar

StartChar: abreve
Encoding: 259 259 196
Width: 594
GlyphClass: 2
Flags: W
LayerCount: 2
Fore
SplineSet
422 648 m 1,0,1
 422 582 422 582 379.5 552 c 128,-1,2
 337 522 337 522 292 522 c 0,3,4
 272 522 272 522 251.5 528 c 128,-1,5
 231 534 231 534 210 547.5 c 128,-1,6
 189 561 189 561 175.5 587 c 128,-1,7
 162 613 162 613 162 648 c 1,8,-1
 235 648 l 1,9,10
 235 596 235 596 292 596 c 128,-1,11
 349 596 349 596 349 648 c 1,12,-1
 422 648 l 1,0,1
314 305 m 2,13,-1
 451 305 l 1,14,-1
 451 347 l 2,15,16
 451 372 451 372 442 380.5 c 128,-1,17
 433 389 433 389 406 389 c 2,18,-1
 265 389 l 2,19,20
 187 389 187 389 160 380.5 c 128,-1,21
 133 372 133 372 133 350 c 0,22,23
 133 305 133 305 96 305 c 0,24,25
 61 305 61 305 61 350 c 0,26,27
 61 413 61 413 111.5 437 c 128,-1,28
 162 461 162 461 258 461 c 2,29,-1
 413 461 l 2,30,31
 477 461 477 461 500 431 c 128,-1,32
 523 401 523 401 523 331 c 2,33,-1
 523 35 l 2,34,35
 523 -7 523 -7 487 -7 c 128,-1,36
 451 -7 451 -7 451 38 c 2,37,-1
 451 50 l 1,38,39
 391 0 391 0 271 0 c 2,40,-1
 178 0 l 2,41,42
 127 0 127 0 94 35 c 128,-1,43
 61 70 61 70 61 129 c 0,44,45
 61 231 61 231 121.5 268 c 128,-1,46
 182 305 182 305 314 305 c 2,13,-1
451 233 m 1,47,-1
 314 233 l 2,48,49
 202 233 202 233 167.5 214.5 c 128,-1,50
 133 196 133 196 133 124 c 0,51,52
 133 103 133 103 148 87.5 c 128,-1,53
 163 72 163 72 178 72 c 2,54,-1
 271 72 l 2,55,56
 329 72 329 72 368 87 c 128,-1,57
 407 102 407 102 423.5 129 c 128,-1,58
 440 156 440 156 445.5 179 c 128,-1,59
 451 202 451 202 451 233 c 1,47,-1
EndSplineSet
EndChar

StartChar: Aogonek
Encoding: 260 260 197
Width: 609
GlyphClass: 2
Flags: W
LayerCount: 2
Fore
SplineSet
195 261 m 1,0,-1
 415 261 l 1,1,-1
 304 532 l 1,2,-1
 195 261 l 1,0,-1
504 -91 m 0,3,4
 504 -135 504 -135 536 -135 c 0,5,6
 550 -135 550 -135 572.5 -126.5 c 128,-1,7
 595 -118 595 -118 602 -118 c 0,8,9
 627 -118 627 -118 627 -145 c 0,10,11
 627 -167 627 -167 609.5 -181.5 c 128,-1,12
 592 -196 592 -196 573 -200.5 c 128,-1,13
 554 -205 554 -205 538 -205 c 0,14,15
 492 -205 492 -205 462 -173.5 c 128,-1,16
 432 -142 432 -142 432 -91 c 0,17,18
 432 -46 432 -46 505 33 c 1,19,-1
 444 189 l 1,20,-1
 166 189 l 1,21,-1
 97 12 l 1,22,23
 85 -16 85 -16 60 -16 c 0,24,25
 49 -16 49 -16 36.5 -8 c 128,-1,26
 24 0 24 0 24 18 c 0,27,28
 24 28 24 28 27 37 c 2,29,-1
 268 646 l 1,30,-1
 342 646 l 1,31,-1
 583 37 l 2,32,33
 586 28 586 28 586 18 c 0,34,35
 586 2 586 2 576 -6.5 c 128,-1,36
 566 -15 566 -15 554 -16 c 1,37,38
 536 -31 536 -31 524 -49 c 128,-1,39
 512 -67 512 -67 508 -77 c 128,-1,40
 504 -87 504 -87 504 -91 c 0,3,4
EndSplineSet
EndChar

StartChar: aogonek
Encoding: 261 261 198
Width: 594
GlyphClass: 2
Flags: W
LayerCount: 2
Fore
SplineSet
510 0 m 1,0,1
 486 -15 486 -15 468 -36.5 c 128,-1,2
 450 -58 450 -58 444 -72 c 128,-1,3
 438 -86 438 -86 438 -91 c 0,4,5
 438 -135 438 -135 470 -135 c 0,6,7
 484 -135 484 -135 506.5 -126.5 c 128,-1,8
 529 -118 529 -118 536 -118 c 0,9,10
 561 -118 561 -118 561 -145 c 0,11,12
 561 -167 561 -167 543.5 -181.5 c 128,-1,13
 526 -196 526 -196 507.5 -200.5 c 128,-1,14
 489 -205 489 -205 472 -205 c 0,15,16
 426 -205 426 -205 396 -173.5 c 128,-1,17
 366 -142 366 -142 366 -91 c 128,-1,18
 366 -40 366 -40 451 46 c 1,19,-1
 451 50 l 1,20,21
 391 0 391 0 271 0 c 2,22,-1
 178 0 l 2,23,24
 127 0 127 0 94 35 c 128,-1,25
 61 70 61 70 61 129 c 0,26,27
 61 231 61 231 121.5 268 c 128,-1,28
 182 305 182 305 314 305 c 2,29,-1
 451 305 l 1,30,-1
 451 347 l 2,31,32
 451 372 451 372 442 380.5 c 128,-1,33
 433 389 433 389 406 389 c 2,34,-1
 265 389 l 2,35,36
 187 389 187 389 160 380.5 c 128,-1,37
 133 372 133 372 133 350 c 0,38,39
 133 305 133 305 96 305 c 0,40,41
 61 305 61 305 61 350 c 0,42,43
 61 413 61 413 111.5 437 c 128,-1,44
 162 461 162 461 258 461 c 2,45,-1
 413 461 l 2,46,47
 477 461 477 461 500 431 c 128,-1,48
 523 401 523 401 523 331 c 2,49,-1
 523 35 l 2,50,51
 523 11 523 11 510 0 c 1,0,1
451 233 m 1,52,-1
 314 233 l 2,53,54
 202 233 202 233 167.5 214.5 c 128,-1,55
 133 196 133 196 133 124 c 0,56,57
 133 103 133 103 148 87.5 c 128,-1,58
 163 72 163 72 178 72 c 2,59,-1
 271 72 l 2,60,61
 329 72 329 72 368 87 c 128,-1,62
 407 102 407 102 423.5 129 c 128,-1,63
 440 156 440 156 445.5 179 c 128,-1,64
 451 202 451 202 451 233 c 1,52,-1
EndSplineSet
EndChar

StartChar: Cacute
Encoding: 262 262 199
Width: 631
GlyphClass: 2
Flags: W
LayerCount: 2
Fore
SplineSet
465 0 m 2,0,-1
 324 0 l 2,1,2
 189 0 189 0 130 37.5 c 128,-1,3
 71 75 71 75 71 184 c 2,4,-1
 71 452 l 2,5,6
 71 561 71 561 128 598.5 c 128,-1,7
 185 636 185 636 306 636 c 2,8,-1
 465 636 l 2,9,10
 530 636 530 636 552.5 602.5 c 128,-1,11
 575 569 575 569 575 514 c 0,12,13
 575 469 575 469 539 469 c 0,14,15
 525 469 525 469 514 479 c 128,-1,16
 503 489 503 489 503 512 c 0,17,18
 503 542 503 542 494 553 c 128,-1,19
 485 564 485 564 458 564 c 2,20,-1
 306 564 l 2,21,22
 209 564 209 564 176 544 c 128,-1,23
 143 524 143 524 143 450 c 2,24,-1
 143 186 l 2,25,26
 143 111 143 111 178 91.5 c 128,-1,27
 213 72 213 72 324 72 c 2,28,-1
 458 72 l 2,29,30
 485 72 485 72 494 83 c 128,-1,31
 503 94 503 94 503 124 c 0,32,33
 503 147 503 147 514 157 c 128,-1,34
 525 167 525 167 539 167 c 0,35,36
 575 167 575 167 575 121 c 0,37,38
 575 66 575 66 552.5 33 c 128,-1,39
 530 0 530 0 465 0 c 2,0,-1
377 819 m 0,40,41
 390 819 390 819 401.5 808 c 128,-1,42
 413 797 413 797 413 784 c 0,43,44
 413 770 413 770 398 753 c 1,45,-1
 329 685 l 1,46,47
 314 668 314 668 296 668 c 0,48,49
 281 668 281 668 271 679 c 128,-1,50
 261 690 261 690 261 702 c 0,51,52
 261 717 261 717 275 733 c 1,53,-1
 345 803 l 2,54,55
 362 819 362 819 377 819 c 0,40,41
EndSplineSet
EndChar

StartChar: cacute
Encoding: 263 263 200
Width: 624
GlyphClass: 2
Flags: W
LayerCount: 2
Fore
SplineSet
455 0 m 2,0,-1
 314 0 l 2,1,2
 179 0 179 0 120 36.5 c 128,-1,3
 61 73 61 73 61 178 c 2,4,-1
 61 283 l 2,5,6
 61 388 61 388 120 424.5 c 128,-1,7
 179 461 179 461 314 461 c 2,8,-1
 455 461 l 2,9,10
 520 461 520 461 542.5 427.5 c 128,-1,11
 565 394 565 394 565 339 c 0,12,13
 565 294 565 294 529 294 c 0,14,15
 515 294 515 294 504 304 c 128,-1,16
 493 314 493 314 493 337 c 0,17,18
 493 367 493 367 484 378 c 128,-1,19
 475 389 475 389 448 389 c 2,20,-1
 314 389 l 2,21,22
 202 389 202 389 167.5 370.5 c 128,-1,23
 133 352 133 352 133 280 c 2,24,-1
 133 181 l 2,25,26
 133 109 133 109 167.5 90.5 c 128,-1,27
 202 72 202 72 314 72 c 2,28,-1
 448 72 l 2,29,30
 475 72 475 72 484 83 c 128,-1,31
 493 94 493 94 493 124 c 0,32,33
 493 147 493 147 504 157 c 128,-1,34
 515 167 515 167 529 167 c 0,35,36
 565 167 565 167 565 121 c 0,37,38
 565 66 565 66 542.5 33 c 128,-1,39
 520 0 520 0 455 0 c 2,0,-1
282 495 m 0,40,41
 270 495 270 495 258.5 505 c 128,-1,42
 247 515 247 515 247 530 c 0,43,44
 247 544 247 544 258 559 c 1,45,-1
 354 674 l 2,46,47
 371 693 371 693 387 693 c 0,48,49
 401 693 401 693 411.5 683 c 128,-1,50
 422 673 422 673 422 657 c 128,-1,51
 422 641 422 641 411 629 c 2,52,-1
 315 514 l 2,53,54
 298 495 298 495 282 495 c 0,40,41
EndSplineSet
EndChar

StartChar: Ccircumflex
Encoding: 264 264 201
Width: 631
GlyphClass: 2
Flags: W
LayerCount: 2
Fore
SplineSet
176 705 m 1,0,-1
 285 821 l 1,1,-1
 352 821 l 1,2,-1
 463 705 l 1,3,4
 471 695 471 695 471 681 c 0,5,6
 471 653 471 653 438 653 c 0,7,8
 431 653 431 653 425 655 c 128,-1,9
 419 657 419 657 416.5 659 c 128,-1,10
 414 661 414 661 408 666 c 2,11,-1
 403 671 l 1,12,-1
 319 740 l 1,13,-1
 236 671 l 2,14,15
 234 670 234 670 230 666 c 128,-1,16
 226 662 226 662 223 659.5 c 128,-1,17
 220 657 220 657 214 655 c 128,-1,18
 208 653 208 653 201 653 c 0,19,20
 168 653 168 653 168 681 c 0,21,22
 168 695 168 695 176 705 c 1,0,-1
465 0 m 2,23,-1
 324 0 l 2,24,25
 189 0 189 0 130 37.5 c 128,-1,26
 71 75 71 75 71 184 c 2,27,-1
 71 452 l 2,28,29
 71 561 71 561 128 598.5 c 128,-1,30
 185 636 185 636 306 636 c 2,31,-1
 465 636 l 2,32,33
 530 636 530 636 552.5 602.5 c 128,-1,34
 575 569 575 569 575 514 c 0,35,36
 575 469 575 469 539 469 c 0,37,38
 525 469 525 469 514 479 c 128,-1,39
 503 489 503 489 503 512 c 0,40,41
 503 542 503 542 494 553 c 128,-1,42
 485 564 485 564 458 564 c 2,43,-1
 306 564 l 2,44,45
 209 564 209 564 176 544 c 128,-1,46
 143 524 143 524 143 450 c 2,47,-1
 143 186 l 2,48,49
 143 111 143 111 178 91.5 c 128,-1,50
 213 72 213 72 324 72 c 2,51,-1
 458 72 l 2,52,53
 485 72 485 72 494 83 c 128,-1,54
 503 94 503 94 503 124 c 0,55,56
 503 147 503 147 514 157 c 128,-1,57
 525 167 525 167 539 167 c 0,58,59
 575 167 575 167 575 121 c 0,60,61
 575 66 575 66 552.5 33 c 128,-1,62
 530 0 530 0 465 0 c 2,23,-1
EndSplineSet
EndChar

StartChar: ccircumflex
Encoding: 265 265 202
Width: 624
GlyphClass: 2
Flags: W
LayerCount: 2
Fore
SplineSet
455 0 m 2,0,-1
 314 0 l 2,1,2
 179 0 179 0 120 36.5 c 128,-1,3
 61 73 61 73 61 178 c 2,4,-1
 61 283 l 2,5,6
 61 388 61 388 120 424.5 c 128,-1,7
 179 461 179 461 314 461 c 2,8,-1
 455 461 l 2,9,10
 520 461 520 461 542.5 427.5 c 128,-1,11
 565 394 565 394 565 339 c 0,12,13
 565 294 565 294 529 294 c 0,14,15
 515 294 515 294 504 304 c 128,-1,16
 493 314 493 314 493 337 c 0,17,18
 493 367 493 367 484 378 c 128,-1,19
 475 389 475 389 448 389 c 2,20,-1
 314 389 l 2,21,22
 202 389 202 389 167.5 370.5 c 128,-1,23
 133 352 133 352 133 280 c 2,24,-1
 133 181 l 2,25,26
 133 109 133 109 167.5 90.5 c 128,-1,27
 202 72 202 72 314 72 c 2,28,-1
 448 72 l 2,29,30
 475 72 475 72 484 83 c 128,-1,31
 493 94 493 94 493 124 c 0,32,33
 493 147 493 147 504 157 c 128,-1,34
 515 167 515 167 529 167 c 0,35,36
 565 167 565 167 565 121 c 0,37,38
 565 66 565 66 542.5 33 c 128,-1,39
 520 0 520 0 455 0 c 2,0,-1
170 574 m 1,40,-1
 279 690 l 1,41,-1
 346 690 l 1,42,-1
 457 574 l 1,43,44
 465 564 465 564 465 550 c 0,45,46
 465 522 465 522 432 522 c 0,47,48
 425 522 425 522 419 524 c 128,-1,49
 413 526 413 526 410.5 528 c 128,-1,50
 408 530 408 530 402 535 c 2,51,-1
 397 540 l 1,52,-1
 313 609 l 1,53,-1
 230 540 l 2,54,55
 228 539 228 539 224 535 c 128,-1,56
 220 531 220 531 217 528.5 c 128,-1,57
 214 526 214 526 208 524 c 128,-1,58
 202 522 202 522 195 522 c 0,59,60
 162 522 162 522 162 550 c 0,61,62
 162 564 162 564 170 574 c 1,40,-1
EndSplineSet
EndChar

StartChar: Cdotaccent
Encoding: 266 266 203
Width: 631
GlyphClass: 2
Flags: W
LayerCount: 2
Fore
SplineSet
465 0 m 2,0,-1
 324 0 l 2,1,2
 189 0 189 0 130 37.5 c 128,-1,3
 71 75 71 75 71 184 c 2,4,-1
 71 452 l 2,5,6
 71 561 71 561 128 598.5 c 128,-1,7
 185 636 185 636 306 636 c 2,8,-1
 465 636 l 2,9,10
 530 636 530 636 552.5 602.5 c 128,-1,11
 575 569 575 569 575 514 c 0,12,13
 575 469 575 469 539 469 c 0,14,15
 525 469 525 469 514 479 c 128,-1,16
 503 489 503 489 503 512 c 0,17,18
 503 542 503 542 494 553 c 128,-1,19
 485 564 485 564 458 564 c 2,20,-1
 306 564 l 2,21,22
 209 564 209 564 176 544 c 128,-1,23
 143 524 143 524 143 450 c 2,24,-1
 143 186 l 2,25,26
 143 111 143 111 178 91.5 c 128,-1,27
 213 72 213 72 324 72 c 2,28,-1
 458 72 l 2,29,30
 485 72 485 72 494 83 c 128,-1,31
 503 94 503 94 503 124 c 0,32,33
 503 147 503 147 514 157 c 128,-1,34
 525 167 525 167 539 167 c 0,35,36
 575 167 575 167 575 121 c 0,37,38
 575 66 575 66 552.5 33 c 128,-1,39
 530 0 530 0 465 0 c 2,0,-1
324 691 m 0,40,41
 302 691 302 691 282.5 705.5 c 128,-1,42
 263 720 263 720 263 742 c 128,-1,43
 263 764 263 764 283.5 778.5 c 128,-1,44
 304 793 304 793 324 793 c 128,-1,45
 344 793 344 793 364.5 778.5 c 128,-1,46
 385 764 385 764 385 742 c 128,-1,47
 385 720 385 720 364.5 705.5 c 128,-1,48
 344 691 344 691 324 691 c 0,40,41
EndSplineSet
EndChar

StartChar: cdotaccent
Encoding: 267 267 204
Width: 624
GlyphClass: 2
Flags: W
LayerCount: 2
Fore
SplineSet
455 0 m 2,0,-1
 314 0 l 2,1,2
 179 0 179 0 120 36.5 c 128,-1,3
 61 73 61 73 61 178 c 2,4,-1
 61 283 l 2,5,6
 61 388 61 388 120 424.5 c 128,-1,7
 179 461 179 461 314 461 c 2,8,-1
 455 461 l 2,9,10
 520 461 520 461 542.5 427.5 c 128,-1,11
 565 394 565 394 565 339 c 0,12,13
 565 294 565 294 529 294 c 0,14,15
 515 294 515 294 504 304 c 128,-1,16
 493 314 493 314 493 337 c 0,17,18
 493 367 493 367 484 378 c 128,-1,19
 475 389 475 389 448 389 c 2,20,-1
 314 389 l 2,21,22
 202 389 202 389 167.5 370.5 c 128,-1,23
 133 352 133 352 133 280 c 2,24,-1
 133 181 l 2,25,26
 133 109 133 109 167.5 90.5 c 128,-1,27
 202 72 202 72 314 72 c 2,28,-1
 448 72 l 2,29,30
 475 72 475 72 484 83 c 128,-1,31
 493 94 493 94 493 124 c 0,32,33
 493 147 493 147 504 157 c 128,-1,34
 515 167 515 167 529 167 c 0,35,36
 565 167 565 167 565 121 c 0,37,38
 565 66 565 66 542.5 33 c 128,-1,39
 520 0 520 0 455 0 c 2,0,-1
322 507 m 0,40,41
 300 507 300 507 280.5 521.5 c 128,-1,42
 261 536 261 536 261 558 c 128,-1,43
 261 580 261 580 281.5 594.5 c 128,-1,44
 302 609 302 609 322 609 c 128,-1,45
 342 609 342 609 362.5 594.5 c 128,-1,46
 383 580 383 580 383 558 c 128,-1,47
 383 536 383 536 362.5 521.5 c 128,-1,48
 342 507 342 507 322 507 c 0,40,41
EndSplineSet
EndChar

StartChar: Ccaron
Encoding: 268 268 205
Width: 631
GlyphClass: 2
Flags: W
LayerCount: 2
Fore
SplineSet
465 0 m 2,0,-1
 324 0 l 2,1,2
 189 0 189 0 130 37.5 c 128,-1,3
 71 75 71 75 71 184 c 2,4,-1
 71 452 l 2,5,6
 71 561 71 561 128 598.5 c 128,-1,7
 185 636 185 636 306 636 c 2,8,-1
 465 636 l 2,9,10
 530 636 530 636 552.5 602.5 c 128,-1,11
 575 569 575 569 575 514 c 0,12,13
 575 469 575 469 539 469 c 0,14,15
 525 469 525 469 514 479 c 128,-1,16
 503 489 503 489 503 512 c 0,17,18
 503 542 503 542 494 553 c 128,-1,19
 485 564 485 564 458 564 c 2,20,-1
 306 564 l 2,21,22
 209 564 209 564 176 544 c 128,-1,23
 143 524 143 524 143 450 c 2,24,-1
 143 186 l 2,25,26
 143 111 143 111 178 91.5 c 128,-1,27
 213 72 213 72 324 72 c 2,28,-1
 458 72 l 2,29,30
 485 72 485 72 494 83 c 128,-1,31
 503 94 503 94 503 124 c 0,32,33
 503 147 503 147 514 157 c 128,-1,34
 525 167 525 167 539 167 c 0,35,36
 575 167 575 167 575 121 c 0,37,38
 575 66 575 66 552.5 33 c 128,-1,39
 530 0 530 0 465 0 c 2,0,-1
353 655 m 1,40,-1
 289 655 l 1,41,-1
 181 768 l 2,42,43
 172 777 172 777 172 789 c 0,44,45
 172 799 172 799 180 809 c 128,-1,46
 188 819 188 819 205 819 c 0,47,48
 221 819 221 819 243 800 c 2,49,-1
 321 735 l 1,50,-1
 399 800 l 2,51,52
 421 819 421 819 437 819 c 0,53,54
 454 819 454 819 462 809 c 128,-1,55
 470 799 470 799 470 789 c 0,56,57
 470 777 470 777 461 768 c 2,58,-1
 353 655 l 1,40,-1
EndSplineSet
EndChar

StartChar: ccaron
Encoding: 269 269 206
Width: 624
GlyphClass: 2
Flags: W
LayerCount: 2
Fore
SplineSet
353 507 m 1,0,-1
 289 507 l 1,1,-1
 181 620 l 2,2,3
 172 629 172 629 172 641 c 0,4,5
 172 651 172 651 180 661 c 128,-1,6
 188 671 188 671 205 671 c 0,7,8
 221 671 221 671 243 652 c 2,9,-1
 321 587 l 1,10,-1
 399 652 l 2,11,12
 421 671 421 671 437 671 c 0,13,14
 454 671 454 671 462 661 c 128,-1,15
 470 651 470 651 470 641 c 0,16,17
 470 629 470 629 461 620 c 2,18,-1
 353 507 l 1,0,-1
455 0 m 2,19,-1
 314 0 l 2,20,21
 179 0 179 0 120 36.5 c 128,-1,22
 61 73 61 73 61 178 c 2,23,-1
 61 283 l 2,24,25
 61 388 61 388 120 424.5 c 128,-1,26
 179 461 179 461 314 461 c 2,27,-1
 455 461 l 2,28,29
 520 461 520 461 542.5 427.5 c 128,-1,30
 565 394 565 394 565 339 c 0,31,32
 565 294 565 294 529 294 c 0,33,34
 515 294 515 294 504 304 c 128,-1,35
 493 314 493 314 493 337 c 0,36,37
 493 367 493 367 484 378 c 128,-1,38
 475 389 475 389 448 389 c 2,39,-1
 314 389 l 2,40,41
 202 389 202 389 167.5 370.5 c 128,-1,42
 133 352 133 352 133 280 c 2,43,-1
 133 181 l 2,44,45
 133 109 133 109 167.5 90.5 c 128,-1,46
 202 72 202 72 314 72 c 2,47,-1
 448 72 l 2,48,49
 475 72 475 72 484 83 c 128,-1,50
 493 94 493 94 493 124 c 0,51,52
 493 147 493 147 504 157 c 128,-1,53
 515 167 515 167 529 167 c 0,54,55
 565 167 565 167 565 121 c 0,56,57
 565 66 565 66 542.5 33 c 128,-1,58
 520 0 520 0 455 0 c 2,19,-1
EndSplineSet
EndChar

StartChar: Dcaron
Encoding: 270 270 207
Width: 659
GlyphClass: 2
Flags: W
LayerCount: 2
Fore
SplineSet
588 452 m 2,0,-1
 588 184 l 2,1,2
 588 75 588 75 529 37.5 c 128,-1,3
 470 0 470 0 336 0 c 2,4,-1
 118 0 l 2,5,6
 84 0 84 0 84 44 c 2,7,-1
 84 592 l 2,8,9
 84 636 84 636 118 636 c 2,10,-1
 354 636 l 2,11,12
 475 636 475 636 531.5 598 c 128,-1,13
 588 560 588 560 588 452 c 2,0,-1
516 186 m 2,14,-1
 516 450 l 2,15,16
 516 524 516 524 483.5 544 c 128,-1,17
 451 564 451 564 354 564 c 2,18,-1
 156 564 l 1,19,-1
 156 72 l 1,20,-1
 336 72 l 2,21,22
 447 72 447 72 481.5 91.5 c 128,-1,23
 516 111 516 111 516 186 c 2,14,-1
344 655 m 1,24,-1
 280 655 l 1,25,-1
 172 768 l 2,26,27
 163 777 163 777 163 789 c 0,28,29
 163 799 163 799 171 809 c 128,-1,30
 179 819 179 819 196 819 c 0,31,32
 212 819 212 819 234 800 c 2,33,-1
 312 735 l 1,34,-1
 390 800 l 2,35,36
 412 819 412 819 428 819 c 0,37,38
 445 819 445 819 453 809 c 128,-1,39
 461 799 461 799 461 789 c 0,40,41
 461 777 461 777 452 768 c 2,42,-1
 344 655 l 1,24,-1
EndSplineSet
EndChar

StartChar: dcaron
Encoding: 271 271 208
Width: 670
GlyphClass: 2
Flags: W
LayerCount: 2
Fore
SplineSet
133 181 m 2,0,1
 133 109 133 109 167.5 90.5 c 128,-1,2
 202 72 202 72 313 72 c 2,3,-1
 342 72 l 2,4,5
 444 72 444 72 483.5 114.5 c 128,-1,6
 523 157 523 157 523 229 c 2,7,-1
 523 389 l 1,8,-1
 305 389 l 2,9,10
 200 389 200 389 166.5 370.5 c 128,-1,11
 133 352 133 352 133 280 c 2,12,-1
 133 181 l 2,0,1
61 283 m 2,13,14
 61 388 61 388 119 424.5 c 128,-1,15
 177 461 177 461 305 461 c 2,16,-1
 523 461 l 1,17,-1
 523 598 l 2,18,19
 523 643 523 643 561 643 c 0,20,21
 595 643 595 643 595 598 c 2,22,-1
 595 35 l 2,23,24
 595 -7 595 -7 559 -7 c 128,-1,25
 523 -7 523 -7 523 38 c 2,26,-1
 523 50 l 1,27,28
 461 0 461 0 342 0 c 2,29,-1
 313 0 l 2,30,31
 179 0 179 0 120 36.5 c 128,-1,32
 61 73 61 73 61 178 c 2,33,-1
 61 283 l 2,13,14
688 517 m 1,34,35
 675 487 675 487 654 487 c 0,36,37
 622 487 622 487 622 522 c 1,38,-1
 625 540 l 1,39,-1
 649 627 l 2,40,41
 658 658 658 658 684 658 c 0,42,43
 691 658 691 658 701.5 656 c 128,-1,44
 712 654 712 654 723.5 645.5 c 128,-1,45
 735 637 735 637 735 623 c 0,46,47
 735 614 735 614 728 600 c 2,48,-1
 688 517 l 1,34,35
EndSplineSet
EndChar

StartChar: Dcroat
Encoding: 272 272 209
Width: 659
GlyphClass: 2
Flags: W
LayerCount: 2
Fore
SplineSet
516 186 m 2,0,-1
 516 460 l 2,1,2
 516 534 516 534 483.5 554 c 128,-1,3
 451 574 451 574 354 574 c 2,4,-1
 156 574 l 1,5,-1
 156 361 l 1,6,-1
 240 361 l 2,7,8
 284 361 284 361 284 324 c 0,9,10
 284 308 284 308 272 298 c 128,-1,11
 260 288 260 288 240 288 c 2,12,-1
 156 288 l 1,13,-1
 156 72 l 1,14,-1
 336 72 l 2,15,16
 447 72 447 72 481.5 91.5 c 128,-1,17
 516 111 516 111 516 186 c 2,0,-1
588 462 m 2,18,-1
 588 184 l 2,19,20
 588 75 588 75 529 37.5 c 128,-1,21
 470 0 470 0 336 0 c 2,22,-1
 118 0 l 2,23,24
 84 0 84 0 84 44 c 2,25,-1
 84 288 l 1,26,27
 42 288 42 288 42 326 c 0,28,29
 42 340 42 340 51.5 350.5 c 128,-1,30
 61 361 61 361 84 361 c 1,31,-1
 84 602 l 2,32,33
 84 646 84 646 118 646 c 2,34,-1
 354 646 l 2,35,36
 475 646 475 646 531.5 608 c 128,-1,37
 588 570 588 570 588 462 c 2,18,-1
EndSplineSet
EndChar

StartChar: dcroat
Encoding: 273 273 210
Width: 670
GlyphClass: 2
Flags: W
LayerCount: 2
Fore
SplineSet
61 283 m 2,0,1
 61 388 61 388 119 424.5 c 128,-1,2
 177 461 177 461 305 461 c 2,3,-1
 523 461 l 1,4,-1
 523 502 l 1,5,-1
 357 502 l 2,6,7
 316 502 316 502 316 539 c 0,8,9
 316 552 316 552 325.5 563.5 c 128,-1,10
 335 575 335 575 357 575 c 2,11,-1
 523 575 l 1,12,-1
 523 598 l 2,13,14
 523 643 523 643 561 643 c 0,15,16
 595 643 595 643 595 598 c 2,17,-1
 595 575 l 1,18,-1
 602 575 l 2,19,20
 646 575 646 575 646 537 c 0,21,22
 646 521 646 521 633.5 511.5 c 128,-1,23
 621 502 621 502 602 502 c 2,24,-1
 595 502 l 1,25,-1
 595 35 l 2,26,27
 595 -7 595 -7 559 -7 c 128,-1,28
 523 -7 523 -7 523 38 c 2,29,-1
 523 50 l 1,30,31
 461 0 461 0 342 0 c 2,32,-1
 313 0 l 2,33,34
 179 0 179 0 120 36.5 c 128,-1,35
 61 73 61 73 61 178 c 2,36,-1
 61 283 l 2,0,1
133 181 m 2,37,38
 133 109 133 109 167.5 90.5 c 128,-1,39
 202 72 202 72 313 72 c 2,40,-1
 342 72 l 2,41,42
 444 72 444 72 483.5 114.5 c 128,-1,43
 523 157 523 157 523 229 c 2,44,-1
 523 389 l 1,45,-1
 305 389 l 2,46,47
 200 389 200 389 166.5 370.5 c 128,-1,48
 133 352 133 352 133 280 c 2,49,-1
 133 181 l 2,37,38
EndSplineSet
EndChar

StartChar: Emacron
Encoding: 274 274 211
Width: 636
GlyphClass: 2
Flags: W
LayerCount: 2
Fore
SplineSet
452 779 m 2,0,1
 496 779 496 779 496 741 c 0,2,3
 496 725 496 725 483.5 715.5 c 128,-1,4
 471 706 471 706 452 706 c 2,5,-1
 207 706 l 2,6,7
 166 706 166 706 166 743 c 0,8,9
 166 756 166 756 175.5 767.5 c 128,-1,10
 185 779 185 779 207 779 c 2,11,-1
 452 779 l 2,0,1
156 322 m 1,12,-1
 156 72 l 1,13,-1
 544 72 l 2,14,15
 588 72 588 72 588 34 c 0,16,17
 588 0 588 0 544 0 c 2,18,-1
 118 0 l 2,19,20
 84 0 84 0 84 44 c 2,21,-1
 84 592 l 2,22,23
 84 636 84 636 118 636 c 2,24,-1
 544 636 l 2,25,26
 588 636 588 636 588 598 c 0,27,28
 588 564 588 564 544 564 c 2,29,-1
 156 564 l 1,30,-1
 156 394 l 1,31,-1
 421 394 l 2,32,33
 471 394 471 394 471 356 c 0,34,35
 471 322 471 322 421 322 c 2,36,-1
 156 322 l 1,12,-1
EndSplineSet
EndChar

StartChar: emacron
Encoding: 275 275 212
Width: 651
GlyphClass: 2
Flags: W
LayerCount: 2
Fore
SplineSet
450 595 m 2,0,1
 494 595 494 595 494 557 c 0,2,3
 494 541 494 541 481.5 531.5 c 128,-1,4
 469 522 469 522 450 522 c 2,5,-1
 205 522 l 2,6,7
 164 522 164 522 164 559 c 0,8,9
 164 572 164 572 173.5 583.5 c 128,-1,10
 183 595 183 595 205 595 c 2,11,-1
 450 595 l 2,0,1
595 283 m 2,12,-1
 595 235 l 1,13,-1
 133 235 l 1,14,-1
 133 181 l 2,15,16
 133 109 133 109 167.5 90.5 c 128,-1,17
 202 72 202 72 314 72 c 2,18,-1
 468 72 l 2,19,20
 495 72 495 72 504 83 c 128,-1,21
 513 94 513 94 513 124 c 0,22,23
 513 147 513 147 524 157 c 128,-1,24
 535 167 535 167 549 167 c 0,25,26
 585 167 585 167 585 121 c 0,27,28
 585 66 585 66 562.5 33 c 128,-1,29
 540 0 540 0 475 0 c 2,30,-1
 314 0 l 2,31,32
 179 0 179 0 120 36.5 c 128,-1,33
 61 73 61 73 61 178 c 2,34,-1
 61 283 l 2,35,36
 61 388 61 388 120 424.5 c 128,-1,37
 179 461 179 461 314 461 c 2,38,-1
 343 461 l 2,39,40
 477 461 477 461 536 424.5 c 128,-1,41
 595 388 595 388 595 283 c 2,12,-1
343 389 m 2,42,-1
 314 389 l 2,43,44
 206 389 206 389 171 374 c 128,-1,45
 136 359 136 359 133 307 c 1,46,-1
 523 307 l 1,47,48
 519 360 519 360 483 374.5 c 128,-1,49
 447 389 447 389 343 389 c 2,42,-1
EndSplineSet
EndChar

StartChar: Edotaccent
Encoding: 278 278 213
Width: 636
GlyphClass: 2
Flags: W
LayerCount: 2
Fore
SplineSet
331 706 m 0,0,1
 309 706 309 706 289.5 720.5 c 128,-1,2
 270 735 270 735 270 757 c 128,-1,3
 270 779 270 779 290.5 793.5 c 128,-1,4
 311 808 311 808 331 808 c 128,-1,5
 351 808 351 808 371.5 793.5 c 128,-1,6
 392 779 392 779 392 757 c 128,-1,7
 392 735 392 735 371.5 720.5 c 128,-1,8
 351 706 351 706 331 706 c 0,0,1
156 322 m 1,9,-1
 156 72 l 1,10,-1
 544 72 l 2,11,12
 588 72 588 72 588 34 c 0,13,14
 588 0 588 0 544 0 c 2,15,-1
 118 0 l 2,16,17
 84 0 84 0 84 44 c 2,18,-1
 84 592 l 2,19,20
 84 636 84 636 118 636 c 2,21,-1
 544 636 l 2,22,23
 588 636 588 636 588 598 c 0,24,25
 588 564 588 564 544 564 c 2,26,-1
 156 564 l 1,27,-1
 156 394 l 1,28,-1
 421 394 l 2,29,30
 471 394 471 394 471 356 c 0,31,32
 471 322 471 322 421 322 c 2,33,-1
 156 322 l 1,9,-1
EndSplineSet
EndChar

StartChar: edotaccent
Encoding: 279 279 214
Width: 651
GlyphClass: 2
Flags: W
LayerCount: 2
Fore
SplineSet
329 522 m 0,0,1
 307 522 307 522 287.5 536.5 c 128,-1,2
 268 551 268 551 268 573 c 128,-1,3
 268 595 268 595 288.5 609.5 c 128,-1,4
 309 624 309 624 329 624 c 128,-1,5
 349 624 349 624 369.5 609.5 c 128,-1,6
 390 595 390 595 390 573 c 128,-1,7
 390 551 390 551 369.5 536.5 c 128,-1,8
 349 522 349 522 329 522 c 0,0,1
595 283 m 2,9,-1
 595 235 l 1,10,-1
 133 235 l 1,11,-1
 133 181 l 2,12,13
 133 109 133 109 167.5 90.5 c 128,-1,14
 202 72 202 72 314 72 c 2,15,-1
 468 72 l 2,16,17
 495 72 495 72 504 83 c 128,-1,18
 513 94 513 94 513 124 c 0,19,20
 513 147 513 147 524 157 c 128,-1,21
 535 167 535 167 549 167 c 0,22,23
 585 167 585 167 585 121 c 0,24,25
 585 66 585 66 562.5 33 c 128,-1,26
 540 0 540 0 475 0 c 2,27,-1
 314 0 l 2,28,29
 179 0 179 0 120 36.5 c 128,-1,30
 61 73 61 73 61 178 c 2,31,-1
 61 283 l 2,32,33
 61 388 61 388 120 424.5 c 128,-1,34
 179 461 179 461 314 461 c 2,35,-1
 343 461 l 2,36,37
 477 461 477 461 536 424.5 c 128,-1,38
 595 388 595 388 595 283 c 2,9,-1
343 389 m 2,39,-1
 314 389 l 2,40,41
 206 389 206 389 171 374 c 128,-1,42
 136 359 136 359 133 307 c 1,43,-1
 523 307 l 1,44,45
 519 360 519 360 483 374.5 c 128,-1,46
 447 389 447 389 343 389 c 2,39,-1
EndSplineSet
EndChar

StartChar: Eogonek
Encoding: 280 280 215
Width: 636
GlyphClass: 2
Flags: W
LayerCount: 2
Fore
SplineSet
313 -91 m 0,0,1
 313 -135 313 -135 345 -135 c 0,2,3
 359 -135 359 -135 381.5 -126.5 c 128,-1,4
 404 -118 404 -118 411 -118 c 0,5,6
 436 -118 436 -118 436 -145 c 0,7,8
 436 -167 436 -167 418.5 -181.5 c 128,-1,9
 401 -196 401 -196 382.5 -200.5 c 128,-1,10
 364 -205 364 -205 347 -205 c 0,11,12
 301 -205 301 -205 271 -173.5 c 128,-1,13
 241 -142 241 -142 241 -91 c 0,14,15
 241 -56 241 -56 285 0 c 1,16,-1
 118 0 l 2,17,18
 84 0 84 0 84 44 c 2,19,-1
 84 597 l 2,20,21
 84 641 84 641 118 641 c 2,22,-1
 544 641 l 2,23,24
 588 641 588 641 588 603 c 0,25,26
 588 569 588 569 544 569 c 2,27,-1
 156 569 l 1,28,-1
 156 394 l 1,29,-1
 421 394 l 2,30,31
 471 394 471 394 471 356 c 0,32,33
 471 322 471 322 421 322 c 2,34,-1
 156 322 l 1,35,-1
 156 72 l 1,36,-1
 544 72 l 2,37,38
 588 72 588 72 588 34 c 0,39,40
 588 0 588 0 544 0 c 2,41,-1
 385 0 l 1,42,43
 359 -16 359 -16 341 -38 c 128,-1,44
 323 -60 323 -60 318 -73 c 128,-1,45
 313 -86 313 -86 313 -91 c 0,0,1
EndSplineSet
EndChar

StartChar: eogonek
Encoding: 281 281 216
Width: 651
GlyphClass: 2
Flags: W
LayerCount: 2
Fore
SplineSet
330 -91 m 0,0,1
 330 -135 330 -135 362 -135 c 0,2,3
 376 -135 376 -135 398.5 -126.5 c 128,-1,4
 421 -118 421 -118 428 -118 c 0,5,6
 453 -118 453 -118 453 -145 c 0,7,8
 453 -167 453 -167 435.5 -181.5 c 128,-1,9
 418 -196 418 -196 399.5 -200.5 c 128,-1,10
 381 -205 381 -205 364 -205 c 0,11,12
 318 -205 318 -205 288 -173.5 c 128,-1,13
 258 -142 258 -142 258 -91 c 0,14,15
 258 -56 258 -56 302 0 c 1,16,17
 175 1 175 1 118 38 c 128,-1,18
 61 75 61 75 61 178 c 2,19,-1
 61 283 l 2,20,21
 61 388 61 388 120 424.5 c 128,-1,22
 179 461 179 461 314 461 c 2,23,-1
 343 461 l 2,24,25
 477 461 477 461 536 424.5 c 128,-1,26
 595 388 595 388 595 283 c 2,27,-1
 595 235 l 1,28,-1
 133 235 l 1,29,-1
 133 181 l 2,30,31
 133 109 133 109 167.5 90.5 c 128,-1,32
 202 72 202 72 314 72 c 2,33,-1
 468 72 l 2,34,35
 495 72 495 72 504 83 c 128,-1,36
 513 94 513 94 513 124 c 0,37,38
 513 147 513 147 524 157 c 128,-1,39
 535 167 535 167 549 167 c 0,40,41
 585 167 585 167 585 121 c 0,42,43
 585 66 585 66 562.5 33 c 128,-1,44
 540 0 540 0 475 0 c 2,45,-1
 402 0 l 1,46,47
 376 -16 376 -16 358 -38 c 128,-1,48
 340 -60 340 -60 335 -73 c 128,-1,49
 330 -86 330 -86 330 -91 c 0,0,1
343 389 m 2,50,-1
 314 389 l 2,51,52
 206 389 206 389 171 374 c 128,-1,53
 136 359 136 359 133 307 c 1,54,-1
 523 307 l 1,55,56
 519 360 519 360 483 374.5 c 128,-1,57
 447 389 447 389 343 389 c 2,50,-1
EndSplineSet
EndChar

StartChar: Ecaron
Encoding: 282 282 217
Width: 636
GlyphClass: 2
Flags: W
LayerCount: 2
Fore
SplineSet
156 322 m 1,0,-1
 156 72 l 1,1,-1
 544 72 l 2,2,3
 588 72 588 72 588 34 c 0,4,5
 588 0 588 0 544 0 c 2,6,-1
 118 0 l 2,7,8
 84 0 84 0 84 44 c 2,9,-1
 84 592 l 2,10,11
 84 636 84 636 118 636 c 2,12,-1
 544 636 l 2,13,14
 588 636 588 636 588 598 c 0,15,16
 588 564 588 564 544 564 c 2,17,-1
 156 564 l 1,18,-1
 156 394 l 1,19,-1
 421 394 l 2,20,21
 471 394 471 394 471 356 c 0,22,23
 471 322 471 322 421 322 c 2,24,-1
 156 322 l 1,0,-1
353 655 m 1,25,-1
 289 655 l 1,26,-1
 181 768 l 2,27,28
 172 777 172 777 172 789 c 0,29,30
 172 799 172 799 180 809 c 128,-1,31
 188 819 188 819 205 819 c 0,32,33
 221 819 221 819 243 800 c 2,34,-1
 321 735 l 1,35,-1
 399 800 l 2,36,37
 421 819 421 819 437 819 c 0,38,39
 454 819 454 819 462 809 c 128,-1,40
 470 799 470 799 470 789 c 0,41,42
 470 777 470 777 461 768 c 2,43,-1
 353 655 l 1,25,-1
EndSplineSet
EndChar

StartChar: ecaron
Encoding: 283 283 218
Width: 651
GlyphClass: 2
Flags: W
LayerCount: 2
Fore
SplineSet
367 507 m 1,0,-1
 303 507 l 1,1,-1
 195 620 l 2,2,3
 186 629 186 629 186 641 c 0,4,5
 186 651 186 651 194 661 c 128,-1,6
 202 671 202 671 219 671 c 0,7,8
 235 671 235 671 257 652 c 2,9,-1
 335 587 l 1,10,-1
 413 652 l 2,11,12
 435 671 435 671 451 671 c 0,13,14
 468 671 468 671 476 661 c 128,-1,15
 484 651 484 651 484 641 c 0,16,17
 484 629 484 629 475 620 c 2,18,-1
 367 507 l 1,0,-1
595 283 m 2,19,-1
 595 235 l 1,20,-1
 133 235 l 1,21,-1
 133 181 l 2,22,23
 133 109 133 109 167.5 90.5 c 128,-1,24
 202 72 202 72 314 72 c 2,25,-1
 468 72 l 2,26,27
 495 72 495 72 504 83 c 128,-1,28
 513 94 513 94 513 124 c 0,29,30
 513 147 513 147 524 157 c 128,-1,31
 535 167 535 167 549 167 c 0,32,33
 585 167 585 167 585 121 c 0,34,35
 585 66 585 66 562.5 33 c 128,-1,36
 540 0 540 0 475 0 c 2,37,-1
 314 0 l 2,38,39
 179 0 179 0 120 36.5 c 128,-1,40
 61 73 61 73 61 178 c 2,41,-1
 61 283 l 2,42,43
 61 388 61 388 120 424.5 c 128,-1,44
 179 461 179 461 314 461 c 2,45,-1
 343 461 l 2,46,47
 477 461 477 461 536 424.5 c 128,-1,48
 595 388 595 388 595 283 c 2,19,-1
343 389 m 2,49,-1
 314 389 l 2,50,51
 206 389 206 389 171 374 c 128,-1,52
 136 359 136 359 133 307 c 1,53,-1
 523 307 l 1,54,55
 519 360 519 360 483 374.5 c 128,-1,56
 447 389 447 389 343 389 c 2,49,-1
EndSplineSet
EndChar

StartChar: Gcircumflex
Encoding: 284 284 219
Width: 645
GlyphClass: 2
Flags: W
LayerCount: 2
Fore
SplineSet
183 703 m 1,0,-1
 292 819 l 1,1,-1
 359 819 l 1,2,-1
 470 703 l 1,3,4
 478 693 478 693 478 679 c 0,5,6
 478 651 478 651 445 651 c 0,7,8
 438 651 438 651 432 653 c 128,-1,9
 426 655 426 655 423.5 657 c 128,-1,10
 421 659 421 659 416 664 c 2,11,-1
 410 669 l 1,12,-1
 326 738 l 1,13,-1
 243 669 l 2,14,15
 241 668 241 668 237 664 c 128,-1,16
 233 660 233 660 230 657.5 c 128,-1,17
 227 655 227 655 221 653 c 128,-1,18
 215 651 215 651 208 651 c 0,19,20
 175 651 175 651 175 679 c 0,21,22
 175 693 175 693 183 703 c 1,0,-1
503 236 m 1,23,-1
 376 236 l 2,24,25
 326 236 326 236 326 271 c 0,26,27
 326 308 326 308 376 308 c 2,28,-1
 575 308 l 1,29,-1
 575 115 l 2,30,31
 575 63 575 63 552.5 31.5 c 128,-1,32
 530 0 530 0 465 0 c 2,33,-1
 306 0 l 2,34,35
 184 0 184 0 127.5 37 c 128,-1,36
 71 74 71 74 71 181 c 2,37,-1
 71 455 l 2,38,39
 71 564 71 564 130 600 c 128,-1,40
 189 636 189 636 324 636 c 2,41,-1
 465 636 l 2,42,43
 530 636 530 636 552.5 603 c 128,-1,44
 575 570 575 570 575 515 c 0,45,46
 575 469 575 469 539 469 c 128,-1,47
 503 469 503 469 503 513 c 0,48,49
 503 543 503 543 494 553.5 c 128,-1,50
 485 564 485 564 458 564 c 2,51,-1
 324 564 l 2,52,53
 214 564 214 564 178.5 544.5 c 128,-1,54
 143 525 143 525 143 452 c 2,55,-1
 143 184 l 2,56,57
 143 111 143 111 175.5 91.5 c 128,-1,58
 208 72 208 72 306 72 c 2,59,-1
 458 72 l 2,60,61
 485 72 485 72 494 81.5 c 128,-1,62
 503 91 503 91 503 120 c 2,63,-1
 503 236 l 1,23,-1
EndSplineSet
EndChar

StartChar: gcircumflex
Encoding: 285 285 220
Width: 670
GlyphClass: 2
Flags: W
LayerCount: 2
Fore
SplineSet
595 -77 m 2,0,1
 595 -146 595 -146 573.5 -175.5 c 128,-1,2
 552 -205 552 -205 494 -205 c 2,3,-1
 171 -205 l 2,4,5
 106 -205 106 -205 83.5 -171.5 c 128,-1,6
 61 -138 61 -138 61 -83 c 0,7,8
 61 -38 61 -38 97 -38 c 128,-1,9
 133 -38 133 -38 133 -81 c 0,10,11
 133 -111 133 -111 142 -122 c 128,-1,12
 151 -133 151 -133 178 -133 c 2,13,-1
 487 -133 l 2,14,15
 510 -133 510 -133 516.5 -125.5 c 128,-1,16
 523 -118 523 -118 523 -93 c 2,17,-1
 523 0 l 1,18,-1
 311 0 l 2,19,20
 179 0 179 0 120 36.5 c 128,-1,21
 61 73 61 73 61 178 c 2,22,-1
 61 283 l 2,23,24
 61 388 61 388 120 424.5 c 128,-1,25
 179 461 179 461 313 461 c 2,26,-1
 342 461 l 2,27,28
 461 461 461 461 523 411 c 1,29,-1
 523 423 l 2,30,31
 523 468 523 468 559 468 c 128,-1,32
 595 468 595 468 595 426 c 2,33,-1
 595 -77 l 2,0,1
311 72 m 2,34,-1
 523 72 l 1,35,-1
 523 233 l 2,36,37
 523 304 523 304 483 346.5 c 128,-1,38
 443 389 443 389 342 389 c 2,39,-1
 313 389 l 2,40,41
 202 389 202 389 167.5 370.5 c 128,-1,42
 133 352 133 352 133 280 c 2,43,-1
 133 181 l 2,44,45
 133 109 133 109 167.5 90.5 c 128,-1,46
 202 72 202 72 311 72 c 2,34,-1
179 581 m 1,47,-1
 288 697 l 1,48,-1
 355 697 l 1,49,-1
 466 581 l 1,50,51
 474 571 474 571 474 557 c 0,52,53
 474 529 474 529 441 529 c 0,54,55
 434 529 434 529 428 531 c 128,-1,56
 422 533 422 533 419.5 535 c 128,-1,57
 417 537 417 537 412 542 c 2,58,-1
 406 547 l 1,59,-1
 322 616 l 1,60,-1
 239 547 l 2,61,62
 237 546 237 546 233 542 c 128,-1,63
 229 538 229 538 226 535.5 c 128,-1,64
 223 533 223 533 217 531 c 128,-1,65
 211 529 211 529 204 529 c 0,66,67
 171 529 171 529 171 557 c 0,68,69
 171 571 171 571 179 581 c 1,47,-1
EndSplineSet
EndChar

StartChar: Gbreve
Encoding: 286 286 221
Width: 645
GlyphClass: 2
Flags: W
LayerCount: 2
Fore
SplineSet
456 819 m 1,0,1
 456 753 456 753 413.5 723 c 128,-1,2
 371 693 371 693 326 693 c 0,3,4
 306 693 306 693 285.5 699 c 128,-1,5
 265 705 265 705 244 718.5 c 128,-1,6
 223 732 223 732 209.5 758 c 128,-1,7
 196 784 196 784 196 819 c 1,8,-1
 269 819 l 1,9,10
 269 767 269 767 326 767 c 128,-1,11
 383 767 383 767 383 819 c 1,12,-1
 456 819 l 1,0,1
503 236 m 1,13,-1
 376 236 l 2,14,15
 326 236 326 236 326 271 c 0,16,17
 326 308 326 308 376 308 c 2,18,-1
 575 308 l 1,19,-1
 575 115 l 2,20,21
 575 63 575 63 552.5 31.5 c 128,-1,22
 530 0 530 0 465 0 c 2,23,-1
 306 0 l 2,24,25
 184 0 184 0 127.5 37 c 128,-1,26
 71 74 71 74 71 181 c 2,27,-1
 71 455 l 2,28,29
 71 564 71 564 130 600 c 128,-1,30
 189 636 189 636 324 636 c 2,31,-1
 465 636 l 2,32,33
 530 636 530 636 552.5 603 c 128,-1,34
 575 570 575 570 575 515 c 0,35,36
 575 469 575 469 539 469 c 128,-1,37
 503 469 503 469 503 513 c 0,38,39
 503 543 503 543 494 553.5 c 128,-1,40
 485 564 485 564 458 564 c 2,41,-1
 324 564 l 2,42,43
 214 564 214 564 178.5 544.5 c 128,-1,44
 143 525 143 525 143 452 c 2,45,-1
 143 184 l 2,46,47
 143 111 143 111 175.5 91.5 c 128,-1,48
 208 72 208 72 306 72 c 2,49,-1
 458 72 l 2,50,51
 485 72 485 72 494 81.5 c 128,-1,52
 503 91 503 91 503 120 c 2,53,-1
 503 236 l 1,13,-1
EndSplineSet
EndChar

StartChar: gbreve
Encoding: 287 287 222
Width: 670
GlyphClass: 2
Flags: W
LayerCount: 2
Fore
SplineSet
457 651 m 1,0,1
 457 585 457 585 414.5 555 c 128,-1,2
 372 525 372 525 327 525 c 0,3,4
 307 525 307 525 286.5 531 c 128,-1,5
 266 537 266 537 245 550.5 c 128,-1,6
 224 564 224 564 210.5 590 c 128,-1,7
 197 616 197 616 197 651 c 1,8,-1
 270 651 l 1,9,10
 270 599 270 599 327 599 c 128,-1,11
 384 599 384 599 384 651 c 1,12,-1
 457 651 l 1,0,1
595 -77 m 2,13,14
 595 -146 595 -146 573.5 -175.5 c 128,-1,15
 552 -205 552 -205 494 -205 c 2,16,-1
 171 -205 l 2,17,18
 106 -205 106 -205 83.5 -171.5 c 128,-1,19
 61 -138 61 -138 61 -83 c 0,20,21
 61 -38 61 -38 97 -38 c 128,-1,22
 133 -38 133 -38 133 -81 c 0,23,24
 133 -111 133 -111 142 -122 c 128,-1,25
 151 -133 151 -133 178 -133 c 2,26,-1
 487 -133 l 2,27,28
 510 -133 510 -133 516.5 -125.5 c 128,-1,29
 523 -118 523 -118 523 -93 c 2,30,-1
 523 0 l 1,31,-1
 311 0 l 2,32,33
 179 0 179 0 120 36.5 c 128,-1,34
 61 73 61 73 61 178 c 2,35,-1
 61 283 l 2,36,37
 61 388 61 388 120 424.5 c 128,-1,38
 179 461 179 461 313 461 c 2,39,-1
 342 461 l 2,40,41
 461 461 461 461 523 411 c 1,42,-1
 523 423 l 2,43,44
 523 468 523 468 559 468 c 128,-1,45
 595 468 595 468 595 426 c 2,46,-1
 595 -77 l 2,13,14
311 72 m 2,47,-1
 523 72 l 1,48,-1
 523 233 l 2,49,50
 523 304 523 304 483 346.5 c 128,-1,51
 443 389 443 389 342 389 c 2,52,-1
 313 389 l 2,53,54
 202 389 202 389 167.5 370.5 c 128,-1,55
 133 352 133 352 133 280 c 2,56,-1
 133 181 l 2,57,58
 133 109 133 109 167.5 90.5 c 128,-1,59
 202 72 202 72 311 72 c 2,47,-1
EndSplineSet
EndChar

StartChar: Gdotaccent
Encoding: 288 288 223
Width: 645
GlyphClass: 2
Flags: W
LayerCount: 2
Fore
SplineSet
503 236 m 1,0,-1
 376 236 l 2,1,2
 326 236 326 236 326 271 c 0,3,4
 326 308 326 308 376 308 c 2,5,-1
 575 308 l 1,6,-1
 575 115 l 2,7,8
 575 63 575 63 552.5 31.5 c 128,-1,9
 530 0 530 0 465 0 c 2,10,-1
 306 0 l 2,11,12
 184 0 184 0 127.5 37 c 128,-1,13
 71 74 71 74 71 181 c 2,14,-1
 71 455 l 2,15,16
 71 564 71 564 130 600 c 128,-1,17
 189 636 189 636 324 636 c 2,18,-1
 465 636 l 2,19,20
 530 636 530 636 552.5 603 c 128,-1,21
 575 570 575 570 575 515 c 0,22,23
 575 469 575 469 539 469 c 128,-1,24
 503 469 503 469 503 513 c 0,25,26
 503 543 503 543 494 553.5 c 128,-1,27
 485 564 485 564 458 564 c 2,28,-1
 324 564 l 2,29,30
 214 564 214 564 178.5 544.5 c 128,-1,31
 143 525 143 525 143 452 c 2,32,-1
 143 184 l 2,33,34
 143 111 143 111 175.5 91.5 c 128,-1,35
 208 72 208 72 306 72 c 2,36,-1
 458 72 l 2,37,38
 485 72 485 72 494 81.5 c 128,-1,39
 503 91 503 91 503 120 c 2,40,-1
 503 236 l 1,0,-1
334 691 m 0,41,42
 312 691 312 691 292.5 705.5 c 128,-1,43
 273 720 273 720 273 742 c 128,-1,44
 273 764 273 764 293.5 778.5 c 128,-1,45
 314 793 314 793 334 793 c 128,-1,46
 354 793 354 793 374.5 778.5 c 128,-1,47
 395 764 395 764 395 742 c 128,-1,48
 395 720 395 720 374.5 705.5 c 128,-1,49
 354 691 354 691 334 691 c 0,41,42
EndSplineSet
EndChar

StartChar: gdotaccent
Encoding: 289 289 224
Width: 670
GlyphClass: 2
Flags: W
LayerCount: 2
Fore
SplineSet
595 -77 m 2,0,1
 595 -146 595 -146 573.5 -175.5 c 128,-1,2
 552 -205 552 -205 494 -205 c 2,3,-1
 171 -205 l 2,4,5
 106 -205 106 -205 83.5 -171.5 c 128,-1,6
 61 -138 61 -138 61 -83 c 0,7,8
 61 -38 61 -38 97 -38 c 128,-1,9
 133 -38 133 -38 133 -81 c 0,10,11
 133 -111 133 -111 142 -122 c 128,-1,12
 151 -133 151 -133 178 -133 c 2,13,-1
 487 -133 l 2,14,15
 510 -133 510 -133 516.5 -125.5 c 128,-1,16
 523 -118 523 -118 523 -93 c 2,17,-1
 523 0 l 1,18,-1
 311 0 l 2,19,20
 179 0 179 0 120 36.5 c 128,-1,21
 61 73 61 73 61 178 c 2,22,-1
 61 283 l 2,23,24
 61 388 61 388 120 424.5 c 128,-1,25
 179 461 179 461 313 461 c 2,26,-1
 342 461 l 2,27,28
 461 461 461 461 523 411 c 1,29,-1
 523 423 l 2,30,31
 523 468 523 468 559 468 c 128,-1,32
 595 468 595 468 595 426 c 2,33,-1
 595 -77 l 2,0,1
311 72 m 2,34,-1
 523 72 l 1,35,-1
 523 233 l 2,36,37
 523 304 523 304 483 346.5 c 128,-1,38
 443 389 443 389 342 389 c 2,39,-1
 313 389 l 2,40,41
 202 389 202 389 167.5 370.5 c 128,-1,42
 133 352 133 352 133 280 c 2,43,-1
 133 181 l 2,44,45
 133 109 133 109 167.5 90.5 c 128,-1,46
 202 72 202 72 311 72 c 2,34,-1
334 514 m 0,47,48
 312 514 312 514 292.5 528.5 c 128,-1,49
 273 543 273 543 273 565 c 128,-1,50
 273 587 273 587 293.5 601.5 c 128,-1,51
 314 616 314 616 334 616 c 128,-1,52
 354 616 354 616 374.5 601.5 c 128,-1,53
 395 587 395 587 395 565 c 128,-1,54
 395 543 395 543 374.5 528.5 c 128,-1,55
 354 514 354 514 334 514 c 0,47,48
EndSplineSet
EndChar

StartChar: Gcommaaccent
Encoding: 290 290 225
Width: 645
GlyphClass: 2
Flags: W
LayerCount: 2
Fore
SplineSet
327 -175 m 1,0,1
 314 -205 314 -205 293 -205 c 0,2,3
 261 -205 261 -205 261 -170 c 1,4,5
 261 -170 261 -170 264 -152 c 1,6,-1
 288 -65 l 2,7,8
 297 -34 297 -34 323 -34 c 0,9,10
 330 -34 330 -34 340.5 -36 c 128,-1,11
 351 -38 351 -38 362.5 -46.5 c 128,-1,12
 374 -55 374 -55 374 -69 c 0,13,14
 374 -78 374 -78 367 -92 c 2,15,-1
 327 -175 l 1,0,1
503 236 m 1,16,-1
 376 236 l 2,17,18
 326 236 326 236 326 271 c 0,19,20
 326 308 326 308 376 308 c 2,21,-1
 575 308 l 1,22,-1
 575 115 l 2,23,24
 575 63 575 63 552.5 31.5 c 128,-1,25
 530 0 530 0 465 0 c 2,26,-1
 306 0 l 2,27,28
 184 0 184 0 127.5 37 c 128,-1,29
 71 74 71 74 71 181 c 2,30,-1
 71 455 l 2,31,32
 71 564 71 564 130 600 c 128,-1,33
 189 636 189 636 324 636 c 2,34,-1
 465 636 l 2,35,36
 530 636 530 636 552.5 603 c 128,-1,37
 575 570 575 570 575 515 c 0,38,39
 575 469 575 469 539 469 c 128,-1,40
 503 469 503 469 503 513 c 0,41,42
 503 543 503 543 494 553.5 c 128,-1,43
 485 564 485 564 458 564 c 2,44,-1
 324 564 l 2,45,46
 214 564 214 564 178.5 544.5 c 128,-1,47
 143 525 143 525 143 452 c 2,48,-1
 143 184 l 2,49,50
 143 111 143 111 175.5 91.5 c 128,-1,51
 208 72 208 72 306 72 c 2,52,-1
 458 72 l 2,53,54
 485 72 485 72 494 81.5 c 128,-1,55
 503 91 503 91 503 120 c 2,56,-1
 503 236 l 1,16,-1
EndSplineSet
EndChar

StartChar: gcommaaccent
Encoding: 291 291 226
Width: 670
GlyphClass: 2
Flags: W
LayerCount: 2
Fore
SplineSet
342 670 m 1,0,1
 355 700 355 700 376 700 c 0,2,3
 408 700 408 700 408 665 c 1,4,5
 408 665 408 665 405 647 c 1,6,-1
 381 561 l 1,7,8
 370 529 370 529 346 529 c 0,9,10
 339 529 339 529 328.5 531 c 128,-1,11
 318 533 318 533 306.5 541.5 c 128,-1,12
 295 550 295 550 295 564 c 0,13,14
 295 573 295 573 302 587 c 2,15,-1
 342 670 l 1,0,1
595 -77 m 2,16,17
 595 -146 595 -146 573.5 -175.5 c 128,-1,18
 552 -205 552 -205 494 -205 c 2,19,-1
 171 -205 l 2,20,21
 106 -205 106 -205 83.5 -171.5 c 128,-1,22
 61 -138 61 -138 61 -83 c 0,23,24
 61 -38 61 -38 97 -38 c 128,-1,25
 133 -38 133 -38 133 -81 c 0,26,27
 133 -111 133 -111 142 -122 c 128,-1,28
 151 -133 151 -133 178 -133 c 2,29,-1
 487 -133 l 2,30,31
 510 -133 510 -133 516.5 -125.5 c 128,-1,32
 523 -118 523 -118 523 -93 c 2,33,-1
 523 0 l 1,34,-1
 311 0 l 2,35,36
 179 0 179 0 120 36.5 c 128,-1,37
 61 73 61 73 61 178 c 2,38,-1
 61 283 l 2,39,40
 61 388 61 388 120 424.5 c 128,-1,41
 179 461 179 461 313 461 c 2,42,-1
 342 461 l 2,43,44
 461 461 461 461 523 411 c 1,45,-1
 523 423 l 2,46,47
 523 468 523 468 559 468 c 128,-1,48
 595 468 595 468 595 426 c 2,49,-1
 595 -77 l 2,16,17
311 72 m 2,50,-1
 523 72 l 1,51,-1
 523 233 l 2,52,53
 523 304 523 304 483 346.5 c 128,-1,54
 443 389 443 389 342 389 c 2,55,-1
 313 389 l 2,56,57
 202 389 202 389 167.5 370.5 c 128,-1,58
 133 352 133 352 133 280 c 2,59,-1
 133 181 l 2,60,61
 133 109 133 109 167.5 90.5 c 128,-1,62
 202 72 202 72 311 72 c 2,50,-1
EndSplineSet
EndChar

StartChar: Hcircumflex
Encoding: 292 292 227
Width: 672
GlyphClass: 2
Flags: W
LayerCount: 2
Fore
SplineSet
156 35 m 2,0,1
 156 -7 156 -7 120 -7 c 128,-1,2
 84 -7 84 -7 84 35 c 2,3,-1
 84 600 l 2,4,5
 84 643 84 643 118 643 c 0,6,7
 156 643 156 643 156 600 c 2,8,-1
 156 379 l 1,9,-1
 516 379 l 1,10,-1
 516 600 l 2,11,12
 516 643 516 643 551 643 c 0,13,14
 588 643 588 643 588 600 c 2,15,-1
 588 35 l 2,16,17
 588 -7 588 -7 553 -7 c 0,18,19
 516 -7 516 -7 516 35 c 2,20,-1
 516 307 l 1,21,-1
 156 307 l 1,22,-1
 156 35 l 2,0,1
189 703 m 1,23,-1
 298 819 l 1,24,-1
 365 819 l 1,25,-1
 476 703 l 1,26,27
 484 693 484 693 484 679 c 0,28,29
 484 651 484 651 451 651 c 0,30,31
 444 651 444 651 438 653 c 128,-1,32
 432 655 432 655 429.5 657 c 128,-1,33
 427 659 427 659 422 664 c 2,34,-1
 416 669 l 1,35,-1
 332 738 l 1,36,-1
 249 669 l 2,37,38
 247 668 247 668 243 664 c 128,-1,39
 239 660 239 660 236 657.5 c 128,-1,40
 233 655 233 655 227 653 c 128,-1,41
 221 651 221 651 214 651 c 0,42,43
 181 651 181 651 181 679 c 0,44,45
 181 693 181 693 189 703 c 1,23,-1
EndSplineSet
EndChar

StartChar: hcircumflex
Encoding: 293 293 228
Width: 679
GlyphClass: 2
Flags: W
LayerCount: 2
Fore
SplineSet
328 389 m 2,0,1
 227 389 227 389 187 345.5 c 128,-1,2
 147 302 147 302 147 229 c 2,3,-1
 147 35 l 2,4,5
 147 -7 147 -7 111 -7 c 128,-1,6
 75 -7 75 -7 75 35 c 2,7,-1
 75 597 l 2,8,9
 75 643 75 643 109 643 c 0,10,11
 147 643 147 643 147 597 c 2,12,-1
 147 411 l 1,13,14
 209 461 209 461 328 461 c 2,15,-1
 357 461 l 2,16,17
 491 461 491 461 550 424.5 c 128,-1,18
 609 388 609 388 609 283 c 2,19,-1
 609 35 l 2,20,21
 609 -7 609 -7 574 -7 c 0,22,23
 537 -7 537 -7 537 35 c 2,24,-1
 537 280 l 2,25,26
 537 352 537 352 502.5 370.5 c 128,-1,27
 468 389 468 389 357 389 c 2,28,-1
 328 389 l 2,0,1
196 705 m 1,29,-1
 305 821 l 1,30,-1
 372 821 l 1,31,-1
 483 705 l 1,32,33
 491 695 491 695 491 681 c 0,34,35
 491 653 491 653 458 653 c 0,36,37
 451 653 451 653 445 655 c 128,-1,38
 439 657 439 657 436.5 659 c 128,-1,39
 434 661 434 661 428 666 c 2,40,-1
 423 671 l 1,41,-1
 339 740 l 1,42,-1
 256 671 l 2,43,44
 254 670 254 670 250 666 c 128,-1,45
 246 662 246 662 243 659.5 c 128,-1,46
 240 657 240 657 234 655 c 128,-1,47
 228 653 228 653 221 653 c 0,48,49
 188 653 188 653 188 681 c 0,50,51
 188 695 188 695 196 705 c 1,29,-1
EndSplineSet
EndChar

StartChar: Hbar
Encoding: 294 294 229
Width: 676
GlyphClass: 2
Flags: W
LayerCount: 2
Fore
SplineSet
54 508 m 2,0,1
 28 508 28 508 28 530 c 0,2,3
 28 551 28 551 54 551 c 2,4,-1
 86 551 l 1,5,-1
 86 600 l 2,6,7
 86 643 86 643 120 643 c 0,8,9
 158 643 158 643 158 600 c 2,10,-1
 158 551 l 1,11,-1
 518 551 l 1,12,-1
 518 600 l 2,13,14
 518 643 518 643 553 643 c 0,15,16
 590 643 590 643 590 600 c 2,17,-1
 590 551 l 1,18,-1
 619 551 l 2,19,20
 648 551 648 551 648 528 c 0,21,22
 648 508 648 508 619 508 c 2,23,-1
 590 508 l 1,24,-1
 590 35 l 2,25,26
 590 -7 590 -7 555 -7 c 0,27,28
 518 -7 518 -7 518 35 c 2,29,-1
 518 307 l 1,30,-1
 158 307 l 1,31,-1
 158 35 l 2,32,33
 158 -7 158 -7 122 -7 c 128,-1,34
 86 -7 86 -7 86 35 c 2,35,-1
 86 508 l 1,36,-1
 54 508 l 2,0,1
518 508 m 1,37,-1
 158 508 l 1,38,-1
 158 379 l 1,39,-1
 518 379 l 1,40,-1
 518 508 l 1,37,-1
EndSplineSet
EndChar

StartChar: hbar
Encoding: 295 295 230
Width: 679
GlyphClass: 2
Flags: W
LayerCount: 2
Fore
SplineSet
75 485 m 1,0,1
 50 486 50 486 39 497.5 c 128,-1,2
 28 509 28 509 28 523 c 0,3,4
 28 538 28 538 41 547 c 128,-1,5
 54 556 54 556 75 558 c 1,6,-1
 75 597 l 2,7,8
 75 643 75 643 109 643 c 0,9,10
 147 643 147 643 147 597 c 2,11,-1
 147 558 l 1,12,-1
 369 558 l 2,13,14
 399 558 399 558 412 546 c 128,-1,15
 425 534 425 534 425 520 c 0,16,17
 425 504 425 504 409.5 494.5 c 128,-1,18
 394 485 394 485 369 485 c 2,19,-1
 147 485 l 1,20,-1
 147 411 l 1,21,22
 215 461 215 461 328 461 c 2,23,-1
 357 461 l 2,24,25
 491 461 491 461 550 424.5 c 128,-1,26
 609 388 609 388 609 283 c 2,27,-1
 609 35 l 2,28,29
 609 -7 609 -7 574 -7 c 0,30,31
 537 -7 537 -7 537 35 c 2,32,-1
 537 280 l 2,33,34
 537 352 537 352 502.5 370.5 c 128,-1,35
 468 389 468 389 357 389 c 2,36,-1
 328 389 l 2,37,38
 147 389 147 389 147 229 c 2,39,-1
 147 35 l 2,40,41
 147 -7 147 -7 111 -7 c 128,-1,42
 75 -7 75 -7 75 35 c 2,43,-1
 75 485 l 1,0,1
EndSplineSet
EndChar

StartChar: Itilde
Encoding: 296 296 231
Width: 240
GlyphClass: 2
Flags: W
LayerCount: 2
Fore
SplineSet
72 744 m 2,0,1
 68 746 68 746 66 746 c 128,-1,2
 64 746 64 746 61 743 c 2,3,-1
 32 717 l 2,4,5
 21 706 21 706 4 706 c 0,6,7
 -8 706 -8 706 -19.5 715.5 c 128,-1,8
 -31 725 -31 725 -31 740 c 0,9,10
 -31 759 -31 759 -13 774 c 2,11,-1
 32 812 l 2,12,13
 45 823 45 823 58 823 c 0,14,15
 68 823 68 823 81 818 c 2,16,-1
 168 785 l 2,17,18
 172 783 172 783 174 783 c 0,19,20
 175 783 175 783 178 786 c 2,21,-1
 208 812 l 1,22,23
 219 823 219 823 236 823 c 0,24,25
 248 823 248 823 259 813.5 c 128,-1,26
 270 804 270 804 270 789 c 0,27,28
 270 768 270 768 252 755 c 1,29,-1
 208 717 l 1,30,31
 193 706 193 706 182 706 c 128,-1,32
 171 706 171 706 158 711 c 2,33,-1
 72 744 l 2,0,1
156 33 m 2,34,35
 156 -7 156 -7 119 -7 c 0,36,37
 84 -7 84 -7 84 33 c 2,38,-1
 84 602 l 2,39,40
 84 643 84 643 120 643 c 128,-1,41
 156 643 156 643 156 602 c 2,42,-1
 156 33 l 2,34,35
EndSplineSet
EndChar

StartChar: itilde
Encoding: 297 297 232
Width: 218
GlyphClass: 2
Flags: W
LayerCount: 2
Fore
SplineSet
62 582 m 2,0,1
 58 584 58 584 56 584 c 128,-1,2
 54 584 54 584 51 581 c 2,3,-1
 22 555 l 2,4,5
 11 544 11 544 -6 544 c 0,6,7
 -18 544 -18 544 -29.5 553.5 c 128,-1,8
 -41 563 -41 563 -41 578 c 0,9,10
 -41 597 -41 597 -23 612 c 2,11,-1
 22 650 l 2,12,13
 35 661 35 661 48 661 c 0,14,15
 58 661 58 661 71 656 c 2,16,-1
 158 623 l 2,17,18
 162 621 162 621 164 621 c 0,19,20
 165 621 165 621 168 624 c 2,21,-1
 198 650 l 1,22,23
 209 661 209 661 226 661 c 0,24,25
 238 661 238 661 249 651.5 c 128,-1,26
 260 642 260 642 260 627 c 0,27,28
 260 606 260 606 242 593 c 1,29,-1
 198 555 l 1,30,31
 183 544 183 544 172 544 c 128,-1,32
 161 544 161 544 148 549 c 2,33,-1
 62 582 l 2,0,1
73 440 m 2,34,35
 73 463 73 463 84 473 c 128,-1,36
 95 483 95 483 109 483 c 128,-1,37
 123 483 123 483 134 473 c 128,-1,38
 145 463 145 463 145 440 c 2,39,-1
 145 20 l 2,40,41
 145 -22 145 -22 108 -22 c 0,42,43
 94 -22 94 -22 83.5 -12.5 c 128,-1,44
 73 -3 73 -3 73 20 c 2,45,-1
 73 440 l 2,34,35
EndSplineSet
EndChar

StartChar: Imacron
Encoding: 298 298 233
Width: 240
GlyphClass: 2
Flags: W
LayerCount: 2
Fore
SplineSet
241 779 m 2,0,1
 285 779 285 779 285 741 c 0,2,3
 285 725 285 725 272.5 715.5 c 128,-1,4
 260 706 260 706 241 706 c 2,5,-1
 -4 706 l 2,6,7
 -45 706 -45 706 -45 743 c 0,8,9
 -45 756 -45 756 -35.5 767.5 c 128,-1,10
 -26 779 -26 779 -4 779 c 2,11,-1
 241 779 l 2,0,1
156 33 m 2,12,13
 156 -7 156 -7 119 -7 c 0,14,15
 84 -7 84 -7 84 33 c 2,16,-1
 84 602 l 2,17,18
 84 643 84 643 120 643 c 128,-1,19
 156 643 156 643 156 602 c 2,20,-1
 156 33 l 2,12,13
EndSplineSet
EndChar

StartChar: imacron
Encoding: 299 299 234
Width: 218
GlyphClass: 2
Flags: W
LayerCount: 2
Fore
SplineSet
230 617 m 2,0,1
 274 617 274 617 274 579 c 0,2,3
 274 563 274 563 261.5 553.5 c 128,-1,4
 249 544 249 544 230 544 c 2,5,-1
 -15 544 l 2,6,7
 -56 544 -56 544 -56 581 c 0,8,9
 -56 594 -56 594 -46.5 605.5 c 128,-1,10
 -37 617 -37 617 -15 617 c 2,11,-1
 230 617 l 2,0,1
73 440 m 2,12,13
 73 463 73 463 84 473 c 128,-1,14
 95 483 95 483 109 483 c 128,-1,15
 123 483 123 483 134 473 c 128,-1,16
 145 463 145 463 145 440 c 2,17,-1
 145 20 l 2,18,19
 145 -22 145 -22 108 -22 c 0,20,21
 94 -22 94 -22 83.5 -12.5 c 128,-1,22
 73 -3 73 -3 73 20 c 2,23,-1
 73 440 l 2,12,13
EndSplineSet
EndChar

StartChar: Iogonek
Encoding: 302 302 235
Width: 246
GlyphClass: 2
Flags: W
LayerCount: 2
Fore
SplineSet
76 -91 m 0,0,1
 76 -135 76 -135 108 -135 c 0,2,3
 122 -135 122 -135 144.5 -126.5 c 128,-1,4
 167 -118 167 -118 174 -118 c 0,5,6
 199 -118 199 -118 199 -145 c 0,7,8
 199 -167 199 -167 181.5 -181.5 c 128,-1,9
 164 -196 164 -196 145.5 -200.5 c 128,-1,10
 127 -205 127 -205 110 -205 c 0,11,12
 64 -205 64 -205 34 -173.5 c 128,-1,13
 4 -142 4 -142 4 -91 c 128,-1,14
 4 -40 4 -40 90 47 c 1,15,-1
 90 602 l 2,16,17
 90 643 90 643 126 643 c 128,-1,18
 162 643 162 643 162 602 c 2,19,-1
 162 33 l 2,20,21
 162 4 162 4 142 -4 c 1,22,23
 118 -20 118 -20 102 -41 c 128,-1,24
 86 -62 86 -62 81 -74 c 128,-1,25
 76 -86 76 -86 76 -91 c 0,0,1
EndSplineSet
EndChar

StartChar: iogonek
Encoding: 303 303 236
Width: 227
GlyphClass: 2
Flags: W
LayerCount: 2
Fore
SplineSet
75 -90 m 0,0,1
 75 -134 75 -134 107 -134 c 0,2,3
 121 -134 121 -134 143.5 -125.5 c 128,-1,4
 166 -117 166 -117 173 -117 c 0,5,6
 198 -117 198 -117 198 -144 c 0,7,8
 198 -166 198 -166 180.5 -180.5 c 128,-1,9
 163 -195 163 -195 144.5 -199.5 c 128,-1,10
 126 -204 126 -204 109 -204 c 0,11,12
 63 -204 63 -204 33 -172.5 c 128,-1,13
 3 -141 3 -141 3 -90 c 0,14,15
 3 -41 3 -41 81 40 c 1,16,-1
 81 440 l 2,17,18
 81 463 81 463 92 473 c 128,-1,19
 103 483 103 483 117 483 c 128,-1,20
 131 483 131 483 142 473 c 128,-1,21
 153 463 153 463 153 440 c 2,22,-1
 153 20 l 2,23,24
 153 -22 153 -22 117 -22 c 1,25,26
 102 -36 102 -36 91.5 -52 c 128,-1,27
 81 -68 81 -68 78 -77 c 128,-1,28
 75 -86 75 -86 75 -90 c 0,0,1
117 550 m 128,-1,30
 97 550 97 550 76.5 564.5 c 128,-1,31
 56 579 56 579 56 601 c 128,-1,32
 56 623 56 623 75.5 637.5 c 128,-1,33
 95 652 95 652 117 652 c 0,34,35
 137 652 137 652 157.5 637.5 c 128,-1,36
 178 623 178 623 178 601 c 128,-1,37
 178 579 178 579 157.5 564.5 c 128,-1,29
 137 550 137 550 117 550 c 128,-1,30
EndSplineSet
EndChar

StartChar: Idotaccent
Encoding: 304 304 237
Width: 240
GlyphClass: 2
Flags: W
LayerCount: 2
Fore
SplineSet
156 33 m 2,0,1
 156 -7 156 -7 119 -7 c 0,2,3
 84 -7 84 -7 84 33 c 2,4,-1
 84 602 l 2,5,6
 84 643 84 643 120 643 c 128,-1,7
 156 643 156 643 156 602 c 2,8,-1
 156 33 l 2,0,1
120 691 m 0,9,10
 98 691 98 691 78.5 705.5 c 128,-1,11
 59 720 59 720 59 742 c 128,-1,12
 59 764 59 764 79.5 778.5 c 128,-1,13
 100 793 100 793 120 793 c 128,-1,14
 140 793 140 793 160.5 778.5 c 128,-1,15
 181 764 181 764 181 742 c 128,-1,16
 181 720 181 720 160.5 705.5 c 128,-1,17
 140 691 140 691 120 691 c 0,9,10
EndSplineSet
EndChar

StartChar: dotlessi
Encoding: 305 305 238
Width: 218
GlyphClass: 2
Flags: W
LayerCount: 2
Fore
SplineSet
73 440 m 2,0,1
 73 463 73 463 84 473 c 128,-1,2
 95 483 95 483 109 483 c 128,-1,3
 123 483 123 483 134 473 c 128,-1,4
 145 463 145 463 145 440 c 2,5,-1
 145 20 l 2,6,7
 145 -22 145 -22 108 -22 c 0,8,9
 94 -22 94 -22 83.5 -12.5 c 128,-1,10
 73 -3 73 -3 73 20 c 2,11,-1
 73 440 l 2,0,1
EndSplineSet
EndChar

StartChar: Jcircumflex
Encoding: 308 308 239
Width: 591
GlyphClass: 2
Flags: W
LayerCount: 2
Fore
SplineSet
272 64 m 0,0,1
 371 64 371 64 404.5 84 c 128,-1,2
 438 104 438 104 438 176 c 2,3,-1
 438 603 l 2,4,5
 438 624 438 624 449 633.5 c 128,-1,6
 460 643 460 643 474 643 c 0,7,8
 510 643 510 643 510 602 c 2,9,-1
 510 173 l 2,10,11
 510 66 510 66 453 29 c 128,-1,12
 396 -8 396 -8 272 -8 c 0,13,14
 210 -8 210 -8 169.5 -1 c 128,-1,15
 129 6 129 6 96 26 c 128,-1,16
 63 46 63 46 48 84.5 c 128,-1,17
 33 123 33 123 33 182 c 0,18,19
 33 225 33 225 71 225 c 0,20,21
 87 225 87 225 96.5 213 c 128,-1,22
 106 201 106 201 106 182 c 0,23,24
 106 105 106 105 139 84.5 c 128,-1,25
 172 64 172 64 272 64 c 0,0,1
310 704 m 1,26,-1
 419 820 l 1,27,-1
 486 820 l 1,28,-1
 597 704 l 1,29,30
 605 694 605 694 605 680 c 0,31,32
 605 652 605 652 572 652 c 0,33,34
 565 652 565 652 559 654 c 128,-1,35
 553 656 553 656 550.5 658 c 128,-1,36
 548 660 548 660 542 665 c 2,37,-1
 537 670 l 1,38,-1
 453 739 l 1,39,-1
 370 670 l 2,40,41
 368 669 368 669 364 665 c 128,-1,42
 360 661 360 661 357 658.5 c 128,-1,43
 354 656 354 656 348 654 c 128,-1,44
 342 652 342 652 335 652 c 0,45,46
 302 652 302 652 302 680 c 0,47,48
 302 694 302 694 310 704 c 1,26,-1
EndSplineSet
EndChar

StartChar: jcircumflex
Encoding: 309 309 240
Width: 222
GlyphClass: 2
Flags: W
LayerCount: 2
Fore
SplineSet
147 0 m 2,0,1
 147 -105 147 -105 92.5 -140 c 128,-1,2
 38 -175 38 -175 -76 -175 c 0,3,4
 -122 -175 -122 -175 -122 -138 c 0,5,6
 -122 -103 -122 -103 -76 -103 c 0,7,8
 14 -103 14 -103 44.5 -85 c 128,-1,9
 75 -67 75 -67 75 0 c 2,10,-1
 75 422 l 2,11,12
 75 468 75 468 112 468 c 0,13,14
 147 468 147 468 147 422 c 2,15,-1
 147 0 l 2,0,1
-35 581 m 1,16,-1
 74 697 l 1,17,-1
 141 697 l 1,18,-1
 252 581 l 1,19,20
 260 571 260 571 260 557 c 0,21,22
 260 529 260 529 227 529 c 0,23,24
 220 529 220 529 214 531 c 128,-1,25
 208 533 208 533 205.5 535 c 128,-1,26
 203 537 203 537 198 542 c 2,27,-1
 192 547 l 1,28,-1
 108 616 l 1,29,-1
 25 547 l 2,30,31
 23 546 23 546 19 542 c 128,-1,32
 15 538 15 538 12 535.5 c 128,-1,33
 9 533 9 533 3 531 c 128,-1,34
 -3 529 -3 529 -10 529 c 0,35,36
 -43 529 -43 529 -43 557 c 0,37,38
 -43 571 -43 571 -35 581 c 1,16,-1
EndSplineSet
EndChar

StartChar: Kcommaaccent
Encoding: 310 310 241
Width: 560
GlyphClass: 2
Flags: W
LayerCount: 2
Fore
SplineSet
328 -141 m 1,0,1
 315 -171 315 -171 294 -171 c 0,2,3
 262 -171 262 -171 262 -136 c 1,4,5
 262 -136 262 -136 265 -118 c 1,6,-1
 289 -31 l 2,7,8
 298 0 298 0 324 0 c 0,9,10
 331 0 331 0 341.5 -2 c 128,-1,11
 352 -4 352 -4 363.5 -12.5 c 128,-1,12
 375 -21 375 -21 375 -35 c 0,13,14
 375 -44 375 -44 368 -58 c 2,15,-1
 328 -141 l 1,0,1
554 27 m 0,16,17
 554 13 554 13 542 3 c 128,-1,18
 530 -7 530 -7 518 -7 c 0,19,20
 501 -7 501 -7 485 12 c 1,21,-1
 199 316 l 1,22,-1
 156 264 l 1,23,-1
 156 35 l 2,24,25
 156 -7 156 -7 119 -7 c 0,26,27
 84 -7 84 -7 84 33 c 2,28,-1
 84 602 l 2,29,30
 84 643 84 643 120 643 c 0,31,32
 134 643 134 643 145 633 c 128,-1,33
 156 623 156 623 156 600 c 2,34,-1
 156 346 l 1,35,-1
 419 624 l 2,36,37
 436 643 436 643 452 643 c 0,38,39
 465 643 465 643 476 633.5 c 128,-1,40
 487 624 487 624 487 610 c 0,41,42
 487 595 487 595 475 581 c 1,43,-1
 251 354 l 1,44,-1
 541 55 l 1,45,46
 554 40 554 40 554 27 c 0,16,17
EndSplineSet
EndChar

StartChar: kcommaaccent
Encoding: 311 311 242
Width: 496
GlyphClass: 2
Flags: W
LayerCount: 2
Fore
SplineSet
280 -141 m 1,0,1
 267 -171 267 -171 246 -171 c 0,2,3
 214 -171 214 -171 214 -136 c 1,4,5
 214 -136 214 -136 217 -118 c 1,6,-1
 241 -31 l 2,7,8
 250 0 250 0 276 0 c 0,9,10
 283 0 283 0 293.5 -2 c 128,-1,11
 304 -4 304 -4 315.5 -12.5 c 128,-1,12
 327 -21 327 -21 327 -35 c 0,13,14
 327 -44 327 -44 320 -58 c 2,15,-1
 280 -141 l 1,0,1
482 27 m 0,16,17
 482 15 482 15 472 4.5 c 128,-1,18
 462 -6 462 -6 448 -6 c 0,19,20
 433 -6 433 -6 417 8 c 2,21,-1
 166 231 l 1,22,-1
 147 212 l 1,23,-1
 147 35 l 2,24,25
 147 -7 147 -7 110 -7 c 0,26,27
 75 -7 75 -7 75 32 c 2,28,-1
 75 600 l 2,29,30
 75 623 75 623 86 633 c 128,-1,31
 97 643 97 643 111 643 c 128,-1,32
 125 643 125 643 136 633 c 128,-1,33
 147 623 147 623 147 600 c 2,34,-1
 147 282 l 1,35,-1
 343 452 l 2,36,37
 359 466 359 466 375 466 c 0,38,39
 388 466 388 466 399 456 c 128,-1,40
 410 446 410 446 410 432 c 0,41,42
 410 415 410 415 394 403 c 2,43,-1
 219 263 l 1,44,-1
 468 57 l 1,45,46
 482 47 482 47 482 27 c 0,16,17
EndSplineSet
EndChar

StartChar: kgreenlandic
Encoding: 312 312 243
Width: 501
GlyphClass: 2
Flags: W
LayerCount: 2
Fore
SplineSet
467 27 m 0,0,1
 467 16 467 16 457 4.5 c 128,-1,2
 447 -7 447 -7 433 -7 c 0,3,4
 418 -7 418 -7 404 2 c 1,5,-1
 145 194 l 1,6,-1
 145 32 l 2,7,8
 145 -7 145 -7 108 -7 c 0,9,10
 73 -7 73 -7 73 32 c 2,11,-1
 73 428 l 2,12,13
 73 449 73 449 84 458.5 c 128,-1,14
 95 468 95 468 109 468 c 128,-1,15
 123 468 123 468 134 458.5 c 128,-1,16
 145 449 145 449 145 428 c 2,17,-1
 145 270 l 1,18,-1
 403 461 l 2,19,20
 415 471 415 471 433 471 c 0,21,22
 447 471 447 471 457 459.5 c 128,-1,23
 467 448 467 448 467 437 c 0,24,25
 467 419 467 419 448 405 c 2,26,-1
 199 232 l 1,27,-1
 449 58 l 1,28,29
 467 44 467 44 467 27 c 0,0,1
EndSplineSet
EndChar

StartChar: Lacute
Encoding: 313 313 244
Width: 554
GlyphClass: 2
Flags: W
LayerCount: 2
Fore
SplineSet
118 0 m 2,0,1
 84 0 84 0 84 43 c 2,2,-1
 84 603 l 2,3,4
 84 624 84 624 95 633.5 c 128,-1,5
 106 643 106 643 120 643 c 128,-1,6
 134 643 134 643 145 633.5 c 128,-1,7
 156 624 156 624 156 603 c 2,8,-1
 156 72 l 1,9,-1
 489 72 l 2,10,11
 532 72 532 72 532 35 c 0,12,13
 532 0 532 0 489 0 c 2,14,-1
 118 0 l 2,0,1
196 820 m 0,15,16
 209 820 209 820 220.5 809 c 128,-1,17
 232 798 232 798 232 785 c 0,18,19
 232 771 232 771 217 754 c 1,20,-1
 148 686 l 1,21,22
 133 669 133 669 115 669 c 0,23,24
 100 669 100 669 90 680 c 128,-1,25
 80 691 80 691 80 703 c 0,26,27
 80 718 80 718 94 734 c 1,28,-1
 164 804 l 2,29,30
 181 820 181 820 196 820 c 0,15,16
EndSplineSet
EndChar

StartChar: lacute
Encoding: 314 314 245
Width: 294
GlyphClass: 2
Flags: W
LayerCount: 2
Fore
SplineSet
208 0 m 2,0,-1
 201 0 l 2,1,2
 138 0 138 0 114.5 31 c 128,-1,3
 91 62 91 62 91 133 c 2,4,-1
 91 598 l 2,5,6
 91 643 91 643 127 643 c 128,-1,7
 163 643 163 643 163 598 c 2,8,-1
 163 118 l 2,9,10
 163 91 163 91 172 81.5 c 128,-1,11
 181 72 181 72 208 72 c 0,12,13
 253 72 253 72 253 35 c 0,14,15
 253 0 253 0 208 0 c 2,0,-1
192 819 m 0,16,17
 205 819 205 819 216.5 808 c 128,-1,18
 228 797 228 797 228 784 c 0,19,20
 228 770 228 770 213 753 c 1,21,-1
 144 685 l 1,22,23
 129 668 129 668 111 668 c 0,24,25
 96 668 96 668 86 679 c 128,-1,26
 76 690 76 690 76 702 c 0,27,28
 76 717 76 717 90 733 c 1,29,-1
 160 803 l 2,30,31
 177 819 177 819 192 819 c 0,16,17
EndSplineSet
EndChar

StartChar: Lcommaaccent
Encoding: 315 315 246
Width: 554
GlyphClass: 2
Flags: W
LayerCount: 2
Fore
SplineSet
313 -175 m 1,0,1
 300 -205 300 -205 279 -205 c 0,2,3
 247 -205 247 -205 247 -170 c 1,4,5
 247 -170 247 -170 250 -152 c 1,6,-1
 274 -65 l 2,7,8
 283 -34 283 -34 309 -34 c 0,9,10
 316 -34 316 -34 326.5 -36 c 128,-1,11
 337 -38 337 -38 348.5 -46.5 c 128,-1,12
 360 -55 360 -55 360 -69 c 0,13,14
 360 -78 360 -78 353 -92 c 2,15,-1
 313 -175 l 1,0,1
118 0 m 2,16,17
 84 0 84 0 84 43 c 2,18,-1
 84 603 l 2,19,20
 84 624 84 624 95 633.5 c 128,-1,21
 106 643 106 643 120 643 c 128,-1,22
 134 643 134 643 145 633.5 c 128,-1,23
 156 624 156 624 156 603 c 2,24,-1
 156 72 l 1,25,-1
 489 72 l 2,26,27
 532 72 532 72 532 35 c 0,28,29
 532 0 532 0 489 0 c 2,30,-1
 118 0 l 2,16,17
EndSplineSet
EndChar

StartChar: lcommaaccent
Encoding: 316 316 247
Width: 294
GlyphClass: 2
Flags: W
LayerCount: 2
Fore
SplineSet
157 -175 m 1,0,1
 144 -205 144 -205 123 -205 c 0,2,3
 91 -205 91 -205 91 -170 c 1,4,5
 91 -170 91 -170 94 -152 c 1,6,-1
 118 -65 l 2,7,8
 127 -34 127 -34 153 -34 c 0,9,10
 160 -34 160 -34 170.5 -36 c 128,-1,11
 181 -38 181 -38 192.5 -46.5 c 128,-1,12
 204 -55 204 -55 204 -69 c 0,13,14
 204 -78 204 -78 197 -92 c 2,15,-1
 157 -175 l 1,0,1
208 0 m 2,16,-1
 201 0 l 2,17,18
 138 0 138 0 114.5 31 c 128,-1,19
 91 62 91 62 91 133 c 2,20,-1
 91 598 l 2,21,22
 91 643 91 643 127 643 c 128,-1,23
 163 643 163 643 163 598 c 2,24,-1
 163 118 l 2,25,26
 163 91 163 91 172 81.5 c 128,-1,27
 181 72 181 72 208 72 c 0,28,29
 253 72 253 72 253 35 c 0,30,31
 253 0 253 0 208 0 c 2,16,-1
EndSplineSet
EndChar

StartChar: Lcaron
Encoding: 317 317 248
Width: 554
GlyphClass: 2
Flags: W
LayerCount: 2
Fore
SplineSet
118 0 m 2,0,1
 84 0 84 0 84 43 c 2,2,-1
 84 603 l 2,3,4
 84 624 84 624 95 633.5 c 128,-1,5
 106 643 106 643 120 643 c 128,-1,6
 134 643 134 643 145 633.5 c 128,-1,7
 156 624 156 624 156 603 c 2,8,-1
 156 72 l 1,9,-1
 489 72 l 2,10,11
 532 72 532 72 532 35 c 0,12,13
 532 0 532 0 489 0 c 2,14,-1
 118 0 l 2,0,1
276 519 m 1,15,16
 263 489 263 489 242 489 c 0,17,18
 210 489 210 489 210 524 c 1,19,-1
 213 542 l 1,20,-1
 237 629 l 2,21,22
 246 660 246 660 272 660 c 0,23,24
 279 660 279 660 289.5 658 c 128,-1,25
 300 656 300 656 311.5 647.5 c 128,-1,26
 323 639 323 639 323 625 c 0,27,28
 323 616 323 616 316 602 c 2,29,-1
 276 519 l 1,15,16
EndSplineSet
EndChar

StartChar: lcaron
Encoding: 318 318 249
Width: 294
GlyphClass: 2
Flags: W
LayerCount: 2
Fore
SplineSet
208 0 m 2,0,-1
 201 0 l 2,1,2
 138 0 138 0 114.5 31 c 128,-1,3
 91 62 91 62 91 133 c 2,4,-1
 91 598 l 2,5,6
 91 643 91 643 127 643 c 128,-1,7
 163 643 163 643 163 598 c 2,8,-1
 163 118 l 2,9,10
 163 91 163 91 172 81.5 c 128,-1,11
 181 72 181 72 208 72 c 0,12,13
 253 72 253 72 253 35 c 0,14,15
 253 0 253 0 208 0 c 2,0,-1
274 517 m 1,16,17
 261 487 261 487 240 487 c 0,18,19
 208 487 208 487 208 522 c 1,20,-1
 211 540 l 1,21,-1
 235 627 l 2,22,23
 244 658 244 658 270 658 c 0,24,25
 277 658 277 658 287.5 656 c 128,-1,26
 298 654 298 654 309.5 645.5 c 128,-1,27
 321 637 321 637 321 623 c 0,28,29
 321 614 321 614 314 600 c 2,30,-1
 274 517 l 1,16,17
EndSplineSet
EndChar

StartChar: Lslash
Encoding: 321 321 250
Width: 562
GlyphClass: 2
Flags: W
LayerCount: 2
Fore
SplineSet
126 0 m 2,0,1
 92 0 92 0 92 43 c 2,2,-1
 92 290 l 1,3,-1
 55 271 l 1,4,5
 46 268 46 268 36 268 c 0,6,7
 17 268 17 268 8.5 280.5 c 128,-1,8
 0 293 0 293 0 306 c 0,9,10
 0 326 0 326 28 338 c 1,11,-1
 92 370 l 1,12,-1
 92 603 l 2,13,14
 92 624 92 624 103 633.5 c 128,-1,15
 114 643 114 643 128 643 c 128,-1,16
 142 643 142 643 153 633.5 c 128,-1,17
 164 624 164 624 164 603 c 2,18,-1
 164 407 l 1,19,-1
 198 424 l 2,20,21
 205 428 205 428 219 428 c 0,22,23
 235 428 235 428 245.5 417.5 c 128,-1,24
 256 407 256 407 256 392 c 0,25,26
 256 372 256 372 225 356 c 2,27,-1
 164 326 l 1,28,-1
 164 72 l 1,29,-1
 497 72 l 2,30,31
 540 72 540 72 540 35 c 0,32,33
 540 0 540 0 497 0 c 2,34,-1
 126 0 l 2,0,1
EndSplineSet
EndChar

StartChar: lslash
Encoding: 322 322 251
Width: 336
GlyphClass: 2
Flags: W
LayerCount: 2
Fore
SplineSet
244 0 m 2,0,-1
 237 0 l 2,1,2
 174 0 174 0 150.5 31 c 128,-1,3
 127 62 127 62 127 133 c 2,4,-1
 127 291 l 1,5,-1
 87 271 l 1,6,7
 78 268 78 268 68 268 c 0,8,9
 49 268 49 268 40.5 280.5 c 128,-1,10
 32 293 32 293 32 306 c 0,11,12
 32 326 32 326 60 338 c 1,13,-1
 127 372 l 1,14,-1
 127 598 l 2,15,16
 127 643 127 643 163 643 c 128,-1,17
 199 643 199 643 199 598 c 2,18,-1
 199 408 l 1,19,-1
 230 424 l 2,20,21
 237 428 237 428 251 428 c 0,22,23
 267 428 267 428 277.5 417.5 c 128,-1,24
 288 407 288 407 288 392 c 0,25,26
 288 372 288 372 257 356 c 2,27,-1
 199 327 l 1,28,-1
 199 118 l 2,29,30
 199 91 199 91 208 81.5 c 128,-1,31
 217 72 217 72 244 72 c 0,32,33
 289 72 289 72 289 35 c 0,34,35
 289 0 289 0 244 0 c 2,0,-1
EndSplineSet
EndChar

StartChar: Nacute
Encoding: 323 323 252
Width: 672
GlyphClass: 2
Flags: W
LayerCount: 2
Fore
SplineSet
553 -7 m 0,0,1
 530 -7 530 -7 525 0 c 2,2,-1
 156 517 l 1,3,-1
 156 32 l 2,4,5
 156 -7 156 -7 120 -7 c 128,-1,6
 84 -7 84 -7 84 35 c 2,7,-1
 84 600 l 2,8,9
 84 643 84 643 118 643 c 0,10,11
 140 643 140 643 156 620 c 2,12,-1
 516 118 l 1,13,-1
 516 597 l 2,14,15
 516 643 516 643 551 643 c 0,16,17
 588 643 588 643 588 600 c 2,18,-1
 588 35 l 2,19,20
 588 -7 588 -7 553 -7 c 0,0,1
292 621 m 0,21,22
 280 621 280 621 268.5 631 c 128,-1,23
 257 641 257 641 257 656 c 0,24,25
 257 670 257 670 268 685 c 1,26,-1
 364 800 l 2,27,28
 381 819 381 819 397 819 c 0,29,30
 411 819 411 819 421.5 809 c 128,-1,31
 432 799 432 799 432 783 c 128,-1,32
 432 767 432 767 421 755 c 2,33,-1
 325 640 l 2,34,35
 308 621 308 621 292 621 c 0,21,22
EndSplineSet
EndChar

StartChar: nacute
Encoding: 324 324 253
Width: 678
GlyphClass: 2
Flags: W
LayerCount: 2
Fore
SplineSet
327 389 m 2,0,1
 226 389 226 389 186 345.5 c 128,-1,2
 146 302 146 302 146 229 c 2,3,-1
 146 35 l 2,4,5
 146 -7 146 -7 110 -7 c 128,-1,6
 74 -7 74 -7 74 35 c 2,7,-1
 74 425 l 2,8,9
 74 468 74 468 108 468 c 0,10,11
 146 468 146 468 146 422 c 2,12,-1
 146 411 l 1,13,14
 208 461 208 461 327 461 c 2,15,-1
 356 461 l 2,16,17
 490 461 490 461 549 424.5 c 128,-1,18
 608 388 608 388 608 283 c 2,19,-1
 608 35 l 2,20,21
 608 -7 608 -7 573 -7 c 0,22,23
 536 -7 536 -7 536 35 c 2,24,-1
 536 280 l 2,25,26
 536 352 536 352 501.5 370.5 c 128,-1,27
 467 389 467 389 356 389 c 2,28,-1
 327 389 l 2,0,1
317 495 m 0,29,30
 305 495 305 495 293.5 505 c 128,-1,31
 282 515 282 515 282 530 c 0,32,33
 282 544 282 544 293 559 c 1,34,-1
 389 674 l 2,35,36
 406 693 406 693 422 693 c 0,37,38
 436 693 436 693 446.5 683 c 128,-1,39
 457 673 457 673 457 657 c 128,-1,40
 457 641 457 641 446 629 c 2,41,-1
 350 514 l 2,42,43
 333 495 333 495 317 495 c 0,29,30
EndSplineSet
EndChar

